<svg version="1.1" xmlns="http://www.w3.org/2000/svg" xmlns:xlink="http://www.w3.org/1999/xlink" width="103.21737" height="100.21919" viewBox="0,0,103.21737,100.21919"><g transform="translate(-192.13199,-127.53106)"><g data-paper-data="{&quot;isPaintingLayer&quot;:true}" fill-rule="nonzero" stroke-linecap="butt" stroke-linejoin="miter" stroke-miterlimit="10" stroke-dasharray="" stroke-dashoffset="0" style="mix-blend-mode: normal"><path d="M209.75,180c0,-16.70661 13.54339,-30.25 30.25,-30.25c16.70662,0 30.25,13.54339 30.25,30.25c0,16.70662 -13.54338,30.25 -30.25,30.25c-16.70661,0 -30.25,-13.54338 -30.25,-30.25z" fill="none" stroke="#7e7e7e" stroke-width="10"/><path d="M204.17361,193.41406c-1.3452,0 -1.96658,-0.72383 -2.2536,-1.39253c-0.27614,-0.27406 -0.51113,-0.66003 -0.65831,-1.19968c-0.48636,-1.7833 0.70541,-2.60767 1.35966,-2.91625c0.3389,-0.90624 0.73012,-1.74793 1.56745,-2.03941c1.62912,-0.56712 3.49005,0.48956 5.00552,1.31357c0.06363,0.03459 0.21649,0.20368 0.42453,0.45739c0.29029,0.17003 0.59373,0.37313 0.91396,0.61367c1.5577,1.17009 2.0431,3.34391 3.32954,4.80568c0.01347,0.01514 0.02695,0.03029 0.04045,0.04543c0.02948,0.03272 0.05938,0.06508 0.08973,0.09704c3.20027,3.37074 6.81655,5.66641 9.16651,8.88969c1.08544,0.96121 4.44144,3.83056 4.45827,3.87637c1.9186,5.22082 0.59716,5.48749 -2.36013,6.38089c-0.31877,0.18968 -0.65816,0.27495 -0.96995,0.30403c-0.20231,0.06683 -0.41021,0.13824 -0.62333,0.21555c0,0 -2.45145,0.49029 -2.94174,-1.96116c-0.07397,-0.36986 -0.08098,-0.69507 -0.03955,-0.9807l-0.009,-0.00959c0.0207,-1.6693 -0.37764,-3.07169 -1.04907,-4.30545c-0.07996,-0.0556 -0.13494,-0.0964 -0.1589,-0.11894c-2.76458,-2.60123 -5.55108,-5.30216 -8.24401,-7.99159c-0.29856,-0.28206 -0.58855,-0.57104 -0.86696,-0.86895c-0.06502,-0.06958 -0.1281,-0.13888 -0.18933,-0.20787c-1.06681,-1.1505 -2.10269,-2.51946 -2.99174,-3.7572c-0.07342,-0.10222 -0.14919,-0.20329 -0.22546,-0.3042c-0.18341,-0.07068 -0.38784,-0.1151 -0.62105,-0.13013c-0.32305,0.60236 -0.94728,1.18434 -2.15349,1.18434z" fill="#7e7e7e" stroke="none" stroke-width="0.5"/><path d="M283.13956,156.77369c2.66658,4.04885 4.00105,8.68005 4.52274,14.15282c0.12036,1.26264 0.5202,4.15699 0.22151,5.68686c1.21752,0.41187 2.42057,0.93397 3.61088,1.60603c2.02277,2.30989 2.97895,2.80773 3.63382,5.9719c1.15773,5.59394 -2.49234,12.39287 -4.99364,17.13911c-1.56796,2.97523 -3.08552,6.31376 -6.82567,7.05374c-1.10968,0.21955 -2.23847,-0.32899 -3.35435,-0.51443c-3.99004,-0.66307 -7.78241,-2.74376 -11.68835,-3.36064c4.51077,3.84052 6.70791,11.4541 4.43938,16.42541c-1.56597,3.43171 -4.74287,4.65093 -7.99558,5.85257c-8.66387,2.52035 -16.80534,-0.11025 -23.50935,-5.50618c-0.4327,2.18191 -1.47294,4.14574 -3.63217,5.35547c-1.03511,0.57993 -2.33803,0.4285 -3.52063,0.5246c-5.33285,0.43335 -10.31147,-1.629 -14.64429,-4.51187c-4.45966,-3.94338 -5.6676,-8.19665 -5.92194,-13.54516c-1.29528,0.78176 -2.78106,1.21356 -4.53687,1.04966c-2.797,-0.26109 -4.00772,-1.7044 -5.91769,-3.35809c-3.52295,-3.05024 -6.74899,-6.80413 -8.8362,-11.00622c-0.94084,-1.89414 -2.52687,-5.06571 -1.92731,-7.29081c0.9637,-3.5765 4.99847,-4.52733 7.68496,-6.01382c0.75607,-0.41835 1.46508,-0.91325 2.16907,-1.41673l-1.12273,-0.08267c-2.4745,-1.02285 -4.00229,-1.27638 -5.67396,-3.71851c-3.00693,-4.39277 -2.20853,-9.93283 -1.07846,-14.68638c1.41906,-5.96919 2.69012,-11.57052 6.79946,-16.31256c0,0 0.80054,-0.9149 1.92312,-0.91047c0.27469,-0.15979 0.54744,-0.2829 0.81389,-0.35878c1.21163,-0.34503 5.15189,0.84658 6.46867,1.3053c2.71347,0.94527 5.26925,2.08152 7.78,3.34006c-1.49544,-4.07373 -1.62099,-9.0986 -0.09031,-12.09788c3.34231,-6.54906 14.29179,-8.44701 20.8661,-9.10444c2.00575,-0.39399 6.91933,-1.42047 8.78832,-0.60274c5.06097,2.21431 4.37734,8.0954 5.0035,12.3811c3.35454,-2.41389 6.49991,-5.417 10.71511,-6.02939c3.09521,-0.44968 6.2254,0.4955 9.21645,1.12368c4.13743,2.2378 8.25531,5.11012 8.6351,10.36046c0.10749,1.48599 -0.30368,2.98755 -1.02826,4.43603c1.31439,1.32485 2.35353,3.01914 2.93431,4.83497l0.10543,1.46837c0,0 0,0.14258 -0.03405,0.35963zM266.06339,171.4883c-0.89815,-3.0808 -1.1108,-6.24852 -0.83392,-9.40388c-5.92538,-0.01612 -8.2817,-6.94199 -12.76264,-10.48309c-0.3163,0.39562 -0.66997,0.75764 -1.05601,1.07225c-3.4737,2.83106 -8.28463,0.89097 -12.07532,0.49403c-0.37206,1.4647 -1.81652,1.701 -2.27289,1.73912c-3.86992,1.14813 -9.35828,2.59718 -13.4531,1.10748c-1.24081,1.64591 -3.15002,0.58525 -3.15002,0.58525c-0.52165,-0.2899 -1.04146,-0.57591 -1.56072,-0.85743c-4.72549,5.26344 -2.92056,14.114 -7.21031,19.90202c-1.15407,1.55715 -2.68331,3.10686 -4.44391,4.03056c0.11931,0.10485 0.23568,0.22812 0.34749,0.37236l0.84933,0.84933c5.8185,5.8429 12.03691,12.73148 11.06162,21.4255c-0.29553,0.41857 -0.5952,0.85293 -0.90232,1.29288c0.78719,-0.3186 1.59676,-0.14512 1.59676,-0.14512c3.14502,0.67913 5.85166,1.95757 8.89982,2.78697c3.51196,0.9556 8.45117,0.74788 11.00164,3.95005c0.51583,-0.37236 1.0509,-0.48702 1.0509,-0.48702c3.8466,-0.82354 7.67853,-1.4178 11.35221,-2.87942c3.167,-1.26002 6.13709,-4.50822 9.68241,-4.69383c-0.23612,-2.47218 2.24045,-2.71984 2.24045,-2.71984c0.3773,-0.0348 0.71581,-0.07025 1.02616,-0.10346l0.02115,-0.64924c0.72325,-3.59684 2.0775,-6.90006 3.03827,-10.41282c0.84771,-3.09939 1.24557,-6.00853 2.19201,-8.91388c-2.52699,-1.90106 -3.51308,-5.04296 -4.63904,-7.85876z" fill="#7e7e7e" stroke="none" stroke-width="0.5"/><path d="M252.75,180c0,8.00813 -5.70837,14.5 -12.75,14.5c-7.04163,0 -12.75,-6.49187 -12.75,-14.5c0,-8.00813 5.70837,-14.5 12.75,-14.5c7.04163,0 12.75,6.49187 12.75,14.5z" fill="none" stroke="#808080" stroke-width="10"/></g></g></svg>