<svg version="1.1" xmlns="http://www.w3.org/2000/svg" xmlns:xlink="http://www.w3.org/1999/xlink" width="81.19606" height="112.76099" viewBox="0,0,81.19606,112.76099"><g transform="translate(-202.12921,-92.89314)"><g data-paper-data="{&quot;isPaintingLayer&quot;:true}" fill="#000000" fill-rule="nonzero" stroke="none" stroke-width="0.5" stroke-linecap="butt" stroke-linejoin="miter" stroke-miterlimit="10" stroke-dasharray="" stroke-dashoffset="0" style="mix-blend-mode: normal"><path d="M249.70543,126.72582c-3.50936,1.9418 -7.09957,3.59791 -10.73759,5.14498c1.89175,1.75639 3.81228,3.49549 5.57865,5.35117c1.71089,1.7974 3.35119,3.81343 4.97015,5.69633c1.25085,1.45478 1.6217,3.11463 3.29059,3.79297c0.53814,0.44028 0.96284,0.88501 1.33175,1.33079c0.01567,-0.00948 0.03132,-0.01899 0.04694,-0.02856c2.88458,-1.76636 3.33757,-4.1072 4.30963,-7.07731c1.74077,-5.31885 2.47812,-11.48432 0.93194,-16.9337c-0.07807,-0.37047 -0.16341,-0.73667 -0.25585,-1.09854c-3.11846,1.2643 -6.17163,2.83335 -9.46621,3.82188zM228.77107,136.02572c-2.64651,1.07094 -4.91749,2.20122 -7.29694,2.96703c0.0356,0.03414 0.0705,0.06896 0.10458,0.10455c0.96516,1.0077 0.99703,1.95702 1.93728,3.00661c1.95864,2.18642 5.34068,5.13414 8.50969,6.29266c0.67335,0.19174 1.34454,0.34662 2.01782,0.47552c0.08203,0.00714 0.16363,0.01253 0.24478,0.01611c0,0 0.16978,0.01473 0.37852,0.09599c0.20679,0.0349 0.41389,0.06766 0.62144,0.09862c-0.0577,-1.80898 -0.03507,-3.65726 -0.12939,-5.62515c-0.15563,-3.2471 -0.22234,-6.55163 -0.36016,-9.85954c-2.00052,0.81211 -4.01151,1.61178 -6.02762,2.42762zM227.80705,133.71906c2.22594,-0.90528 4.44232,-1.79097 6.64477,-2.69401c-0.49718,-0.49417 -0.98518,-0.99486 -1.46015,-1.50493c-0.17826,-0.19144 -0.33151,-0.40476 -0.47161,-0.62931c-1.09302,-1.10385 -2.20438,-2.18735 -3.32938,-3.2549c-0.59043,-0.23183 -1.16421,-0.48209 -1.58925,-0.93322c-0.30105,-0.31954 -0.47066,-0.733 -0.64002,-1.14746c-4.26367,-3.91868 -8.67488,-7.65536 -12.9885,-11.44121c-0.47144,1.7505 -0.90155,3.03888 -1.03336,5.08332c-0.0362,0.56146 -0.53911,2.24396 -0.39479,2.89187c0.5425,2.43542 1.44167,4.94212 1.8159,7.54286c0.28964,1.35977 0.40978,4.10972 1.52391,5.21285c0.40801,0.40398 1.0977,0.43834 1.49844,0.84954c1.37116,1.40695 0.91089,1.91968 1.85074,3.36583c2.91647,-0.65512 5.45066,-2.07126 8.5733,-3.34122zM248.73585,124.4215c1.5713,-0.47951 3.21845,-0.70333 4.7665,-1.25329c1.84312,-0.65479 3.41578,-1.55963 5.02819,-2.39016c-2.96291,-8.47912 -10.04246,-14.28898 -18.86952,-16.80093c-1.77079,-0.50392 -3.82011,-0.59018 -5.8678,-0.5451c0.32016,1.41007 0.3163,2.89651 0.32311,4.37195c0.19131,1.34279 0.3743,2.68851 0.4978,4.04622c0.37974,1.00378 0.9459,2.50324 0.99676,2.73893c1.06735,4.94583 1.38235,10.12728 1.57193,15.30152c3.90941,-1.64893 7.76869,-3.40194 11.553,-5.46915zM215.48478,109.53351l0.24045,0.55445c3.03152,1.36522 3.35685,3.66026 6.02453,5.34682c1.98601,1.5006 4.902,3.53584 6.50511,5.37773c0.29537,0.33935 0.45205,0.77429 0.62307,1.1993c0.63823,0.5811 1.27336,1.16624 1.90445,1.75636c0.60799,0.22058 1.24275,0.40394 1.66683,0.7443c0.85279,0.68443 1.26858,1.77174 1.88502,2.68487c0.02388,0.02389 0.04775,0.04779 0.07162,0.07171c-0.35531,-3.97724 -0.96388,-7.90896 -2.10835,-11.69966c-0.00499,-1.03146 -0.06067,-2.05298 -0.14801,-3.06799c-0.16222,-0.41118 -0.29594,-0.82943 -0.35961,-1.26558c-0.11813,-0.80928 -0.11477,-1.70879 -0.09522,-2.63322c-0.23074,-1.68536 -0.48175,-3.36486 -0.66316,-5.05474c-0.8723,0.04621 -1.71981,0.09267 -2.51889,0.11522c-1.97324,0.19743 -4.21397,0.12136 -6.15275,0.47897c-2.25364,0.41567 -3.4297,1.79408 -5.1444,3.0289c-0.81026,0.5835 -1.95397,0.63729 -2.64973,1.43366c-0.11178,0.12794 -0.18699,0.27174 -0.23692,0.42673c0.68347,-0.11038 1.15595,0.50219 1.15595,0.50219zM250.48954,148.2075c-1.26687,-0.93236 -2.42163,-2.30013 -3.52546,-3.76376c-3.24094,-3.45269 -6.4743,-6.89533 -9.62811,-10.40219c0.04268,1.17206 0.0778,2.34258 0.11272,3.50863c0.05423,1.26284 0.11978,2.51789 0.20614,3.76146c0.08647,1.43713 0.13969,2.87093 0.17216,4.30383c0.10062,1.20493 0.20012,2.52045 0.18146,3.79172c1.31933,0.13041 2.67552,0.24301 4.09727,0.41133c2.98396,0.09527 6.33631,0.24744 9.31582,-0.61029c-0.31045,-0.33396 -0.62115,-0.66751 -0.93201,-1.00072zM222.91467,151.16605c-0.77061,-0.49288 -1.11471,-1.53361 -1.92742,-1.95348c-0.96742,-0.4998 -2.21576,-0.50625 -3.02375,-1.23621c-0.71371,-0.64479 -0.9349,-1.69703 -1.56278,-2.42566c-0.68627,-0.79638 -1.86996,-0.98535 -2.69844,-1.6325c-1.21929,-0.95242 -1.35139,-2.80722 -2.55307,-3.61074c-0.95271,-0.63703 -2.00172,-1.20697 -2.7262,-2.095c-0.48578,-0.88881 -0.55068,-2.0273 -1.22996,-2.77866c-0.7741,-0.85626 -2.08516,-1.2082 -2.67289,-2.20167c-2.82126,-4.76893 -2.6542,-12.23527 -1.96371,-17.40403c0.32367,-2.42279 0.18222,-4.87072 1.24404,-7.19195c0.7543,-1.64898 2.28581,-2.50666 3.39697,-3.89399c1.42174,-2.63065 2.75374,-2.6953 4.94301,-4.45449c6.96788,-5.59905 18.1127,-8.63315 27.13088,-6.91469c2.95254,0.56262 5.79692,1.47563 8.70621,2.22483c8.12475,2.11308 16.69699,7.21038 20.631,15.09508c0.65408,1.31093 0.80199,2.83776 1.46759,4.14287c0.63409,1.24333 1.68552,2.23201 2.40008,3.4309c1.62727,2.73022 1.6888,6.75231 2.08798,9.85707c1.34487,5.55031 1.34374,12.30669 -1.26688,17.56618c-0.77531,1.56198 -2.90506,2.71854 -4.16372,3.8043c-1.70024,1.46668 -3.71504,2.41913 -5.86781,2.96438c0.23948,1.25321 0.29719,2.59434 0.39326,3.50014c0.61885,5.83507 0.63085,11.65417 1.42861,17.48767c0.59271,3.54022 1.30013,5.81302 3.07576,8.72711c1.00829,1.65478 1.18408,3.85915 2.10891,5.56247c0.70609,1.30045 2.11175,2.11195 2.88685,3.37248c0.40591,0.66011 0.6101,2.66877 1.50291,3.36693c0.50811,0.39732 1.20262,0.51046 1.70504,0.91494c1.24872,1.0053 1.25491,2.50762 2.57108,3.44377c0.89477,0.63642 3.33867,1.18515 3.7802,2.27862c1.40923,3.48999 0.21228,3.03139 -2.03027,3.57361c-11.57328,1.13327 -22.75087,0.99148 -34.44324,0.9219c-12.02819,-0.98494 -24.44778,0.12287 -36.43733,-1.43015c0,0 -0.86878,-0.11301 -1.05707,-0.87714c-0.0563,-0.02723 -0.11382,-0.05934 -0.17253,-0.0968c-1.05374,-0.6724 -0.38134,-1.72615 -0.38134,-1.72615l0.72442,-1.04841c1.17816,-1.04964 2.18034,-1.60463 2.90485,-2.97126c0.83524,-3.26297 2.58649,-5.493 3.93765,-8.36422c1.20418,-2.5589 1.0973,-5.83285 2.09889,-8.47728c0.62449,-1.64879 1.76238,-3.18833 2.26299,-4.91408c1.13019,-3.89614 1.65347,-8.33367 2.05531,-12.35811c0.64167,-1.94514 1.99061,-3.87551 2.55222,-5.72688c0.38392,-1.26558 0.19683,-3.47953 0.43721,-5.38217c-0.78503,-0.27167 -1.54343,-0.61409 -2.25552,-1.06953z"/></g></g></svg>