<svg version="1.1" xmlns="http://www.w3.org/2000/svg" xmlns:xlink="http://www.w3.org/1999/xlink" width="62.03894" height="82.92072" viewBox="0,0,62.03894,82.92072"><g transform="translate(-220.87868,-148.4381)"><g data-paper-data="{&quot;isPaintingLayer&quot;:true}" fill-rule="nonzero" stroke="none" stroke-width="0.5" stroke-linecap="butt" stroke-linejoin="miter" stroke-miterlimit="10" stroke-dasharray="" stroke-dashoffset="0" style="mix-blend-mode: normal"><path d="M226.0324,229.44271c0,-1.25 1.25,-1.25 1.25,-1.25l0.08833,0.01081c0.03995,-0.15035 0.08828,-0.24673 0.08828,-0.24673l0.39576,-0.783c2.03188,-4.753 2.18315,-10.07682 2.93535,-15.18683c0.5602,-3.2237 2.52445,-6.00134 3.1742,-9.24098c1.1056,-5.51245 0.41103,-11.69707 0.40284,-17.34429c-4.14633,-2.76621 -9.02637,-5.54376 -11.81079,-9.67645c-2.3493,-3.48686 -1.90004,-10.32186 -0.66388,-14.08447c0.74072,-2.2546 2.67837,-3.40523 4.21641,-5.12558c1.93991,-2.59452 5.06976,-3.27848 7.85895,-4.67003c6.20307,-3.09477 13.22945,-4.09431 20.2088,-2.945c4.744,0.78121 9.2058,3.33312 13.85999,4.53926c1.62733,1.12847 3.63883,2.35596 4.81782,4.00753c0.99019,1.38708 0.92425,2.68277 1.31296,4.30781c1.43377,5.99397 3.18087,13.11053 -0.33392,18.82587c-2.27495,3.69926 -7.56594,4.30897 -11.52046,4.65042c1.07229,2.89898 1.47336,6.02676 2.57618,8.84354c3.28508,8.39064 9.35698,15.46507 13.19987,23.52006c1.26895,3.9306 3.24639,7.49341 4.54131,11.40287c0.13294,0.17307 0.22675,0.40968 0.23477,0.73315c0.03833,0.13758 0.29517,1.20163 -0.81862,1.55432c-0.59547,0.18856 -0.98761,-0.01465 -1.23094,-0.26519c-4.43328,-0.06599 -8.82801,-0.63699 -13.25354,-0.91567c-7.20682,-0.45383 -14.4913,0.02273 -21.67906,-0.74649c-2.31362,0.00214 -4.69016,0.19234 -6.96893,0.49479c-4.2951,0.57008 -7.45539,2.58228 -11.79075,0.73922l0.15907,0.10107c0,0 -1.25,0 -1.25,-1.25z" fill="#000000"/><path d="M234.18288,164.00665c0.37929,-0.7049 0.95183,-1.3593 1.63045,-1.87268c0.07114,-0.17404 0.46662,-1.01174 1.41108,-0.78893c1.32523,-0.50323 2.79602,-0.43021 3.9827,0.66514c1.24508,0.86705 1.88749,2.41539 0.85693,4.53742c-0.31427,0.64711 -1.01735,1.01736 -1.52603,1.52605c-0.31439,0.04074 -0.70946,0.09589 -1.15083,0.1441c-0.72242,0.23974 -1.48207,0.29443 -2.1686,0.09847c-1.86787,-0.07428 -3.66708,-0.68378 -3.636,-2.92303c0.00751,-0.54107 0.23211,-1.00582 0.6003,-1.38653z" fill="#ff0000"/><path d="M260.09237,164.51152c-0.11155,0.20145 -0.21694,0.40652 -0.3192,0.61344c0.17924,0.00348 0.36119,-0.00289 0.53592,-0.01967c0.00086,-0.00779 0.00157,-0.01566 0.00212,-0.0236c0.01825,-0.26146 -0.07058,-0.44592 -0.21884,-0.57017zM256.63937,162.76083c0.40656,-0.40561 0.94842,-0.67828 1.54285,-0.81956c1.31017,-0.48461 2.81061,-1.16056 4.18987,-0.13146c0.829,0.61855 1.34839,1.36797 1.5186,2.13756c0.28576,0.61582 0.38987,1.26965 0.22036,1.86622c-0.36669,1.29054 -2.02353,2.07009 -3.81338,2.26866c-0.71484,0.20834 -1.50804,0.26916 -2.27561,0.20103c-0.24169,0.26303 -0.82077,0.72173 -1.60505,0.21162c-0.37721,-0.24534 -0.53031,-0.53816 -0.57177,-0.81247c-1.51088,-0.78534 -2.19189,-2.2572 -0.418,-4.12574c0.27005,-0.28446 0.7217,-0.55397 1.21214,-0.79586z" fill="#ff0000"/></g></g></svg>