<svg version="1.1" xmlns="http://www.w3.org/2000/svg" xmlns:xlink="http://www.w3.org/1999/xlink" width="81.19605" height="112.76099" viewBox="0,0,81.19605,112.76099"><g transform="translate(-202.05736,-92.89314)"><g data-paper-data="{&quot;isPaintingLayer&quot;:true}" fill="#000000" fill-rule="nonzero" stroke="none" stroke-width="0.5" stroke-linecap="butt" stroke-linejoin="miter" stroke-miterlimit="10" stroke-dasharray="" stroke-dashoffset="0" style="mix-blend-mode: normal"><path d="M245.53022,131.48372c-3.81466,-0.87624 -7.64286,-1.68243 -11.44257,-2.59418c0.85155,1.34384 1.67839,2.70498 2.44998,3.9751c1.00184,1.64915 1.24433,3.2204 2.64362,4.66804c1.56571,2.35776 2.70003,4.66242 4.06756,7.11739c0.53947,0.96845 1.6066,1.56233 2.18175,2.51002c0.64793,1.06762 0.43361,2.59033 1.25683,3.52944c0.36045,0.4112 0.7224,0.79399 1.07984,1.16726l0.13167,-0.05092l0.24221,-0.08784l0.40422,-0.0185l0.65824,-0.19693l1.45298,-0.39519l0.07383,0.02024l1.11147,-0.66481l1.12996,-0.63286l0.0192,-0.0741l0.38196,-0.38091l0.00003,-0.00005l0.00005,-0.00003l0.43105,-0.42989l0.00001,-0.00002l0.00002,-0.00001l0.03581,-0.03571l0.00287,-0.00214l0.00311,-0.00381l0.2456,-0.24494l0.13017,-0.2163l0.15593,-0.1914l0.62724,-0.56879l0.16667,-0.24932l0.15146,-0.18881l0.09617,-0.20908c1.75363,-1.62478 2.20232,-3.64735 3.00453,-6.09849c0.40959,-1.2515 0.76363,-2.54986 1.04545,-3.87475c-4.48311,-2.16285 -9.14922,-3.78206 -13.93893,-5.57772zM220.99453,124.99705c-1.85548,-0.70451 -3.36629,-2.19942 -5.08727,-2.96289c-0.90537,-0.40165 -2.05827,-0.67024 -3.1888,-0.92118c0.53768,2.11307 1.24834,4.28127 1.57035,6.51909c0.28964,1.35977 0.40978,4.10972 1.52391,5.21285c0.40801,0.40398 1.0977,0.43834 1.49844,0.84954c1.13999,1.16975 1.01403,1.72138 1.47929,2.70524c2.87322,-3.0287 5.48928,-6.45684 8.03318,-9.41803c0.0052,-0.00606 0.01041,-0.01211 0.01561,-0.01816c-1.96552,-0.58702 -3.91578,-1.23405 -5.84471,-1.96645zM216.96232,119.7677c1.70079,0.75329 3.14609,2.22429 4.9709,2.91227c2.06771,0.77956 4.15884,1.45956 6.26621,2.07293c-2.75378,-3.77781 -5.4066,-7.55024 -7.46486,-11.692c-0.61673,-1.24103 -2.12835,-1.80038 -3.00235,-2.87585c-0.2193,-0.26985 -0.88809,-1.82266 -1.24323,-2.65736c-0.69698,0.29949 -1.47243,0.47868 -1.9951,1.07692c-0.11178,0.12794 -0.18699,0.27174 -0.23692,0.42673c0.2472,-0.03992 0.46681,0.01473 0.64644,0.10077l-0.54372,0.39191l-0.05966,0.4246l-0.37228,0.21273l-0.625,2.5v0.35825l0.162,0.64799l-0.10944,0.30774l0.0269,0.05361c-0.24341,0.95916 -0.43424,1.92364 -0.5145,3.1684c-0.01737,0.26947 -0.14226,0.79718 -0.25149,1.34481c1.48478,0.3481 3.1283,0.68618 4.34612,1.22556zM246.25153,129.09004c4.6856,1.74814 9.2585,3.35485 13.66262,5.42207c0.46507,-3.42387 0.39773,-6.93515 -0.47385,-10.20199v-0.11336l-0.04767,-0.1907l0.03287,-0.1938l-0.05703,-0.73946v-2.53011l-0.12109,-0.48436l0.02349,-0.49871l-0.07184,-0.35825l-0.35079,-0.73959l-0.10477,-0.41909l-0.12896,-0.07369l-0.51981,-1.09595l-1.71672,-0.57127c-1.37082,-2.31254 -3.09481,-4.35713 -5.10135,-6.11501c-0.41917,0.67942 -0.82374,1.37169 -1.43523,1.86752c-0.76961,0.62403 -2.03937,0.31027 -2.83093,0.90621c-2.16585,1.6306 -3.65524,3.46673 -6.10775,4.95168c-2.44772,2.12297 -5.21111,4.16211 -7.76197,6.34913c-0.04281,0.5954 -0.08305,1.19105 -0.12079,1.78675c4.38558,1.09485 8.81704,2.01276 13.23157,3.04199zM228.8639,146.54082c-0.39014,-0.9128 0.25445,-1.41053 0.53637,-1.57677c0.23541,-1.28435 0.51263,-2.55527 0.65818,-3.85592c-0.00204,-4.32628 0.1087,-8.7305 0.35217,-13.14248c-0.30294,-0.08008 -0.60561,-0.16121 -0.90798,-0.24347c-0.2582,0.28107 -0.50981,0.56579 -0.75396,0.85453c-2.58433,3.05634 -5.28478,6.53333 -8.23872,9.62386l0.63761,0.50869l0.07286,0.03328l0.05059,0.0621l0.21517,0.16094c-0.02796,0.00911 -0.05592,0.01816 -0.08391,0.02717c0.0356,0.03414 0.0705,0.06896 0.10458,0.10455c0.96516,1.0077 0.99703,1.95702 1.93728,3.00661c1.38179,1.54248 3.47201,3.46387 5.69609,4.86862c-0.10386,-0.10828 -0.19837,-0.24935 -0.27632,-0.43171zM233.24027,103.89851c0,0 0.18867,-0.97843 1.10268,-1.01968l-0.28033,-0.16768l-0.28384,0.07783l-0.22628,-0.1882l-2.56054,0.29032l-0.57475,0.21495l-0.73799,0.50799c-0.42305,0.02034 -0.83687,0.03772 -1.23845,0.04905c-1.97324,0.19743 -4.21397,0.12136 -6.15275,0.47897c-1.5806,0.29153 -2.63114,1.05663 -3.7092,1.91362c0.00685,0.01415 0.01024,0.02202 0.01024,0.02202c1.07026,2.49139 3.11035,3.48387 4.32258,5.75421c0.40103,0.75108 0.36518,1.67851 0.73021,2.44773c0.19932,0.42003 2.1807,2.63436 2.394,2.90743c1.54358,1.97617 2.89905,4.13791 4.32329,6.22332c0.12501,-0.11268 0.25065,-0.22494 0.37688,-0.33679c0.5082,-6.50657 1.32159,-12.97351 2.50428,-19.1751zM235.69505,104.37186c-1.03856,5.32075 -1.777,10.84877 -2.27572,16.4299c2.025,-1.65575 4.09623,-3.26017 6.01158,-4.91043c2.5231,-1.53951 4.03706,-3.48286 6.34615,-5.1054c0.39833,-0.27989 1.97865,-0.21529 2.48554,-0.67005c0.45437,-0.40764 0.75583,-0.94812 1.06757,-1.48148c-2.85196,-2.06945 -6.15204,-3.63596 -9.74101,-4.65729c-1.24651,-0.35472 -2.63104,-0.50249 -4.05585,-0.54317c0.26039,0.4263 0.16174,0.93791 0.16174,0.93791zM232.5546,141.24676c-0.17967,1.61829 -0.53759,3.18927 -0.80547,4.7939l-1.24454,1.15831c0,0 -0.44775,0.19137 -0.90377,0.05577c0.78099,0.46357 1.57344,0.85683 2.35301,1.14182c0.44771,0.12749 0.89446,0.23868 1.34151,0.33677l0.08426,0.14001l0.43105,0.42989l0.11025,0.06595l0.21092,0.13398l0.21482,0.26369l0.28737,0.21495l0.74008,0.31048l0.67744,0.43032l0.6466,0.21495l0.14134,0.01076l0.12367,0.06926l0.23971,0.0652l0.22426,0.12043l0.23534,0.15646l0.49204,0.17503l0.42366,0.30537l0.71844,0.28659l0.93611,0.12675l0.91645,0.22911h0.32602l0.47093,0.04697l0.34581,-0.0507l0.34208,0.07171l1.86795,-0.07166l0.20985,-0.0611l0.18348,0.0223c-0.07784,-0.09234 -0.15521,-0.18664 -0.232,-0.28321c-0.80311,-1.00991 -0.65352,-2.5364 -1.32957,-3.63542c-0.59849,-0.97294 -1.67006,-1.60467 -2.23574,-2.59704c-1.33361,-2.33953 -2.38261,-4.57188 -3.87213,-6.83402c-1.83306,-1.95066 -3.17478,-4.48505 -4.5051,-7.02325c-0.11275,3.08392 -0.16473,6.15247 -0.16613,9.17967zM222.84281,151.16605c-0.77061,-0.49288 -1.11471,-1.53361 -1.92742,-1.95348c-0.96742,-0.4998 -2.21576,-0.50625 -3.02375,-1.23621c-0.71371,-0.64479 -0.9349,-1.69703 -1.56278,-2.42566c-0.68627,-0.79638 -1.86996,-0.98535 -2.69844,-1.6325c-1.21929,-0.95242 -1.35139,-2.80722 -2.55307,-3.61074c-0.95271,-0.63703 -2.00172,-1.20697 -2.7262,-2.095c-0.48578,-0.88881 -0.55068,-2.0273 -1.22996,-2.77866c-0.7741,-0.85626 -2.08516,-1.2082 -2.67289,-2.20167c-2.82126,-4.76893 -2.6542,-12.23527 -1.96371,-17.40403c0.32367,-2.42279 0.18222,-4.87072 1.24404,-7.19195c0.7543,-1.64898 2.28581,-2.50666 3.39697,-3.89399c1.42174,-2.63065 2.75374,-2.6953 4.94301,-4.45449c6.96788,-5.59905 18.1127,-8.63315 27.13088,-6.91469c2.95254,0.56262 5.79692,1.47563 8.70621,2.22483c8.12475,2.11308 16.69699,7.21038 20.631,15.09508c0.65408,1.31093 0.80199,2.83776 1.46759,4.14287c0.63409,1.24333 1.68552,2.23201 2.40008,3.4309c1.62727,2.73022 1.6888,6.75231 2.08798,9.85707c1.34487,5.55031 1.34374,12.30669 -1.26688,17.56618c-0.77531,1.56198 -2.90506,2.71854 -4.16372,3.8043c-1.70024,1.46668 -3.71504,2.41913 -5.86781,2.96438c0.23948,1.25321 0.29719,2.59434 0.39326,3.50014c0.61885,5.83507 0.63085,11.65417 1.42861,17.48767c0.59271,3.54022 1.30013,5.81302 3.07576,8.72711c1.00829,1.65478 1.18408,3.85915 2.10891,5.56247c0.70609,1.30045 2.11175,2.11195 2.88685,3.37248c0.40591,0.66011 0.6101,2.66877 1.50291,3.36693c0.50811,0.39732 1.20262,0.51046 1.70504,0.91494c1.24872,1.0053 1.25491,2.50762 2.57108,3.44377c0.89477,0.63642 3.33867,1.18515 3.7802,2.27862c1.40923,3.48999 0.21228,3.03139 -2.03027,3.57361c-11.57328,1.13327 -22.75087,0.99148 -34.44324,0.9219c-12.02819,-0.98494 -24.44778,0.12287 -36.43733,-1.43015c0,0 -0.86878,-0.11301 -1.05707,-0.87714c-0.0563,-0.02723 -0.11382,-0.05934 -0.17253,-0.0968c-1.05374,-0.6724 -0.38134,-1.72615 -0.38134,-1.72615l0.72442,-1.04841c1.17816,-1.04964 2.18034,-1.60463 2.90485,-2.97126c0.83524,-3.26297 2.58649,-5.493 3.93765,-8.36422c1.20418,-2.5589 1.0973,-5.83285 2.09889,-8.47728c0.62449,-1.64879 1.76238,-3.18833 2.26299,-4.91408c1.13019,-3.89614 1.65347,-8.33367 2.05531,-12.35811c0.64167,-1.94514 1.99061,-3.87551 2.55222,-5.72688c0.38392,-1.26558 0.19683,-3.47953 0.43721,-5.38217c-0.78503,-0.27167 -1.54343,-0.61409 -2.25552,-1.06953z"/><path d=""/><path d=""/><path d=""/></g></g></svg>