<svg version="1.1" xmlns="http://www.w3.org/2000/svg" xmlns:xlink="http://www.w3.org/1999/xlink" width="128.21937" height="85.80005" viewBox="0,0,128.21937,85.80005"><g transform="translate(-175.89034,-137.09998)"><g data-paper-data="{&quot;isPaintingLayer&quot;:true}" fill-rule="nonzero" stroke-linecap="butt" stroke-linejoin="miter" stroke-miterlimit="10" stroke-dasharray="" stroke-dashoffset="0" style="mix-blend-mode: normal"><path d="M177.14035,221.65004v-83.30005h125.71937v83.30005zM235.94395,177.86933c0,0.14845 0.02588,0.29086 0.07337,0.42297l0.25239,0.75718c-0.02126,1.66873 0.11849,3.2561 0.97979,4.3549c-0.10522,0.18314 -0.16539,0.39545 -0.16539,0.62181c0,0.69036 0.55964,1.25 1.25,1.25c0.14845,0 0.29086,-0.02588 0.42297,-0.07337l0.81368,-0.27123c0.57536,0.1638 1.18335,0.20723 1.78574,0.14708c0.18233,0.10397 0.39336,0.16336 0.61827,0.16336c0.03423,0 0.06813,-0.00138 0.10167,-0.00407l1.27317,-0.0907l-0.00008,-0.00106c0.00201,0.00021 0.00403,0.00042 0.00604,0.00062c2.60047,0.26704 3.64987,-1.03656 3.91325,-2.7814c0.01263,-0.03477 0.02429,-0.06956 0.03494,-0.10432c0.24534,-0.80086 0.2051,-1.39998 -0.0144,-1.84101c-0.03408,-0.33817 -0.08431,-0.67777 -0.1465,-1.0126c-0.02959,-1.88798 -0.40081,-4.14114 -1.3428,-5.83489c-0.27655,-1.6984 -0.73439,-3.38186 -2.2543,-4.00301c-1.34803,-0.55091 -2.21779,0.40257 -3.3287,0.71325c-0.43417,0.12142 -0.82625,0.26812 -1.17865,0.43786c-0.13485,-0.26434 -0.39288,-0.50974 -0.87725,-0.59968c-1.22899,-0.22821 -1.4572,1.00078 -1.4572,1.00078c-0.05934,0.32421 -0.1109,0.65276 -0.15514,0.98472c-0.27365,0.59763 -0.24604,1.99776 -0.21234,2.9609c-0.00875,0.52255 -0.00382,1.0467 0.01312,1.56915c-0.00301,0.1064 -0.00646,0.21327 -0.01022,0.3205c-0.24337,0.22807 -0.39543,0.55241 -0.39543,0.91226z" fill="#777777" stroke="#000000" stroke-width="2.5"/><path d="" fill="#777777" stroke="#000000" stroke-width="2.5"/><path d="M259.40896,202.03785c-4.43451,-4.52339 -8.69602,-10.05534 -12.40848,-15.22261c-1.13562,0.39367 -2.51585,0.46108 -3.82393,0.46906c-0.78804,2.28414 -0.97132,4.52533 -1.70003,6.76309c-0.36491,1.12058 -0.99234,1.95922 -1.25101,3.10527c0.47258,-0.07083 0.94617,-0.14826 1.42114,-0.23267c1.89226,-0.33625 4.48198,-1.43019 6.37258,-0.42702c1.70335,0.90381 1.01138,2.20165 1.42977,3.53761c0.35401,1.13041 1.08702,2.18311 1.13781,3.36657c0.04905,1.14293 -0.61772,2.30315 -0.34621,3.41445c0.46407,1.89947 2.52484,5.2171 -0.30208,6.84515c-0.72387,0.41688 -3.09844,0.04624 -3.91353,-0.04408c-4.07099,0.00641 -8.08689,0.30668 -12.15778,0.49058c-2.24418,0.10138 -4.72656,0.90138 -6.37222,-1.34502c-0.61079,-0.83376 -0.20924,-2.05801 -0.24523,-3.09093c-0.02197,-0.63058 -0.00412,-1.25324 0.03601,-1.87159c-1.91795,-0.45899 -3.39154,-0.1907 -5.49192,-0.06526c-4.24946,0.2538 -8.54921,0.01219 -12.81451,0.2958l-1.30859,0.00064c0.0269,0.38515 0.04784,0.77052 0.0589,1.15609c0.02107,0.73493 0.11288,3.14937 -0.36428,3.90638c-1.74929,2.77528 -8.64642,1.86573 -11.47157,1.69967c-0.78823,-0.04633 -3.18369,0.15207 -3.73457,-0.3509c-1.32509,-1.20984 -1.2356,-3.76125 -1.352,-5.30504c-0.40974,-2.52421 -1.89897,-8.27944 0.56299,-9.98524c0.62243,-0.43126 3.95296,-0.46884 4.46826,-0.48267c0.18788,-0.00504 0.3756,-0.00845 0.56315,-0.01032c-0.16076,-3.37349 -0.22447,-6.7616 -0.38492,-10.15011c-0.30599,-0.07012 -0.60423,-0.17168 -0.88464,-0.30227c-1.11861,0.03356 -2.36722,0.17062 -3.0697,-0.20701c-0.69526,-0.37374 -1.17753,-1.1154 -1.49071,-1.83996c-0.29704,-0.68721 -0.15602,-1.48971 -0.26842,-2.22988c-0.34483,-2.27077 -2.01122,-7.15847 0.31995,-8.95183c0.52953,-0.40736 3.53805,-0.16094 4.13169,-0.12793c0.91363,0.0508 1.82601,0.06017 2.73678,0.03504c-0.32027,-7.18894 -0.69165,-14.38578 -0.71369,-21.54972c-0.04864,-0.01513 -0.09695,-0.02982 -0.14494,-0.04406c-1.1246,-0.33368 -2.5224,-0.17558 -3.38166,-0.97417c-1.16574,-1.08344 -1.53618,-3.38698 -2.23964,-4.77338c0,0 -0.56023,-1.11743 0.5572,-1.67766c1.11743,-0.56023 1.67766,0.5572 1.67766,0.5572c0.41923,0.8449 0.96172,3.31935 1.6922,4.04922c0.49556,0.49514 1.93019,0.28289 2.31954,0.39825c1.32949,0.3939 3.26435,1.41518 5.10628,2.02605c-0.13658,-0.26379 -0.26562,-0.54325 -0.38643,-0.8406c0,0 -0.46533,-1.16016 0.69483,-1.62549c1.16016,-0.46533 1.62549,0.69483 1.62549,0.69483c0.34669,0.87786 0.79363,1.57469 1.3099,2.16653c1.15,-0.27936 2.35709,-1.48691 3.04253,-2.86412c0.00709,-0.31323 0.14484,-0.5509 0.30456,-0.72218c0.45714,-1.32169 0.37087,-2.67762 -0.73231,-3.44721c-4.25646,-0.64985 -7.85907,-0.37387 -11.15157,2.40718c-0.08901,0.37018 -0.36311,0.94018 -1.2072,0.94018c-1.25,0 -1.25,-1.25 -1.25,-1.25l0.41042,-1.22015c4.20662,-3.80678 8.8343,-4.15866 14.23447,-3.15239c1.46618,1.24963 2.15078,3.03513 2.15717,4.84461c3.33897,-0.56183 7.13373,0.21555 10.48253,-0.05164c4.25053,-0.33914 8.44037,-2.00383 12.64888,-2.65333c-0.13911,-0.21467 -0.58845,-1.04344 0.26766,-1.69991c0.62423,-0.47865 1.15685,-0.26327 1.46596,-0.0378l0.08104,-0.0242c4.99922,0 10.74737,-4.26662 15.25105,-1.70645c0.73203,0.41423 1.6148,0.63477 2.19608,1.24269c0.6542,0.68418 1.0499,1.95691 1.16994,3.33593c0.06796,-0.01587 0.11018,-0.02082 0.11018,-0.02082c1.58824,-0.18438 3.2416,-0.43762 4.89691,-0.67298c0.00912,-0.05713 0.02188,-0.11648 0.03864,-0.17812c0.32806,-1.20618 1.53424,-0.87812 1.53424,-0.87812l0.45082,0.2874c1.56511,-0.38484 2.99296,-1.2099 4.53752,-1.67033c1.67378,-0.49895 3.78904,-0.23984 5.52964,-0.74538c1.67152,-0.48548 2.98253,-1.45704 4.67893,-1.89796c3.76385,-0.97829 7.13127,0.09268 9.78835,2.73606c1.00168,0.85309 3.94105,5.11657 2.80322,6.6461c-0.60631,0.81503 -1.90982,0.69564 -2.88132,0.99241c-2.21358,0.6762 -4.29008,0.81858 -6.5911,0.86314c-2.02829,0.03928 -4.04757,0.13234 -5.92371,-0.00792c0.25824,0.30845 0.31253,0.68746 0.31253,0.68746l0.10772,0.77414c0.06451,1.09248 -0.24113,2.17583 -0.39686,3.25907c-0.39307,2.73419 0.55827,6.01231 0.97524,8.69716c0,0 0.0578,0.37465 -0.09657,0.74315c2.56606,-0.34458 5.09308,-0.44004 7.17855,0.20962c4.78117,1.48942 3.72858,7.63848 3.64658,11.47129c-0.01876,0.877 0.15593,3.8977 -0.38809,4.8028c-0.35345,0.58804 -1.12217,0.7897 -1.68325,1.18455c-2.30871,0.45342 -4.65952,0.57568 -6.99421,0.75488c0.00963,0.04996 0.01628,0.10097 0.01977,0.15286l0.09744,1.26338l-0.18169,0.01401l0.15356,0.36239c-0.14275,0.23693 -0.30246,0.46969 -0.47738,0.69314c0.23921,0.43816 0.38053,0.94146 0.40904,1.40879c0.11269,1.84753 -1.01815,2.59814 -1.18578,4.22973c-0.16925,1.6473 0.16818,3.69043 0.20215,5.36599c0.06713,3.31055 1.32248,6.69157 1.57278,9.99959c0.05421,0.71646 0.25225,1.53819 0.2402,2.27957c3.09643,-0.24337 6.23102,-0.1223 8.97378,1.10315c0.09552,0.90702 0.47409,3.09695 0.02656,4.04843c-1.0492,2.23069 -3.11375,2.13378 -5.15927,2.3226c-3.69446,0.34102 -6.90858,0.50649 -10.63314,0.19816c-1.08339,-0.08969 -4.37549,0.64092 -5.21376,0.019c-0.07402,-0.05491 -0.80741,-3.05229 -0.84941,-3.48607c-0.33899,-3.50137 0.80549,-5.10046 3.65467,-5.38139c-2.6713,-2.89786 -6.08974,-5.00232 -8.8542,-7.82218zM261.19375,200.28728c3.11579,3.17506 7.01581,5.45387 9.74929,8.99498l0.13426,0.70139c0.75012,0.13097 1.49744,0.28208 2.25514,0.35143c0.43416,0.03974 0.88207,-0.08522 1.31122,-0.03199c-0.12841,-0.37174 0.1188,-0.83441 0.08484,-1.3886c-0.11837,-1.9318 -0.93651,-3.38207 -0.88662,-5.40932c0.11373,-4.62169 -1.29469,-8.49094 0.15164,-13.07002c0.09654,-0.30564 0.08322,-0.62168 0.02276,-0.94237c-0.04341,0.01735 -0.08708,0.03394 -0.131,0.04974c0,0 -1.19501,0.36668 -1.56169,-0.82832c-0.36668,-1.19501 0.82832,-1.56169 0.82832,-1.56169c0.17614,-0.03592 0.36502,-0.08907 0.53966,-0.16663c0.01725,-0.05163 0.03588,-0.10264 0.05578,-0.15309l-0.05153,-0.0152l0.38782,-1.31506c-1.30655,0.15319 -2.60125,0.36932 -3.87364,0.71811c-1.11811,0.3065 -3.73534,1.14362 -4.82114,0.19514c-0.63007,-0.5504 -0.46405,-2.7998 -0.4921,-3.72261c-0.05166,-1.69993 -0.06641,-3.42251 -0.09536,-5.14827c-2.26924,0.25048 -4.16158,-0.56657 -6.38741,-0.7999c-3.30839,-0.34681 -6.87452,0.50407 -10.06087,-0.36377c0.3759,1.44112 0.56302,2.82914 0.56078,4.62916c0.14587,1.07853 0.70273,2.1653 0.4771,3.23c-0.08571,0.40446 -0.22232,0.75538 -0.40143,1.05981c3.64148,5.08385 7.8401,10.53999 12.20417,14.98709zM210.86317,157.4287c3.12781,2.81508 6.51625,5.14092 9.87371,7.66324c1.14914,0.8633 1.9261,2.15965 3.07678,3.0209c1.14631,0.85798 2.67658,1.04094 3.93186,1.72973c0.74642,0.40956 1.47487,0.87372 2.19402,1.35826c0.36172,-0.47413 1.01671,-0.47413 1.01671,-0.47413l-0.10087,0.10178c0.87883,-0.37811 1.89733,-0.76495 2.9948,-1.10789c0.0453,-0.37623 0.2487,-0.87354 0.97893,-1.02608c0.64324,-0.13437 1.01897,0.14005 1.23068,0.43059c1.21517,-0.27345 2.4729,-0.46343 3.7059,-0.5116c0.14526,-3.62954 0.41133,-7.24421 0.75814,-10.86438c0.14679,-1.53226 0.76143,-3.0987 0.24719,-4.51952l0.0067,-0.13019c-1.00486,-0.05809 -2.21203,-0.08274 -3.01689,-0.71961c-1.1907,-0.94218 -1.57871,-2.51272 -2.08491,-3.98746c-4.50934,0.45721 -9.14931,2.5204 -13.57859,2.87197c-1.98492,0.15755 -4.51611,0.35567 -6.48328,0.298c-1.82753,-0.05357 -2.98964,-0.607 -4.67477,-0.094c-0.57442,1.53223 -1.65364,2.87963 -3.16301,3.67242c0.99238,0.69525 2.05974,1.36351 3.08691,2.28797zM231.81931,175.5177c-1.74308,-1.14468 -3.45102,-2.48164 -5.27648,-3.48344c-1.33697,-0.73372 -2.94233,-0.97643 -4.17138,-1.87935c-1.18289,-0.86901 -1.97384,-2.19916 -3.15125,-3.07558c-3.42791,-2.55162 -6.88266,-4.91662 -10.04515,-7.80664c-1.5209,-1.38986 -3.06597,-2.28581 -4.40589,-3.42683c-1.76556,-0.06572 -3.70452,-0.84374 -5.48633,-1.56772c0.04898,6.80068 0.39445,13.63103 0.70325,20.45258c1.42877,-0.12975 2.85281,-0.32928 4.27082,-0.57153c1.30977,0.111 2.77515,0.00369 3.71636,1.28457c0.62251,0.84717 0.75615,2.71193 0.55875,4.68186c1.28463,-0.40671 2.50747,-0.92483 3.91012,-1.05941c7.38697,-0.70875 14.81462,-1.66708 22.16733,-0.69412c0.00506,-0.57167 0.00034,-1.14366 -0.01537,-1.71493c-0.92902,-0.3394 -1.85232,-0.70507 -2.7748,-1.13947zM225.37791,188.88277c2.69197,-1.57566 5.04494,-3.41183 7.93893,-4.65199c0.32013,-0.11432 0.63848,-0.23204 0.9557,-0.35179c0.06364,-0.65916 0.1347,-1.24284 0.15573,-1.51054c0.03944,-0.50184 0.07334,-1.00587 0.10088,-1.51136c-7.23968,-1.03778 -14.5395,0.14722 -21.82165,0.69501c-1.6101,0.12112 -3.06454,0.82193 -4.63801,1.2513c-0.39208,1.57532 -0.96682,2.9309 -1.63073,3.52621c-1.5923,1.42779 -5.54104,1.14353 -7.47527,1.65039c-0.07787,0.0204 -0.15445,0.0459 -0.23015,0.07486c-0.06747,0.0942 -0.1439,0.16978 -0.22498,0.23024c0.16494,3.48074 0.225,6.96349 0.39619,10.42816c2.41295,0.12879 4.80716,0.44313 7.2056,0.73227c0.07243,-0.0011 0.14929,0.00309 0.23084,0.01331c0.07475,0.00937 0.14443,0.02268 0.20938,0.03942c0.27427,0.03261 0.54861,0.06473 0.82306,0.09603c6.0014,-3.60047 11.99612,-7.19474 18.00446,-10.71153zM264.25985,157.71766c1.61806,-1.21002 5.06422,-3.85729 5.27036,-6.08946c-1.3288,-0.65083 -2.46358,-1.66197 -3.31688,-3.22056c-0.15676,0.0031 -0.31838,0.00812 -0.48572,0.01565c-3.32069,0.14936 -6.99534,0.8703 -10.3465,1.26797c0,0 -0.21492,0.02521 -0.4764,-0.03476c-0.20946,1.35105 -0.70981,2.52371 -1.51867,3.02237c-2.14691,1.32358 -6.76541,0.97836 -10.04392,0.65824c0.24132,1.58834 -0.15752,2.80891 -0.32826,4.63486c-0.33557,3.58856 -0.60675,7.16729 -0.75102,10.76389c0.88701,0.13347 1.73286,0.3722 2.50799,0.74184c6.354,-4.1677 13.36778,-7.18244 19.489,-11.76004zM234.2301,186.558c-2.74789,1.17778 -4.99715,2.97464 -7.56724,4.46928c-5.73819,3.33706 -11.44203,6.76959 -17.15974,10.20383c-0.01675,0.10112 -0.04663,0.2088 -0.09228,0.32327c-0.43838,1.09901 -1.50209,0.74277 -1.6145,0.70157c-0.09583,0.05751 -0.19166,0.11503 -0.2875,0.17254c0,0 -0.0771,0.04626 -0.20236,0.09329c-0.01569,1.00268 0.0566,2.00693 0.1463,3.01268c0.06761,-0.00751 0.10893,-0.00751 0.10893,-0.00751l1.33466,0.00069c4.23955,-0.28189 8.51983,-0.03369 12.74256,-0.29237c2.19407,-0.13441 3.89366,-0.33168 5.88858,0.06631c0.16884,-1.51528 0.32897,-3.03414 0.21603,-4.61115c0,0 -0.06087,-0.84989 0.61959,-1.19654c0.10013,-0.13952 0.19121,-0.22026 0.19121,-0.22026l1.37131,-1.05098c0.51525,-0.14265 1.03051,-0.2853 1.54576,-0.42795c2.10804,-0.01292 4.19016,-0.11192 6.27923,-0.32879c0.20913,-1.59029 0.82544,-2.68061 1.36167,-4.23114c0.65031,-1.88042 0.88225,-3.93532 1.44182,-5.92439c-0.11195,0.00683 -0.22036,0.01523 -0.32481,0.02556c-1.83012,0.18091 -4.61051,1.58393 -5.93155,-0.61691c-0.0252,-0.04197 -0.04639,-0.09667 -0.06399,-0.16231c-0.00122,0.00044 -0.00244,0.00087 -0.00366,0.00131zM266.98765,158.73394c-5.96866,5.29905 -13.50321,8.18633 -20.17792,12.4062c0.38146,0.72046 0.31671,1.4899 0.64276,2.43181c0.39735,-0.04592 0.74162,0.1143 0.74162,0.1143c2.89982,1.45088 7.34657,0.24424 10.54698,0.58022c2.0038,0.21036 3.81807,1.11186 5.85281,0.78599l0.15006,-0.00217c-0.04327,-1.3692 -0.11103,-2.73449 -0.22886,-4.08615c-0.28576,-0.11987 -0.56314,-0.3716 -0.67239,-0.88284c-0.14509,-0.67895 0.1675,-1.06138 0.47413,-1.26723c0.03415,-0.37538 0.22155,-1.00841 1.08429,-1.11656c0.66709,-0.08362 1.02036,0.23653 1.20441,0.55031c1.84283,-0.23743 3.99227,-0.70406 6.19233,-1.08439c-0.25993,-0.30525 -0.31803,-0.6818 -0.31803,-0.6818c-0.44822,-2.92621 -1.36508,-6.34759 -0.99073,-9.34015c0.11773,-0.94116 0.47366,-1.87395 0.3895,-2.8187l-0.08885,-0.59825c0,0 -0.12058,-0.84184 0.53155,-1.23623c-0.15681,-0.02681 -0.31219,-0.0561 -0.46606,-0.08805c-0.57283,2.54438 -2.87494,4.56459 -4.8676,6.33369zM266.99137,170.71883c0.26082,3.29463 0.20502,6.66113 0.3062,9.94749c0.00508,0.16501 0.17224,2.73892 0.09819,3.23078c-0.03754,0.24935 -0.47378,0.51833 -0.2953,0.69646c0.17467,0.17432 0.42788,-0.25435 0.66291,-0.32958c1.43115,-0.4581 2.86698,-0.93298 4.3464,-1.19637c3.43593,-0.61171 7.10364,-0.31449 10.58571,-0.88337c0.98484,-0.38596 0.4702,-3.05251 0.48436,-3.71804c0.0474,-2.22705 0.93605,-6.85508 -0.9378,-8.47946c-0.98812,-0.85657 -2.69462,-0.67862 -3.90892,-0.68121c-3.70888,-0.00791 -7.6338,0.96313 -11.34174,1.41328zM240.06825,200.15008c-0.72074,0.36134 -1.20967,0.02474 -1.46598,-0.25978c-2.26254,0.26514 -4.52757,0.39942 -6.78501,0.38033c-0.40218,0.11876 -0.80436,0.23753 -1.20654,0.35629l-0.34053,0.44271c0.11938,2.53641 -0.189,4.83747 -0.42793,7.38618c-0.05034,0.53698 -0.31725,2.78721 -0.14296,3.12299c0.38934,0.75011 3.40697,0.0563 4.04718,0.02737c4.15724,-0.18788 8.25754,-0.49557 12.41639,-0.48969c0.86054,0.09535 1.72531,0.51937 2.57399,0.34802c0.45217,-0.0913 0.07146,-0.92301 0.04083,-1.38329c-0.14539,-2.18491 -1.03262,-2.48691 -0.88255,-4.97329c0.13479,-2.23338 -0.18411,-2.26408 -0.83131,-4.32838c-0.21686,-0.69172 0.35809,-1.95106 -0.33954,-2.14807c-1.35896,-0.38378 -3.32176,0.51999 -4.63658,0.74933c-0.48015,0.08375 -0.96065,0.1621 -1.4414,0.23484c-0.10189,0.19658 -0.28049,0.38527 -0.57805,0.53445zM236.61393,171.52911c0.00292,0.02345 0.00581,0.04689 0.00866,0.07033c-0.02655,0.16805 -0.05112,0.33712 -0.07377,0.50709c-0.27365,0.59763 -0.24604,1.99776 -0.21234,2.9609c-0.00875,0.52255 -0.00382,1.0467 0.01312,1.56915c-0.00301,0.1064 -0.00646,0.21327 -0.01022,0.3205c-0.24337,0.22807 -0.39543,0.55241 -0.39543,0.91226c0,0.14845 0.02588,0.29086 0.07337,0.42297l0.25239,0.75718c-0.01323,1.03838 0.03589,2.04526 0.2824,2.92252c-0.0174,0.34714 -0.0333,0.6952 -0.0468,1.04443c0.13193,-0.05089 0.26395,-0.10157 0.39609,-0.15195c0.10034,0.19053 0.21569,0.37099 0.34809,0.5399c-0.10522,0.18314 -0.16539,0.39545 -0.16539,0.62181c0,0.51399 0.31023,0.95553 0.75365,1.14758c-0.42838,0.16367 -0.85517,0.33133 -1.28217,0.49901c0.23416,0.13281 0.8624,-0.22755 1.39419,-0.45678c0.12108,0.03908 0.25024,0.06019 0.38432,0.06019c0.14845,0 0.29086,-0.02588 0.42297,-0.07337l0.81368,-0.27123c0.57536,0.1638 1.18335,0.20723 1.78574,0.14708c0.18233,0.10397 0.39336,0.16336 0.61827,0.16336c0.03423,0 0.06813,-0.00138 0.10167,-0.00407l1.27317,-0.0907l-0.00008,-0.00106c0.00201,0.00021 0.00403,0.00042 0.00604,0.00062c1.34386,0.138 2.27349,-0.14345 2.89448,-0.68848c0.41973,-0.15003 0.67846,-0.35397 0.6752,-0.63024c-0.00101,-0.08572 -0.00535,-0.17107 -0.01247,-0.25613c0.17559,-0.36298 0.2903,-0.77102 0.35604,-1.20655c0.01263,-0.03477 0.02429,-0.06956 0.03494,-0.10432c0.24534,-0.80086 0.2051,-1.39998 -0.0144,-1.84101c-0.03408,-0.33817 -0.08431,-0.67777 -0.1465,-1.0126c-0.02959,-1.88798 -0.40081,-4.14114 -1.3428,-5.83489c-0.27655,-1.6984 -0.73439,-3.38186 -2.2543,-4.00301c-1.34803,-0.55091 -2.21779,0.40257 -3.3287,0.71325c-0.43417,0.12142 -0.82625,0.26812 -1.17865,0.43786c-0.13485,-0.26434 -0.39288,-0.50974 -0.87725,-0.59968c-1.22899,-0.22821 -1.4572,1.00078 -1.4572,1.00078c-0.02443,0.13347 -0.04754,0.26767 -0.06936,0.40255c-0.00689,0.00158 -0.01378,0.00317 -0.02067,0.00476zM199.07716,201.59013c0,0 0.0893,1.24681 -1.15751,1.33611c-1.24681,0.0893 -1.33611,-1.15751 -1.33611,-1.15751c-0.01539,-0.21663 -0.03014,-0.43333 -0.04428,-0.65011c-1.34376,-0.1246 -2.78117,-0.22805 -3.84775,0.15153c-0.44754,0.15927 -0.08492,0.95586 -0.01079,1.42508c0.32378,2.04932 0.27933,4.09077 0.60976,6.14911c0.08134,1.20507 -0.43728,2.71527 0.38136,3.60332c0.5343,0.5796 1.57287,-0.2009 2.35981,-0.15483c2.11105,0.12359 3.90897,0.08469 6.01627,-0.09531c0.06325,-0.0054 2.95804,0.1394 3.15439,-0.36167c0.65031,-1.65951 -0.31978,-4.23789 -0.36477,-5.91359c-0.03612,-1.3454 -0.07514,-2.74105 0.0002,-4.10877c-1.92272,-0.22465 -3.83572,-0.4328 -5.7819,-0.52431c0.00696,0.10034 0.01406,0.20066 0.02131,0.30096zM198.86779,177.73485c-0.45087,0.01966 -0.74605,-0.13056 -0.9392,-0.33055c-0.5623,0.02462 -1.12399,0.03748 -1.68392,0.03759c-0.76553,0.00014 -3.71546,-0.68371 -4.18224,-0.42392c-0.49321,0.2745 0.01878,1.1288 0.03854,1.69291c0.0194,0.55399 0.07293,1.07882 0.1441,1.59203c0.25665,0.10202 0.42416,0.25236 0.42416,0.25236c1.42169,1.32703 1.72936,4.10617 3.22385,5.19636l-0.00079,-0.24694c0,0 0,-1.25 1.25,-1.25c1.25,0 1.25,1.25 1.25,1.25l-0.00018,0.04462c1.29583,-0.27182 5.42017,-0.23797 6.36068,-1.06561c0.23297,-0.20502 0.47596,-0.79928 0.69305,-1.57224c-0.25287,-0.16331 -0.47421,-0.44971 -0.50753,-0.95092c-0.06315,-0.94988 0.64522,-1.22444 0.98657,-1.30137c0.25803,-1.63245 0.33917,-3.25848 0.04569,-3.71902c-0.17233,-0.27043 -1.43171,-0.27408 -1.59164,-0.28392c-1.50317,0.27341 -3.03434,0.48809 -4.57036,0.62345c-0.17187,0.23588 -0.45957,0.4342 -0.94078,0.45519zM270.71463,149.25551c0.6741,0 0.98467,0.36353 1.12776,0.6985c2.33675,0.67754 5.24903,0.28893 7.98534,0.23696c2.17001,-0.04121 5.34369,-0.06708 7.3503,-0.59733c0.22866,-0.06042 -0.48713,-0.17124 -0.59967,-0.37926c-0.80293,-1.48422 -0.28642,-2.07777 -1.70851,-3.16963c-3.97708,-3.97642 -7.35809,-1.66898 -12.09498,-0.2932c-0.14177,0.04118 -0.28695,0.07736 -0.43495,0.10938c0.15267,0.14976 0.27819,0.36633 0.34033,0.67787c0.24449,1.22586 -0.98136,1.47035 -0.98136,1.47035l-0.41475,0.08019c-0.7723,0.2039 -1.42346,0.29168 -2.04256,0.32503c0.3318,0.35432 0.69705,0.64651 1.09032,0.88673c0.11238,-0.02913 0.23933,-0.04558 0.38273,-0.04558zM241.43886,148.76263c-0.99905,0.75127 -1.75032,-0.24778 -1.75032,-0.24778l0.44296,0.07901c-0.67993,-0.15246 -1.36575,-0.23968 -2.05617,-0.27404c0.31455,0.8568 0.67793,1.62716 1.214,2.08167c0.53409,0.45284 1.38982,0.17592 2.0877,0.23328c3.07206,0.25247 7.7991,0.88805 10.79303,-0.14023c0.60773,-0.20873 0.26272,-1.6196 0.24966,-1.71666c-0.30029,-2.23125 0.12121,-2.94283 -2.01589,-3.93959c-2.22496,-1.33278 -3.39238,-0.21919 -5.7941,0.55885c-1.27184,0.41201 -2.46573,0.74875 -3.66551,0.99456l0.74242,0.62061c0,0 0.75127,0.99905 -0.24778,1.75032zM270.23603,212.39498c-0.34277,0.05713 -0.60613,0.00309 -0.80774,-0.10473c-0.88208,-0.06544 -2.43604,-0.1238 -2.52879,0.37676c-0.14081,0.75991 0.12016,1.54112 0.19499,2.31034c0.04376,0.44981 0.30465,0.87301 0.28889,1.32468c-0.00694,0.19903 -0.55091,0.47432 -0.35194,0.48281c0.88078,0.03759 2.67382,-0.66051 3.82952,-0.56917c3.64603,0.28817 9.3217,1.18016 12.8214,-0.5082c0.80629,-0.38898 0.44438,-1.42214 0.70508,-2.13734c-3.30168,-0.53113 -7.38487,-0.04988 -10.69254,0.42407l-0.68808,0.09803c0,0 -1.23751,0.1763 -1.4138,-1.06121c-0.02098,-0.14727 -0.02194,-0.27951 -0.00734,-0.39821c-0.49761,-0.09435 -0.9457,-0.18526 -1.30033,-0.24673c-0.01618,0.00315 -0.03261,0.00613 -0.04931,0.00891zM233.0421,173.33715c0.46157,0.21576 0.9242,0.4117 1.38806,0.5948c-0.05476,-0.57638 -0.12286,-1.15028 -0.20558,-1.72059c-0.65299,0.21988 -1.27089,0.45384 -1.83545,0.68465c0.21752,0.14915 0.43509,0.29653 0.65297,0.44115z" fill="#000000" stroke="none" stroke-width="0.5"/><path d="M236.6024,171.48609c0.02182,-0.13488 0.04642,-0.27029 0.07085,-0.40375c0,0 0.23738,-1.23466 1.46637,-1.00645c0.48437,0.08994 0.74574,0.33389 0.88059,0.59824c0.3524,-0.16974 0.75263,-0.31885 1.1868,-0.44027c1.1109,-0.31068 2.00193,-1.2639 3.34996,-0.71299c1.51992,0.62115 2.00239,2.31848 2.27893,4.01688c0.94199,1.69376 1.32468,3.99793 1.35427,5.88591c0.06218,0.33482 0.10957,0.68113 0.14365,1.01929c0.2195,0.44103 0.25352,1.04949 0.00818,1.85035c-0.01065,0.03476 -0.02276,0.07008 -0.03539,0.10485c-0.06574,0.43553 -0.18556,0.84867 -0.36115,1.21165c0.00712,0.08506 0.01072,0.17104 0.01174,0.25675c0.00326,0.27628 -0.25995,0.48354 -0.67968,0.63357c-0.62099,0.54503 -1.5675,0.83357 -2.91136,0.69557c-0.00201,-0.00021 -0.00406,-0.00041 -0.00607,-0.00062l0.00007,0.00106l-1.28134,0.09177c-0.03353,0.0027 -0.0681,0.0041 -0.10233,0.0041c-0.22491,0 -0.44001,-0.05942 -0.62234,-0.16339c-0.60239,0.06015 -1.22195,0.01481 -1.79731,-0.149l-0.81776,0.26985c-0.1321,0.04749 -0.27653,0.07254 -0.42499,0.07254c-0.13409,0 -0.26524,-0.02204 -0.38632,-0.06112c-0.53179,0.22922 -1.1648,0.58692 -1.39896,0.45411c0.42699,-0.16768 0.85793,-0.33297 1.28632,-0.49664c-0.44343,-0.19205 -0.76008,-0.63748 -0.76008,-1.15147c0,-0.22637 0.05893,-0.43959 0.16415,-0.62273c-0.1324,-0.16891 -0.251,-0.35207 -0.35134,-0.54259c-0.13214,0.05038 -0.26508,0.10019 -0.39702,0.15108c0.01349,-0.34923 0.02591,-0.70096 0.04331,-1.0481c-0.24652,-0.87726 -0.30588,-1.90341 -0.29265,-2.94179l-0.25377,-0.764c-0.04749,-0.1321 -0.07372,-0.27821 -0.07372,-0.42667c0,-0.35985 0.15229,-0.69244 0.39566,-0.92051c0.00375,-0.10723 0.00762,-0.21702 0.01063,-0.32342c-0.01693,-0.52245 -0.01796,-1.05917 -0.00921,-1.58172c-0.0337,-0.96314 -0.05031,-2.37858 0.22334,-2.97621c0.02265,-0.16996 0.04914,-0.34075 0.07569,-0.50881c-0.00285,-0.02344 -0.00555,-0.04704 -0.00847,-0.07049c0.00689,-0.00159 0.01387,-0.00325 0.02076,-0.00484z" data-paper-data="{&quot;noHover&quot;:false,&quot;origItem&quot;:[&quot;Path&quot;,{&quot;applyMatrix&quot;:true,&quot;segments&quot;:[[[236.61393,171.52911],[0.00689,-0.00159],[0.00292,0.02345]],[[236.62259,171.59943],[-0.00285,-0.02344],[-0.02655,0.16805]],[[236.54882,172.10652],[0.02265,-0.16996],[-0.27365,0.59763]],[[236.33648,175.06742],[-0.0337,-0.96314],[-0.00875,0.52255]],[[236.34959,176.63657],[-0.01693,-0.52245],[-0.00301,0.1064]],[[236.33938,176.95707],[0.00375,-0.10723],[-0.24337,0.22807]],[[235.94395,177.86933],[0,-0.35985],[0,0.14845]],[[236.01732,178.2923],[-0.04749,-0.1321],[0,0]],[[236.26971,179.04948],[0,0],[-0.01323,1.03838]],[[236.55212,181.972],[-0.24652,-0.87726],[-0.0174,0.34714]],[[236.50532,183.01643],[0.01349,-0.34923],[0.13193,-0.05089]],[[236.90141,182.86448],[-0.13214,0.05038],[0.10034,0.19053]],[[237.2495,183.40438],[-0.1324,-0.16891],[-0.10522,0.18314]],[[237.08411,184.02619],[0,-0.22637],[0,0.51399]],[[237.83776,185.17377],[-0.44343,-0.19205],[-0.42838,0.16367]],[[236.55559,185.67278],[0.42699,-0.16768],[0.23416,0.13281]],[[237.94979,185.216],[-0.53179,0.22922],[0.12108,0.03908]],[[238.33411,185.27619],[-0.13409,0],[0.14845,0]],[[238.75707,185.20282],[-0.1321,0.04749],[0,0]],[[239.57075,184.9316],[0,0],[0.57536,0.1638]],[[241.35649,185.07867],[-0.60239,0.06015],[0.18233,0.10397]],[[241.97476,185.24204],[-0.22491,0],[0.03423,0]],[[242.07643,185.23796],[-0.03353,0.0027],[0,0]],[243.3496,185.14726],[[243.34952,185.1462],[0,0],[0.00201,0.00021]],[[243.35556,185.14682],[-0.00201,-0.00021],[1.34386,0.138]],[[246.25005,184.45834],[-0.62099,0.54503],[0.41973,-0.15003]],[[246.92524,183.8281],[0.00326,0.27628],[-0.00101,-0.08572]],[[246.91277,183.57197],[0.00712,0.08506],[0.17559,-0.36298]],[[247.26881,182.36542],[-0.06574,0.43553],[0.01263,-0.03477]],[[247.30375,182.2611],[-0.01065,0.03476],[0.24534,-0.80086]],[[247.28935,180.42009],[0.2195,0.44103],[-0.03408,-0.33817]],[[247.14286,179.4075],[0.06218,0.33482],[-0.02959,-1.88798]],[[245.80006,173.5726],[0.94199,1.69376],[-0.27655,-1.6984]],[[243.54575,169.56959],[1.51992,0.62115],[-1.34803,-0.55091]],[[240.21706,170.28284],[1.1109,-0.31068],[-0.43417,0.12142]],[[239.03841,170.7207],[0.3524,-0.16974],[-0.13485,-0.26434]],[[238.16116,170.12101],[0.48437,0.08994],[-1.22899,-0.22821]],[[236.70396,171.1218],[0,0],[-0.02443,0.13347]],[[236.6346,171.52435],[0.02182,-0.13488],[-0.00689,0.00158]]],&quot;closed&quot;:true}]}" fill="#777777" stroke="none" stroke-width="0.5"/><path d="M207.72812,155.12722c1.50937,-0.79279 2.59424,-2.15303 3.16865,-3.68526c1.68513,-0.51301 2.8533,0.03252 4.68084,0.0861c1.96717,0.05767 4.5219,-0.15451 6.50682,-0.31206c4.42927,-0.35157 9.11733,-2.40197 13.62668,-2.85918c0.50621,1.47475 0.90275,3.05657 2.09345,3.99875c0.80487,0.63687 2.01459,0.66686 3.01945,0.72494l-0.00657,0.1305c0.51425,1.42083 -0.09721,2.99957 -0.244,4.53182c-0.34681,3.62016 -0.6191,7.26598 -0.76436,10.89552c-1.233,0.04817 -2.49504,0.24449 -3.71021,0.51794c-0.21171,-0.29054 -0.58844,-0.56375 -1.23168,-0.42938c-0.73023,0.15254 -0.93717,0.6536 -0.98248,1.02984c-1.09746,0.34293 -2.12517,0.73672 -3.004,1.11483l0.10134,-0.10206c0,0 -0.65885,0.0021 -1.02057,0.47623c-0.71914,-0.48453 -1.45362,-0.94622 -2.20004,-1.35579c-1.25529,-0.68878 -2.80482,-0.86926 -3.95113,-1.72724c-1.15068,-0.86125 -1.95259,-2.16627 -3.10173,-3.02957c-3.35746,-2.52232 -6.76684,-4.898 -9.89465,-7.71308c-1.02717,-0.92447 -2.09342,-1.5976 -3.0858,-2.29285z" data-paper-data="{&quot;noHover&quot;:false,&quot;origItem&quot;:[&quot;Path&quot;,{&quot;applyMatrix&quot;:true,&quot;segments&quot;:[[[210.86317,157.4287],[-1.02717,-0.92447],[3.12781,2.81508]],[[220.73688,165.09194],[-3.35746,-2.52232],[1.14914,0.8633]],[[223.81366,168.11284],[-1.15068,-0.86125],[1.14631,0.85798]],[[227.74553,169.84256],[-1.25529,-0.68878],[0.74642,0.40956]],[[229.93954,171.20082],[-0.71914,-0.48453],[0.36172,-0.47413]],[230.95625,170.72669],[[230.85538,170.82847],[0,0],[0.87883,-0.37811]],[[233.85017,169.72059],[-1.09746,0.34293],[0.0453,-0.37623]],[[234.8291,168.69451],[-0.73023,0.15254],[0.64324,-0.13437]],[[236.05978,169.1251],[-0.21171,-0.29054],[1.21517,-0.27345]],[[239.76568,168.61349],[-1.233,0.04817],[0.14526,-3.62954]],[[240.52383,157.74912],[-0.34681,3.62016],[0.14679,-1.53226]],[[240.77101,153.2296],[0.51425,1.42083],[0,0]],[[240.77771,153.0994],[0,0],[-1.00486,-0.05809]],[[237.76082,152.37979],[0.80487,0.63687],[-1.1907,-0.94218]],[[235.67591,148.39233],[0.50621,1.47475],[-4.50934,0.45721]],[[222.09732,151.2643],[4.42927,-0.35157],[-1.98492,0.15755]],[[215.61404,151.5623],[1.96717,0.05767],[-1.82753,-0.05357]],[[210.93927,151.4683],[1.68513,-0.51301],[-0.57442,1.53223]],[[207.77626,155.14073],[1.50937,-0.79279],[0.99238,0.69525]]],&quot;closed&quot;:true}]}" fill="#777777" stroke="none" stroke-width="0.5"/><path d="" fill="#000000" stroke="none" stroke-width="0.5"/><path d="" fill="#000000" stroke="none" stroke-width="0.5"/><path d="M240.52838,207.13869c-0.55781,1.11864 -1.67645,0.56082 -1.67645,0.56082l-1.11651,-0.79126c-0.46393,-0.81007 -0.94126,-1.61297 -1.44364,-2.39978c0,0 -0.67239,-1.05375 0.38136,-1.72614c1.05375,-0.67239 1.72614,0.38136 1.72614,0.38136c0.52328,0.82055 1.02124,1.65735 1.50527,2.50165l0.063,-0.20309c0,0 1.11864,0.55781 0.56082,1.67645z" fill="#000000" stroke="none" stroke-width="0.5"/></g></g></svg>