<svg version="1.1" xmlns="http://www.w3.org/2000/svg" xmlns:xlink="http://www.w3.org/1999/xlink" width="128.56111" height="85.80005" viewBox="0,0,128.56111,85.80005"><g transform="translate(-175.89034,-137.09998)"><g data-paper-data="{&quot;isPaintingLayer&quot;:true}" fill-rule="nonzero" stroke-linecap="butt" stroke-linejoin="miter" stroke-miterlimit="10" stroke-dasharray="" stroke-dashoffset="0" style="mix-blend-mode: normal"><path d="M177.14035,221.65003v-83.30005h125.71937v83.30005z" fill="#777777" stroke="#000000" stroke-width="2.5"/><path d="M253.46614,193.91079c-0.82357,0 -1.10452,-0.54261 -1.20037,-0.91283c-2.75719,0.32392 -5.51911,0.49649 -8.28976,0.56398c-0.21065,0.31667 -0.66576,0.76114 -1.46077,0.46744c-0.2944,-0.10876 -0.48757,-0.26413 -0.6118,-0.43585c-1.85815,0.01205 -3.72066,-0.01784 -5.58872,-0.07579c-1.25545,-0.03894 -6.67798,-0.08099 -6.66248,0.89929l0.09662,-0.18779c0,0 0,1.25 -1.25,1.25c-0.07772,0 -0.1506,-0.00483 -0.21895,-0.01389c0.09095,1.52636 0.28791,3.03806 0.50779,4.5499c0.08639,0.14833 0.14833,0.33535 0.1697,0.57104c0.01495,0.16488 0.00608,0.30991 -0.02056,0.43744c0.18106,1.21204 0.36498,2.42628 0.50901,3.65033c0.10849,0.92198 -0.58296,2.00627 -0.07604,2.78399c0.35167,0.53954 4.86205,-0.72104 5.21453,-0.75016c5.43559,-0.44903 10.88832,0.89278 16.28956,-0.27676c2.26613,-0.37194 5.46719,-0.93924 7.77488,-0.59856c1.20009,0.17717 3.37684,1.54053 4.68855,0.6267c1.11011,-0.77337 0.25603,-4.70578 0.09676,-5.78237c-0.38929,-2.63142 -0.30574,-6.29717 -2.27325,-8.47865c-0.67671,-0.75031 -2.71188,-0.17447 -3.34673,-0.0714c-1.03233,0.20552 -2.06495,0.38539 -3.09808,0.54204c-0.00265,0.10713 -0.05887,1.24191 -1.24987,1.24191zM266.34296,198.86097l1.00325,0.0125c1.52148,-0.21146 3.03217,-0.34634 4.546,-0.48913c-0.26278,-3.8933 -0.23057,-8.01406 4.79911,-8.44196c0.55244,-0.047 1.12127,-0.04767 1.69663,-0.02283c-0.00885,-0.10748 -0.01648,-0.21484 -0.0228,-0.3221c0,0 -0.0736,-1.24783 1.17424,-1.32143c1.24783,-0.0736 1.32143,1.17424 1.32143,1.17424c0.01331,0.22569 0.03029,0.45092 0.05052,0.67573c0.4515,0.04331 0.89815,0.08366 1.33514,0.11088l0.1188,-0.00242c0,0 1.25,0 1.25,1.25c0,1.25 -1.25,1.25 -1.25,1.25l-0.27435,-0.00242c-0.2765,-0.01725 -0.55309,-0.03268 -0.82975,-0.04693c0.31295,1.79369 0.73076,3.5703 1.02791,5.35203c2.92682,0.58864 6.05515,1.28299 9.07335,1.14138c1.78605,-5.29178 2.66226,-11.49553 2.42634,-17.02684c-0.14682,-3.44215 -1.27319,-8.38009 0.44515,-11.57763c-0.90522,0.11517 -1.77316,0.30216 -2.57146,0.60808c-1.09076,0.418 -1.95323,1.68312 -3.0807,1.90523c-0.84735,0.16693 -1.98604,0.24222 -2.55925,-0.40376c-1.08296,-1.22044 -0.56024,-4.48688 -0.37151,-5.8935c0.2551,-1.9013 0.8162,-3.84413 1.3517,-5.79702c-3.66651,0.324 -7.28165,0.87986 -11.03925,0.7021c-3.19442,-0.15112 -6.28507,-0.96263 -9.36788,-1.31817c-1.00355,-0.11574 -2.17308,0.27245 -3.27511,0.57927c0.63098,2.59202 1.24127,5.56091 0.11209,7.42767c-0.51264,0.84749 -3.4582,1.25149 -4.22666,1.40424c-1.27848,0.03284 -2.55267,0.09456 -3.82464,0.17228c-0.37886,6.72617 -0.2615,13.44012 -0.55871,20.16264c0.85096,-0.13541 1.70174,-0.2874 2.55251,-0.45741c1.20356,-0.18462 2.45295,-0.53848 3.67908,-0.1754c3.70195,1.09621 4.25269,6.01704 4.68194,9.51803c0.30634,-0.14736 0.60687,-0.14736 0.60687,-0.14736zM245.27739,170.6761c-0.59457,0.03368 -1.23239,0.12028 -1.88285,0.19584c0.13945,0.39481 0.25179,0.79549 0.29816,1.21072c0.11897,1.06535 -0.76331,2.34039 -0.14046,3.21286c0.28272,0.39603 0.94128,0.44146 1.17249,0.86961c0.28224,0.52265 0.442,4.14544 0.45468,4.36796c0.19064,3.34714 0.29009,7.13192 -0.42721,10.5083c2.52355,-0.08156 5.03963,-0.25723 7.55268,-0.56466c0.32443,-6.78332 0.1967,-13.55861 0.56318,-20.34537c-2.52808,0.1856 -5.05284,0.40101 -7.59066,0.54475zM276.75403,197.79957c0,0 1.23308,-0.20495 1.43804,1.02813c0.20495,1.23308 -1.02813,1.43804 -1.02813,1.43804c-0.87719,0.14579 -1.75172,0.25852 -2.62422,0.35498c0.01536,0.27535 0.02407,0.54535 0.02291,0.80756c0.28214,1.12549 0.07536,2.3247 0.24799,3.4721c0.06409,0.42601 3.05489,0.35035 3.12297,0.36576c0.59958,0.13569 1.18494,1.12561 1.67988,0.761c0.12515,-0.09219 0.37948,-3.37274 0.44214,-3.69676c0.61547,-3.1829 -0.5578,-6.49409 -1.25238,-9.75754c-0.24471,-0.01141 -0.48938,-0.02339 -0.734,-0.03638c-4.02599,-0.21382 -4.03793,2.59627 -3.75433,5.60035c0.80936,-0.0932 1.62171,-0.20137 2.43914,-0.33724zM267.69883,201.34848l-1.35587,0.0125c0,0 -0.11895,0 -0.28346,-0.03669c0.3442,2.35891 0.65204,5.54632 -1.23253,7.14272c-1.93161,1.63624 -4.57022,0.16724 -6.51722,-0.15752c-2.00638,-0.33466 -4.98364,0.2429 -6.96956,0.57778c-5.50888,1.16315 -11.01191,-0.14251 -16.54146,0.31142c-2.12606,0.17453 -5.51484,1.90375 -7.36745,-0.16198c-0.36704,-0.40927 -0.37089,-3.24707 -0.46919,-4.07804c-0.11571,-0.9782 -0.25342,-1.94852 -0.39443,-2.91576l-0.01936,0.00152c-1.15438,-0.0773 -2.29143,-0.09204 -3.44224,-0.09471c-0.04502,0.40089 -0.09415,0.76991 -0.14316,1.09732c0.00482,2.50537 0.30285,5.53769 -2.41605,6.83546c-1.08964,0.5201 -2.38017,0.4084 -3.56606,0.63535c-0.76679,0.14675 -1.65831,0.92146 -2.29465,0.46915c-1.36989,-0.97371 -0.4886,-3.82918 -0.60394,-5.17577c-0.08397,-0.98037 -0.25894,-1.93806 -0.48162,-2.88291l-0.41545,-0.00131c-3.34618,-0.20931 -7.13158,-0.85661 -10.4086,-0.07188c-2.54038,1.24586 -6.42667,1.57237 -9.29127,2.07592c-0.93289,0.16399 -2.04511,0.80242 -2.8287,0.27028c-0.9513,-0.64603 -0.19799,-5.74881 -0.16672,-6.80268c0.15002,-5.05582 0.48285,-10.00511 1.18643,-15.01799c0.24645,-1.75591 0.00823,-2.84059 0.7685,-3.88888l-0.34651,-0.08339l0.09548,-0.39678c-0.10074,-0.40731 0.03645,-0.7904 0.03645,-0.7904l0.36363,-1.0154c-0.51429,0.07897 -1.02554,0.1577 -1.5324,0.23111c-2.2648,0.07926 -6.16945,1.13228 -7.59457,-1.42358c-0.8535,-1.53069 -0.26674,-4.24631 -0.04679,-5.87184c0.62938,-4.65145 0.45036,-9.39154 1.36839,-13.99001c0.23458,-1.17503 0.60227,-2.79225 0.68459,-3.99909c0.06054,-0.88752 -0.54914,-2.00084 0.03876,-2.66845c2.02237,-2.29657 8.89854,0.03212 11.5081,0.16876c1.55736,0.10382 4.30554,-0.19394 5.64797,0.59782c2.72405,1.60662 3.00582,3.65602 2.34673,5.76279c0.11877,1.94765 0.25443,3.88294 0.36879,5.81873c9.8002,0.56785 19.77504,-0.5096 29.54407,0.5698c0,0 0.04826,0.00535 0.12469,0.02344c-0.66042,-2.12912 -1.01364,-4.25211 -1.02089,-6.91745c0,0 0,-0.99737 0.89089,-1.21031c-0.17956,-1.04725 0.89197,-1.36155 0.89197,-1.36155l1.64672,-0.48275c1.34683,-0.45507 2.67416,-0.9671 3.99655,-1.48895c4.43369,-0.56528 9.0407,-0.5812 13.43493,-1.48564c2.55253,-0.52537 3.98646,-1.18556 6.38702,0.68697c2.73496,2.13338 0.98623,4.76435 1.2921,7.35442c0.03772,0.31938 0.10088,0.67255 0.18047,1.05177c1.36394,-0.31652 2.7501,-0.79246 4.12475,-0.67897c3.01006,0.24852 6.05882,1.15528 9.17533,1.30389c3.94852,0.18828 7.74192,-0.44283 11.60762,-0.7551c0.48594,-2.10968 0.77423,-4.21515 0.44858,-6.27691c0,0 -0.18592,-1.2361 1.05017,-1.42202c1.2361,-0.18592 1.42202,1.05017 1.42202,1.05017c0.12051,0.83596 0.15567,1.66651 0.12643,2.49314c2.35608,-1.18567 6.00249,-2.63263 8.1891,-2.175c5.13418,1.07453 5.31236,7.57037 5.45888,11.4832c0.06076,1.62268 0.31981,2.87743 -0.38489,4.43938c-0.36323,0.80509 -1.00595,1.45207 -1.50892,2.17811c-1.5629,0.19588 -3.33074,0.15457 -5.09492,0.17953c-0.11624,0.41984 -0.44906,0.69141 -0.44906,0.69141c-1.64365,1.03063 -1.14092,6.41576 -0.92363,8.40608c0.68381,6.26338 -0.00626,13.16811 -1.87848,19.29244c0.19009,-0.04862 0.3793,-0.102 0.56755,-0.16042c0,0 1.19612,-0.36304 1.55916,0.83308c0.36304,1.19612 -0.83308,1.55916 -0.83308,1.55916c-0.61968,0.18449 -1.24477,0.32451 -1.87386,0.42646c-0.12324,0.30016 -0.38686,0.59667 -0.93713,0.68864c-0.64787,0.10828 -1.0122,-0.18079 -1.21207,-0.4795c-2.92009,0.11003 -5.89041,-0.42915 -8.77392,-0.99895c0.12259,1.745 0.02652,3.50512 -0.49641,5.30089c-0.2274,0.78089 -0.44574,1.71932 -1.1265,2.16437c-1.25543,0.82073 -7.70774,-0.56959 -8.36885,-2.01018c-0.61218,-1.33398 -0.18148,-2.94651 -0.53838,-4.3702c-0.00112,-0.28063 -0.00989,-0.57086 -0.02365,-0.86847c-1.45594,0.13526 -2.90792,0.26972 -4.35897,0.48242zM290.3892,157.08707c-0.07308,0.40361 -0.156,0.80669 -0.24628,1.2094c0.38785,-0.01238 0.77688,-0.01923 1.16733,-0.01943l0.02838,-0.1071c0,0 1.16104,-0.46313 1.62417,0.6979c0.46313,1.16104 -0.6979,1.62417 -0.6979,1.62417l-0.95465,0.28502c-0.60547,-0.00029 -1.20761,0.01535 -1.80725,0.04283c-0.90877,3.31865 -1.96188,6.63789 -1.75167,10.05783c0.04168,0.67818 1.04974,-0.86787 1.62047,-1.23656c0.44771,-0.28922 0.89204,-0.60002 1.38965,-0.79101c2.72638,-1.04641 7.54554,-1.17843 10.4335,-0.79412c1.5791,-3.31316 1.07887,-8.3929 -0.73085,-11.50815c-0.42635,-0.73393 -1.07932,-1.83484 -2.03036,-1.97993c-2.04805,-0.31244 -5.711,1.4131 -7.49489,2.42222zM260.58223,160.18196c-0.0049,-0.03687 -0.00856,-0.07278 -0.01105,-0.10777c-0.22265,-0.82799 -0.41197,-1.6023 -0.48296,-2.26524c-0.18545,-1.73186 1.33718,-4.309 -0.47723,-5.78146c-1.69655,-1.37681 -3.9991,-0.16303 -5.87073,0.1106c-3.88802,0.56842 -7.77125,0.77429 -11.65998,1.24738c-1.2768,0.51542 -2.56279,1.01087 -3.86715,1.45192l-1.69531,0.49754c0,0 -0.00081,0.00024 -0.00238,0.00068c0.01586,0.10427 0.01586,0.17225 0.01586,0.17225c-0.01304,4.16152 0.91368,6.65737 2.53265,10.35017c0.50526,1.15247 0.23793,1.56245 0.9915,2.21268c0.06522,-0.36473 0.2903,-0.80913 0.97617,-0.94667c1.2256,-0.24577 1.47137,0.97983 1.47137,0.97983l0.07505,0.39055c0.9718,-0.0891 1.97457,-0.2816 2.56303,-0.3146c4.60694,-0.25834 9.16974,-0.78868 13.79109,-0.8766c0.8118,-0.1626 2.18289,0.42078 2.45749,-0.36028c0.60666,-1.72557 -0.06468,-4.12165 -0.65375,-6.26475c-0.07267,-0.13333 -0.12712,-0.29655 -0.15367,-0.49623zM213.97966,195.26857c0.40746,2.98659 1.51468,6.08703 2.21937,8.80285c0.30875,1.18988 0.63697,2.91852 0.2988,4.16562c0.96947,-0.30542 2.69417,-0.5238 3.04602,-0.64453c1.48972,-0.51118 0.92409,-3.66029 0.92601,-4.73192c0.3254,-2.15284 0.83069,-5.78868 0.14622,-7.88446c-0.24615,-0.75369 -1.42803,-2.70146 -2.51341,-2.45724c-1.36443,0.30701 -2.66963,2.1322 -4.12302,2.74968zM213.83577,192.52883c1.26567,-0.84495 2.47551,-2.33247 3.8272,-2.47096c4.92384,-0.5045 5.76136,5.0081 5.62424,9.39257c0.97485,0.00382 1.94162,0.01827 2.91685,0.06935c-0.18411,-1.34039 -0.34326,-2.68295 -0.42748,-4.0406c0,0 -0.0736,-1.24783 1.17424,-1.32143c0.11093,-0.00654 0.21258,-0.00264 0.30572,0.0099l0.08895,-0.71437c0.33077,-0.58687 0.42783,-1.39293 0.9923,-1.76062c0.51359,-0.33454 1.22834,-0.00976 1.83696,-0.08233c2.14524,-0.25577 4.0243,-0.65999 6.23566,-0.59075c1.93601,0.06062 3.86488,0.09068 5.78857,0.07363c0.84813,-3.24711 0.6702,-7.16627 0.48439,-10.4198c-0.06236,-1.09191 0.47953,-2.37365 -0.13511,-3.27829c-0.27841,-0.40978 -0.95684,-0.456 -1.1866,-0.89491c-0.56303,-1.07552 -0.03726,-2.98883 -0.14046,-4.04131c-0.051,-0.52013 -0.23553,-1.0106 -0.44031,-1.49715c-0.71576,-0.07893 -1.39468,-0.28329 -1.99171,-0.70725c-1.68886,-1.1993 -1.24242,-1.64544 -2.02381,-3.41339c-0.36656,-0.82937 -0.69893,-1.6137 -0.99548,-2.37621c-0.40573,0.50065 -1.11771,0.42175 -1.11771,0.42175c-9.62794,-1.07008 -19.46578,-0.06947 -29.13594,-0.55368c0.11595,2.52714 0.16776,5.06455 0.07084,7.64072c-0.01487,0.39528 -0.01394,4.24885 -0.66879,4.69112c-0.47782,0.32271 -4.5936,-0.04043 -5.21313,-0.07075c-1.52745,-0.07475 -3.08273,0.05397 -4.63028,0.25242c0.04768,0.13233 0.07366,0.27501 0.07366,0.42376c0,0.1104 -0.01431,0.21745 -0.04118,0.31941l-0.57845,2.40366l-0.19811,-0.04768c-0.13824,4.53554 -0.96189,8.98632 -1.24892,13.57735c-0.13557,2.16842 -0.12468,4.35932 -0.19481,6.53025c-0.0064,0.19824 0.02564,1.63951 -0.03097,2.42929c0.56714,-0.28429 1.31997,-0.4178 1.39023,-0.43743c2.6141,-0.73019 5.26167,-0.31295 7.68117,-1.54138c3.54852,-0.82118 7.35595,-0.34453 10.98837,-0.09945c-0.86996,-2.95729 -1.82904,-5.87395 -1.4841,-9.06628c0,0 0.14644,-1.24139 1.38784,-1.09495c1.24139,0.14644 1.09495,1.38784 1.09495,1.38784c-0.03872,0.29593 -0.06453,0.59544 -0.07874,0.89794zM200.83639,163.61018c-1.2403,0.15544 -1.39573,-1.08486 -1.39573,-1.08486l0.05186,-1.55127c0.55751,-0.99241 2.26481,-2.99763 3.03029,-4.86969c-0.05273,-0.79563 -0.10112,-1.59393 -0.14138,-2.39646c0,0 -0.0127,-0.25329 0.08744,-0.53742c-0.19702,-0.24312 -0.46796,-0.45876 -0.82596,-0.63973c-1.1522,-0.58245 -3.40525,-0.29188 -4.77143,-0.38245c-2.36163,-0.12427 -4.66496,-0.30139 -6.98258,-0.81251c-0.05796,-0.01278 -2.14345,-0.75259 -2.34818,-0.39115c-0.2177,0.38432 0.41722,0.81126 0.43194,1.25271c0.02898,0.86887 -0.55299,3.55069 -0.73291,4.4453c-0.78541,3.90548 -0.76602,7.95276 -1.14017,11.92377c-0.16829,1.78609 -1.03516,4.43749 -0.44577,6.23564c0.28554,0.87115 4.94634,0.15293 5.18395,0.14491c4.46972,-0.65648 8.12991,-0.80064 12.48663,-0.20819c0.17266,0.02348 -0.32918,-0.22038 -0.34349,-0.39403c-0.06754,-0.81967 0.07702,-1.64311 0.1079,-2.46497c0.04665,-1.24146 0.07748,-2.48386 0.07742,-3.72619c-0.00006,-1.33858 -0.04063,-2.66288 -0.10453,-3.97997c-0.36785,-0.0796 -0.97674,-0.34313 -0.97674,-1.21555c0,-0.76977 0.47404,-1.0655 0.83827,-1.17912c-0.03243,-0.49501 -0.06671,-0.98961 -0.10189,-1.48418c-0.41019,0.66122 -0.81099,1.29999 -1.14852,1.90249l0.24842,0.0172c0,0 0.15544,1.2403 -1.08486,1.39573z" fill="#000000" stroke="none" stroke-width="0.5"/></g></g></svg>