<svg version="1.1" xmlns="http://www.w3.org/2000/svg" xmlns:xlink="http://www.w3.org/1999/xlink" width="22.87387" height="93.08709" viewBox="0,0,22.87387,93.08709"><g transform="translate(-220.73108,-133.39808)"><g data-paper-data="{&quot;isPaintingLayer&quot;:true}" fill-rule="nonzero" stroke="none" stroke-width="0.5" stroke-linecap="butt" stroke-linejoin="miter" stroke-miterlimit="10" stroke-dasharray="" stroke-dashoffset="0" style="mix-blend-mode: normal"><path d="M243.53414,200.56201l-0.00092,0.19021c0.1444,5.39387 0.06288,10.85584 -0.17362,16.24814c-0.09191,2.09554 -0.08032,5.66933 -1.57577,7.38608c-4.61142,5.29379 -11.06836,-0.58855 -13.48485,-4.87191c-3.00104,-5.3195 -0.628,-13.37582 -5.19845,-17.48747c0,0 -1.80895,-1.7256 -0.08335,-3.53455c0.24912,-0.26115 0.49998,-0.44864 0.74688,-0.57829c-0.84085,-2.17419 -1.52664,-4.27714 -1.69154,-7.08089c-0.52751,-7.37628 -0.36272,-14.79122 -0.77796,-22.13264c-0.12927,-2.28541 -0.18371,-4.57592 -0.17494,-6.86496c0.00373,-0.97309 -0.56667,-1.96057 -0.31951,-2.90176c0.08601,-0.32753 0.17961,-0.66048 0.28495,-0.99205c-0.2754,-0.55507 -0.30645,-1.08156 -0.30645,-1.08156c-0.29713,-5.4775 0.81625,-11.75051 2.85054,-16.81833c0.66244,-1.65027 2.41105,-6.89368 4.97143,-6.6347c1.87865,0.19002 2.87299,2.57202 3.75423,4.24201c0.67283,1.27504 0.34273,2.87465 0.73347,4.26236c1.30563,4.63697 4.25142,8.13191 4.90881,13.0289l0.08036,0.55831c0,0 0.11895,0.83047 -0.26205,1.59815c0.08456,0.29825 0.16969,0.59411 0.26865,0.87703c1.55736,4.45207 1.51446,9.15216 2.58829,13.66818c0.02086,4.99857 -0.63639,10.31839 -0.00401,15.27149c0.56223,4.4036 2.44158,8.4769 2.73904,12.8743c0.12676,0.43144 0.12676,0.77393 0.12676,0.77393zM232.73334,217.20446c0.44748,0.81176 1.19118,1.42222 1.83128,2.09264c3.52294,3.68981 3.64433,1.68323 3.79919,-2.50174c0.01455,-0.39328 0.02567,-0.78665 0.03432,-1.18008c-0.93043,0.50716 -2.11914,0.68208 -3.65758,0.36203c-1.27117,-0.26444 -1.55996,-2.07887 -2.41271,-3.05796c-0.39614,-0.45484 -0.78521,-0.88053 -1.16788,-1.28843c0.23181,1.95489 0.62693,3.85662 1.57338,5.57355zM228.28888,143.31375c-0.05199,-0.18052 -0.11122,-0.38285 -0.17289,-0.5998c-0.50376,1.06031 -0.99124,1.94468 -1.03164,2.11705c-0.66671,2.84433 -1.23986,6.10517 -1.34557,9.18034c0.27252,-0.01641 0.54009,-0.04412 0.79397,-0.10154c1.79537,-0.40605 3.91091,-1.02317 5.9227,-0.97312c-1.07029,-3.31411 -3.17041,-6.16389 -4.16656,-9.62292zM231.23515,204.83768c0.18139,0.28256 0.37441,0.55683 0.58711,0.81708c1.20418,1.47341 3.73808,2.47888 4.45843,4.3308c0.00428,-0.1478 0.01707,-0.27859 0.04143,-0.37394c0.22554,-0.88284 0.68381,-1.69587 0.90115,-2.58076c0.62422,-2.54148 1.51704,-5.43807 1.15456,-8.07675c-0.52615,-3.83009 -2.17355,-7.57409 -2.66796,-11.39712c-0.64602,-4.99533 -0.02811,-10.30209 -0.00401,-15.33675c-0.83454,-3.56421 -1.2482,-6.98293 -1.87417,-10.59495c-0.20614,-1.18951 0.04536,-2.63017 -0.74264,-3.54477c-0.80312,-0.93216 -5.21536,0.68801 -5.65895,0.74809c-0.49474,0.067 -1.03925,-0.3922 -1.48775,-0.17288c-0.92387,0.45177 0.17172,2.0518 0.17627,3.08021c0.00519,1.17254 -0.3751,2.32846 -0.34546,3.50063c0.21142,8.36104 0.68686,16.88199 1.28924,25.2791c0.21095,4.04469 1.70101,6.24044 3.05028,9.98207l1.11879,1.32694c0,0 1.19189,1.60815 0.00368,3.013z" fill="#000000"/><path d="M231.12986,211.59099c0.38267,0.4079 0.83045,0.91452 1.22659,1.36935c0.85276,0.9791 1.10869,2.7027 2.37987,2.96714c1.53844,0.32005 2.78015,0.18395 3.71058,-0.32321c-0.00865,0.39343 -0.0188,0.80285 -0.03336,1.19613c-0.15486,4.18497 -0.32972,6.23636 -3.85266,2.54655c-0.6401,-0.67042 -1.42684,-1.31306 -1.87432,-2.12482c-0.94645,-1.71692 -1.3249,-3.67626 -1.55671,-5.63115z" data-paper-data="{&quot;noHover&quot;:false,&quot;origItem&quot;:[&quot;Path&quot;,{&quot;applyMatrix&quot;:true,&quot;segments&quot;:[[[232.73334,217.20446],[-0.94645,-1.71692],[0.44748,0.81176]],[[234.56462,219.2971],[-0.6401,-0.67042],[3.52294,3.68981]],[[238.3638,216.79536],[-0.15486,4.18497],[0.01455,-0.39328]],[[238.39813,215.61527],[-0.00865,0.39343],[-0.93043,0.50716]],[[234.74055,215.97731],[1.53844,0.32005],[-1.27117,-0.26444]],[[232.32784,212.91934],[0.85276,0.9791],[-0.39614,-0.45484]],[[231.15996,211.63091],[0.38267,0.4079],[0.23181,1.95489]]],&quot;closed&quot;:true}]}" fill="#ff0000"/><path d="M231.22929,201.87464l-1.12229,-1.32722c-1.34927,-3.74164 -2.86357,-5.94701 -3.07452,-9.9917c-0.60238,-8.39711 -1.06376,-17.00551 -1.27518,-25.36655c-0.02964,-1.17217 0.35366,-2.329 0.34847,-3.50154c-0.00456,-1.0284 -1.09898,-2.62872 -0.17511,-3.0805c0.4485,-0.21932 0.99571,0.23931 1.49045,0.17231c0.44359,-0.06008 4.86691,-1.68102 5.67003,-0.74886c0.78799,0.9146 0.53848,2.35538 0.74462,3.54489c0.62597,3.61202 1.05063,7.0329 1.88518,10.59711c-0.02409,5.03466 -0.62161,10.42433 0.02441,15.41966c0.49441,3.82303 2.12579,7.57785 2.65194,11.40795c0.36248,2.63868 -0.53882,5.53799 -1.16304,8.07947c-0.21734,0.88489 -0.67834,1.69846 -0.90388,2.5813c-0.02436,0.09535 -0.03734,0.22618 -0.04162,0.37397c-0.72035,-1.85192 -3.26275,-2.85674 -4.46694,-4.33015c-0.2127,-0.26025 -0.40714,-0.53455 -0.58853,-0.81711c1.18822,-1.40485 -0.004,-3.01301 -0.004,-3.01301z" data-paper-data="{&quot;noHover&quot;:false,&quot;origItem&quot;:[&quot;Path&quot;,{&quot;applyMatrix&quot;:true,&quot;segments&quot;:[[[231.23515,204.83768],[1.18822,-1.40485],[0.18139,0.28256]],[[231.82227,205.65476],[-0.2127,-0.26025],[1.20418,1.47341]],[[236.2807,209.98556],[-0.72035,-1.85192],[0.00428,-0.1478]],[[236.32212,209.61162],[-0.02436,0.09535],[0.22554,-0.88284]],[[237.22328,207.03086],[-0.21734,0.88489],[0.62422,-2.54148]],[[238.37784,198.95411],[0.36248,2.63868],[-0.52615,-3.83009]],[[235.70988,187.55699],[0.49441,3.82303],[-0.64602,-4.99533]],[[235.70587,172.22024],[-0.02409,5.03466],[-0.83454,-3.56421]],[[233.8317,161.62529],[0.62597,3.61202],[-0.20614,-1.18951]],[[233.08906,158.08052],[0.78799,0.9146],[-0.80312,-0.93216]],[[227.43011,158.82861],[0.44359,-0.06008],[-0.49474,0.067]],[[225.94236,158.65573],[0.4485,-0.21932],[-0.92387,0.45177]],[[226.11863,161.73594],[-0.00456,-1.0284],[0.00519,1.17254]],[[225.77317,165.23657],[-0.02964,-1.17217],[0.21142,8.36104]],[[227.06241,190.51567],[-0.60238,-8.39711],[0.21095,4.04469]],[[230.11269,200.49774],[-1.34927,-3.74164],[0,0]],[231.23148,201.82469]],&quot;closed&quot;:true}]}" fill="#ff0000"/><path d="M232.48503,152.97698c-2.01179,-0.05005 -4.1779,0.57215 -5.97327,0.9782c-0.25387,0.05742 -0.52602,0.08273 -0.79854,0.09914c0.10572,-3.07517 0.67966,-6.42243 1.34637,-9.26676c0.0404,-0.17237 0.54408,-1.06256 1.04784,-2.12287c0.06167,0.21695 0.12156,0.41918 0.17354,0.5997c0.99615,3.45903 3.13377,6.39849 4.20405,9.71259z" data-paper-data="{&quot;noHover&quot;:false,&quot;origItem&quot;:[&quot;Path&quot;,{&quot;applyMatrix&quot;:true,&quot;segments&quot;:[[[228.28888,143.31375],[0.99615,3.45903],[-0.05199,-0.18052]],[[228.11599,142.71395],[0.06167,0.21695],[-0.50376,1.06031]],[[227.08436,144.831],[0.0404,-0.17237],[-0.66671,2.84433]],[[225.73878,154.01134],[0.10572,-3.07517],[0.27252,-0.01641]],[[226.53275,153.9098],[-0.25387,0.05742],[1.79537,-0.40605]],[[232.45544,152.93668],[-2.01179,-0.05005],[-1.07029,-3.31411]]],&quot;closed&quot;:true}]}" fill="#6c6c6c"/></g></g></svg>