<svg version="1.1" xmlns="http://www.w3.org/2000/svg" xmlns:xlink="http://www.w3.org/1999/xlink" width="833" height="496" viewBox="0,0,833,496"><defs><radialGradient cx="398.98753" cy="64.05624" r="139.7069" gradientUnits="userSpaceOnUse" id="color-1"><stop offset="0" stop-color="#e7e7e7"/><stop offset="1" stop-color="#e7e7e7" stop-opacity="0"/></radialGradient></defs><g transform="translate(176.5,68)"><g data-paper-data="{&quot;isPaintingLayer&quot;:true}" fill-rule="nonzero" stroke-linecap="butt" stroke-linejoin="miter" stroke-miterlimit="10" stroke-dasharray="" stroke-dashoffset="0" style="mix-blend-mode: normal"><path d="M-175.5,427v-494h831v494z" fill="#7d7d7d" stroke="#000000" stroke-width="2"/><path d="M507.69443,68.05623c0,57.65853 -49.69639,104.4 -111,104.4c-61.30361,0 -111,-46.74147 -111,-104.4c0,-57.65853 49.69639,-104.4 111,-104.4c61.30361,0 111,46.74147 111,104.4z" fill="#b7b7b7" stroke="none" stroke-width="0"/><path d="M538.69443,64.05624c0,72.57022 -62.54891,131.4 -139.7069,131.4c-77.15799,0 -139.7069,-58.82978 -139.7069,-131.4c0,-72.57022 62.54891,-131.4 139.7069,-131.4c77.15799,0 139.7069,58.82978 139.7069,131.4z" fill="url(#color-1)" stroke="none" stroke-width="0"/><text transform="translate(413.69443,61.65623) scale(0.5,0.5)" font-size="40" xml:space="preserve" fill="#000000" fill-rule="nonzero" stroke="none" stroke-width="1" stroke-linecap="butt" stroke-linejoin="miter" stroke-miterlimit="10" stroke-dasharray="" stroke-dashoffset="0" font-family="Pixel" font-weight="normal" text-anchor="start" style="mix-blend-mode: normal"><tspan x="0" dy="0">/600</tspan></text></g></g></svg>