<svg version="1.1" xmlns="http://www.w3.org/2000/svg" xmlns:xlink="http://www.w3.org/1999/xlink" width="10.37313" height="11.02177" viewBox="0,0,10.37313,11.02177"><g transform="translate(-235.90206,-173.60232)"><g data-paper-data="{&quot;isPaintingLayer&quot;:true}" fill="#ff0000" fill-rule="nonzero" stroke="none" stroke-width="0.5" stroke-linecap="butt" stroke-linejoin="miter" stroke-miterlimit="10" stroke-dasharray="" stroke-dashoffset="0" style="mix-blend-mode: normal"><path d="M242.18518,184.26332c-0.71523,0.31748 -1.51055,0.44312 -2.36068,0.30541c-1.29568,-0.20989 -2.16278,-0.85193 -2.65873,-1.69464c-0.503,-0.34222 -0.73755,-0.76454 -0.76883,-1.2192l-0.49489,-1.03664c0.19964,-1.31574 0.06327,-2.57486 1.07486,-3.34325c1.16106,-2.25461 4.39658,-4.48884 6.4981,-3.37893c1.39891,0.73883 2.10346,2.05624 2.26608,3.52072c0.8858,1.31665 0.58926,2.59028 -0.30024,3.59647c-0.09301,1.02504 -0.33998,2.05977 -1.2346,2.67574c-0.56485,0.38892 -1.27069,0.56675 -2.02108,0.57432z"/></g></g></svg>