<svg version="1.1" xmlns="http://www.w3.org/2000/svg" xmlns:xlink="http://www.w3.org/1999/xlink" width="128.21937" height="85.80005" viewBox="0,0,128.21937,85.80005"><g transform="translate(-175.89032,-137.09998)"><g data-paper-data="{&quot;isPaintingLayer&quot;:true}" fill-rule="nonzero" stroke-linecap="butt" stroke-linejoin="miter" stroke-miterlimit="10" stroke-dasharray="" stroke-dashoffset="0" style="mix-blend-mode: normal"><path d="M177.14033,221.65003v-83.30005h125.71937v83.30005z" fill="#777777" stroke="#000000" stroke-width="2.5"/><path d="M249.92484,176.68772c-0.60477,-2.42575 1.82098,-3.03052 1.82098,-3.03052l3.27157,-0.50165c1.11677,0.30436 2.23353,0.60873 3.3503,0.91309c6.99662,4.79112 15.1431,11.19902 14.03748,20.84766c-0.28146,2.45629 -1.8642,6.33936 -3.10197,8.4188c-1.02498,1.72196 -1.921,3.63249 -3.45925,4.91683c-1.16017,0.96867 -4.95259,0.85033 -6.37968,1.32826c-2.17829,0.7295 -4.07962,2.19418 -6.2928,2.80979c-6.74397,1.87587 -14.73188,2.73825 -21.63267,1.72948c-0.63102,-0.09224 -8.1358,-2.38337 -8.97594,-2.6373c-4.30385,-1.43082 -9.08578,-2.00618 -13.28013,-3.48737c-1.71852,-0.60687 -4.46914,-3.07978 -5.812,-4.24653c-7.99965,-6.95057 -13.22172,-19.20464 -6.53574,-28.82283c2.51665,-3.62036 6.33735,-5.32213 9.75096,-7.84125c0,0 2.01456,-1.48038 3.49495,0.53418c1.48038,2.01456 -0.53418,3.49495 -0.53418,3.49495c-2.89786,2.1214 -6.45774,3.58767 -8.58489,6.63511c-5.20121,7.45144 -0.38681,16.98705 5.68814,22.22538c0.48973,0.42228 3.43193,3.06699 4.3746,3.3726c4.20203,1.36228 8.69026,1.9538 12.95028,3.36986c2.69542,0.81442 5.29923,2.04324 8.0866,2.44213c6.25793,0.89556 13.49431,0.10117 19.62298,-1.57217c1.87061,-0.51074 4.62204,-2.26104 6.18571,-2.77756c1.6233,-0.53622 3.84521,0.47856 5.08025,-0.70353c0.89692,-0.85846 1.31048,-2.11156 1.88871,-3.21022c0.95231,-1.80942 2.2252,-4.45228 2.50064,-6.56552c0.93981,-7.21029 -6.22209,-12.1008 -11.17433,-15.72419c-0.83564,-0.20358 -1.67128,-0.40716 -2.50692,-0.61073l-0.80313,0.51422c0,0 -2.42575,0.60477 -3.03052,-1.82098z" fill="#ff0000" stroke="none" stroke-width="0.5"/><path d="M232.47328,151.36308c2.49741,0.11384 2.38357,2.61124 2.38357,2.61124l-0.12539,2.62315c0.82631,9.16072 -0.21758,18.3834 0.00002,27.55689c0,0 0.05569,2.49938 -2.44369,2.55507c-2.49938,0.05569 -2.55507,-2.44369 -2.55507,-2.44369c-0.19214,-9.17362 0.84368,-18.39824 0.00002,-27.55489l0.12929,-2.9642c0,0 0.11384,-2.49741 2.61124,-2.38357z" fill="#ff0000" stroke="none" stroke-width="0.5"/></g></g></svg>