<svg version="1.1" xmlns="http://www.w3.org/2000/svg" xmlns:xlink="http://www.w3.org/1999/xlink" width="81.19605" height="112.76099" viewBox="0,0,81.19605,112.76099"><g transform="translate(-201.9855,-92.74985)"><g data-paper-data="{&quot;isPaintingLayer&quot;:true}" fill="#000000" fill-rule="nonzero" stroke="none" stroke-width="0.5" stroke-linecap="butt" stroke-linejoin="miter" stroke-miterlimit="10" stroke-dasharray="" stroke-dashoffset="0" style="mix-blend-mode: normal"><path d="M233.67803,138.79564c-0.90531,-3.76903 -1.48894,-7.5887 -1.94707,-11.42956c-0.47197,-0.03625 -0.94401,-0.07342 -1.41605,-0.11152c-1.24498,1.5813 -2.59765,3.11858 -3.60287,4.84437c-2.06067,2.27428 -3.48263,4.50192 -5.63681,6.46665l0.00048,0.00038l0.07286,0.03328l0.05059,0.0621l0.21517,0.16094c-0.02796,0.00911 -0.05592,0.01816 -0.08391,0.02717c0.0356,0.03414 0.0705,0.06896 0.10458,0.10455c0.96516,1.0077 0.99703,1.95702 1.93728,3.00661c1.38179,1.54248 3.47201,3.46387 5.69609,4.86862c-0.10386,-0.10828 -0.19837,-0.24935 -0.27632,-0.43171h-0.00001c-0.07346,-0.17186 -0.11023,-0.32901 -0.11965,-0.472l0.05934,0.06816l0.71842,0.50155l0.0546,0.02083l0.03937,0.04319l0.43107,0.28659l0.49412,0.17576l-0.0366,0.03406c0,0 -0.44775,0.19137 -0.90377,0.05577c0.78099,0.46357 1.57344,0.85683 2.35301,1.14182c0.44771,0.12749 0.89446,0.23868 1.34151,0.33677l0.08426,0.14001l0.43105,0.42989l0.11025,0.06595l0.21092,0.13398l0.21482,0.26369l0.28737,0.21495l0.31646,0.13276c-0.13011,-3.75457 -0.47772,-7.57475 -1.20059,-11.17563zM229.99436,111.09718c-0.16322,-1.2701 -1.37403,-7.51991 -2.13366,-7.29018c0,0 -1.24809,-0.06915 -1.17894,-1.31724c0.01861,-0.33595 0.12265,-0.57646 0.26476,-0.74857l-0.80884,0.05762l-1.00581,0.07164l-0.19683,0.06437l-0.2062,-0.01918l-0.89176,0.13682l-1.53825,0.20919l-0.30746,0.12286l-0.33103,0.00681l-0.79028,0.21495l-0.70005,0.39207l-0.75596,0.26891l-0.16297,0.10835c0.83029,1.22303 2.03788,1.95025 3.11452,3.34304c1.26514,1.63664 2.31643,3.09682 3.63263,4.69131c1.87898,2.27628 3.39727,4.80423 4.84006,7.38336c-0.25307,-2.56859 -0.51505,-5.13688 -0.84393,-7.69615zM231.16381,106.09477c0.37462,1.57999 1.09518,3.08225 1.31116,4.69162c0.2965,2.20943 0.53553,4.42468 0.75788,6.64062c0.92277,-1.47571 1.9489,-2.88177 3.11644,-4.10697c2.03816,-2.13882 6.71275,-4.59487 8.27591,-7.5692c-1.21251,-0.57659 -2.4758,-1.0808 -3.78172,-1.51047l-0.75932,-0.31884l-0.56904,-0.30954l-0.08854,-0.02291l-0.0695,-0.05944l-1.29319,-0.64484l-0.48284,-0.10675c0.18078,0.99025 0.28816,1.99877 0.29195,3.00505l-0.07621,0.9639c0,0 -0.10412,1.24566 -1.34978,1.14153c-1.24566,-0.10412 -1.14153,-1.34978 -1.14153,-1.34978l0.06752,-0.75565c0.00394,-0.88157 -0.0964,-1.76614 -0.26521,-2.63141c0,0 -0.09106,-0.47672 0.13735,-0.8928l-0.83023,-0.08715l-0.00456,0.00065l-0.00433,-0.00157l-1.81531,-0.18728l-0.74216,-0.1586l-0.43519,0.01499l-0.41809,-0.12173l-0.96906,-0.03717c1.86604,1.85155 0.68744,2.5151 1.13761,4.41374zM236.11938,138.25728c0.8306,4.14525 1.18011,8.54342 1.28561,12.83569l0.18561,0.1234l0.49204,0.17503l0.42366,0.30537l0.71844,0.28659l0.93611,0.12675l0.91645,0.22911l0.22771,0l0.40177,0.40078l0.64579,-0.01454l0.44664,0.46666l1.96608,0.00128l0.07733,0.0435l0.14307,-0.04336l0.39047,0.00025l0.57475,-0.14329l0.6515,-0.34693l0.04218,-0.01278l0.2074,-0.02351l0.57476,-0.21495l0.28208,-0.19417l0.33199,-0.084l1.86796,-1.00308l0.03629,-0.03299l0.05218,-0.01419c-0.44571,-0.82282 -0.86089,-1.65998 -1.44339,-2.53455c-0.7121,-1.06916 -1.89012,-1.77507 -2.59555,-2.84864c-2.50113,-3.80637 -4.60214,-8.03651 -7.64788,-11.41754c-1.40949,-1.35538 -2.62589,-2.84093 -3.72663,-4.40455c0.38671,2.79766 0.87062,5.58075 1.53557,8.33867zM247.91192,128.24102c-3.9316,-0.12071 -7.91169,-0.31245 -11.90777,-0.57202c1.19778,1.76034 2.52994,3.4252 4.10522,4.91813c3.11917,3.54331 5.38392,7.81323 7.94246,11.78714c0.66686,1.03577 1.8182,1.69466 2.50413,2.71789c0.7371,1.09956 1.14035,2.04275 1.66003,2.97759l0.68396,-0.38307l0.0192,-0.0741l0.38196,-0.38091l0.00003,-0.00005l0.00005,-0.00003l0.43105,-0.42989l0.00001,-0.00002l0.00002,-0.00001l0.03581,-0.03571l0.00287,-0.00214l0.00311,-0.00381l0.2456,-0.24494l0.13017,-0.2163l0.15593,-0.1914l0.62724,-0.56879l0.16667,-0.24932l0.15146,-0.18881l0.09617,-0.20908c1.75363,-1.62478 2.20232,-3.64735 3.00453,-6.09849c0.40959,-1.2515 0.76363,-2.54986 1.04545,-3.87475c-0.08817,-0.04254 -0.17641,-0.08486 -0.26472,-0.12699l0.11354,-0.2784l0.06078,-0.42432l0.38826,-1.03257l0.02354,-0.20438l0.10294,-0.17812l0.14371,-0.50154l0.01582,-0.46415l0.15496,-0.43781l0.14368,-1.50462l-0.0362,-0.23991l0.05885,-0.23538v-0.57319l-0.09624,-0.38498l0.07049,-0.35151l-0.0023,-0.04886c-3.93489,-0.72594 -8.35959,-1.90019 -12.36245,-1.6904zM247.89306,125.74109c4.08609,-0.16037 8.49801,0.93838 12.52698,1.67625l-0.03674,-0.12021l-0.06623,-0.83265l-0.25087,-0.20485l-0.19198,-0.62811l-0.25754,-0.42808c-0.07409,-0.34797 -0.15673,-0.69364 -0.24823,-1.03661v-0.11336l-0.04767,-0.1907l0.03287,-0.1938l-0.05703,-0.73946v-2.53011l-0.12109,-0.48436l0.02349,-0.49871l-0.07184,-0.35825l-0.35079,-0.73959l-0.10477,-0.41909l-0.12896,-0.07369l-0.51981,-1.09595l-1.61783,-0.53836l-0.38743,-0.60775l-0.41528,-0.84613l-1.14123,-1.35152l-0.35102,-0.42005l-0.02878,-0.02097l-0.01597,-0.03183l-0.02949,-0.03431l-0.0831,-0.16575l-0.35918,-0.4181l-0.23411,-0.49901l-0.93397,-1.14638l-0.06535,-0.04887l-0.03699,-0.07274l-0.93397,-1.07473l-0.00566,-0.00396l-0.01593,-0.0793l-1.06052,-0.67365l-1.02952,-0.72013l-0.07934,0.01578l-0.00583,-0.0037l-0.00267,-0.00089l-1.80972,-1.37504l-0.51599,0.08164c-1.76343,3.38163 -6.09997,5.62195 -8.67413,8.31789c-1.84784,1.93525 -3.27394,4.35278 -4.53233,6.74629c0.08416,0.85528 0.16979,1.71017 0.25925,2.56435c0.14405,0.24813 0.28931,0.49539 0.43604,0.74159c4.54665,0.31707 9.07739,0.54448 13.54026,0.67696zM224.11392,113.05294c-1.31486,-1.58727 -2.45125,-3.13896 -3.69546,-4.76629c-1.06918,-1.3984 -2.21304,-2.28825 -3.1056,-3.46661l-0.10252,0.11249l-0.5053,0.33287l-0.79028,0.85978l-0.05155,0.09474l-0.08749,0.06307l-1.14951,1.36132l-0.36638,0.74651l-0.47847,0.68013l-0.35922,0.93143l-0.03822,0.30888l-0.14664,0.27452l-0.04605,0.18371l-0.057,0.13262l-0.07552,0.46525l-0.21103,0.42146l-0.14369,0.64484l0.01101,0.42773l-0.12443,0.40938l-0.07184,1.43297l0.02485,0.12587l-0.03112,0.12447v1.3702l-0.0373,0.33479l-0.06757,0.53919l0.03801,0.31446l-0.07682,0.30729v1.36133l0.14135,0.5654l-0.00774,0.58275l0.15141,0.64176c-0.0024,-0.00053 -0.00479,-0.00106 -0.00718,-0.00159c0.02625,0.10315 0.05291,0.20643 0.07991,0.30984l0.04383,0.18577l0.12706,0.63364l0.0461,0.0972v0.72166c5.34432,0.70168 10.78303,1.28693 16.22722,1.74674c0.42509,-0.5965 0.81309,-1.20844 1.13632,-1.84882c-1.86935,-3.38458 -3.72287,-6.78074 -6.19313,-9.76278zM213.50358,125.67133l0.00338,0.01146l0.00422,0.00717l0.21812,0.53483l0.17562,0.78618l0.28736,0.57313l0.07133,0.14228c0.2593,1.42101 0.42468,3.93307 1.47726,4.97525c0.40801,0.40398 1.0977,0.43834 1.49844,0.84954c1.13999,1.16975 1.01403,1.72138 1.47929,2.70524c0.07808,-0.08231 0.15597,-0.16491 0.23368,-0.24779l0.35102,0.60011l0.1982,0.20268c0.45199,-0.22372 0.92209,-0.42178 1.26176,-0.78327c1.42251,-1.51389 2.43984,-3.77986 3.93003,-5.40387c0.7307,-1.28582 1.68685,-2.45794 2.64254,-3.62234c-4.66169,-0.41445 -9.31324,-0.91775 -13.90331,-1.50481zM222.77096,151.02276c-0.77061,-0.49288 -1.11471,-1.53361 -1.92742,-1.95348c-0.96742,-0.4998 -2.21576,-0.50625 -3.02375,-1.23621c-0.71371,-0.64479 -0.9349,-1.69703 -1.56278,-2.42566c-0.68627,-0.79638 -1.86996,-0.98535 -2.69844,-1.6325c-1.21929,-0.95242 -1.35139,-2.80722 -2.55307,-3.61074c-0.95271,-0.63703 -2.00172,-1.20697 -2.7262,-2.095c-0.48578,-0.88881 -0.55068,-2.0273 -1.22996,-2.77866c-0.7741,-0.85626 -2.08516,-1.2082 -2.67289,-2.20167c-2.82126,-4.76893 -2.6542,-12.23527 -1.96371,-17.40403c0.32367,-2.42279 0.18222,-4.87072 1.24404,-7.19195c0.7543,-1.64898 2.28581,-2.50666 3.39697,-3.89399c1.42174,-2.63065 2.75374,-2.6953 4.94301,-4.45449c6.96788,-5.59905 18.1127,-8.63315 27.13088,-6.91469c2.95254,0.56262 5.79692,1.47563 8.70621,2.22483c8.12475,2.11308 16.69699,7.21038 20.631,15.09508c0.65408,1.31093 0.80199,2.83776 1.46759,4.14287c0.63409,1.24333 1.68552,2.23201 2.40008,3.4309c1.62727,2.73022 1.6888,6.75231 2.08798,9.85707c1.34487,5.55031 1.34374,12.30669 -1.26688,17.56618c-0.77531,1.56198 -2.90506,2.71854 -4.16372,3.8043c-1.70024,1.46668 -3.71504,2.41913 -5.86781,2.96438c0.23948,1.25321 0.29719,2.59434 0.39326,3.50014c0.61885,5.83507 0.63085,11.65417 1.42861,17.48767c0.59271,3.54022 1.30013,5.81302 3.07576,8.72711c1.00829,1.65478 1.18408,3.85915 2.10891,5.56247c0.70609,1.30045 2.11175,2.11195 2.88685,3.37248c0.40591,0.66011 0.6101,2.66877 1.50291,3.36693c0.50811,0.39732 1.20262,0.51046 1.70504,0.91494c1.24872,1.0053 1.25491,2.50762 2.57108,3.44377c0.89477,0.63642 3.33867,1.18515 3.7802,2.27862c1.40923,3.48999 0.21228,3.03139 -2.03027,3.57361c-11.57328,1.13327 -22.75087,0.99148 -34.44324,0.9219c-12.02819,-0.98494 -24.44778,0.12287 -36.43733,-1.43015c0,0 -0.86878,-0.11301 -1.05707,-0.87714c-0.0563,-0.02723 -0.11382,-0.05934 -0.17253,-0.0968c-1.05374,-0.6724 -0.38134,-1.72615 -0.38134,-1.72615l0.72442,-1.04841c1.17816,-1.04964 2.18034,-1.60463 2.90485,-2.97126c0.83524,-3.26297 2.58649,-5.493 3.93765,-8.36422c1.20418,-2.5589 1.0973,-5.83285 2.09889,-8.47728c0.62449,-1.64879 1.76238,-3.18833 2.26299,-4.91408c1.13019,-3.89614 1.65347,-8.33367 2.05531,-12.35811c0.64167,-1.94514 1.99061,-3.87551 2.55222,-5.72688c0.38392,-1.26558 0.19683,-3.47953 0.43721,-5.38217c-0.78503,-0.27167 -1.54343,-0.61409 -2.25552,-1.06953z"/><path d=""/><path d=""/><path d=""/></g></g></svg>