<svg version="1.1" xmlns="http://www.w3.org/2000/svg" xmlns:xlink="http://www.w3.org/1999/xlink" width="416.31762" height="318.13733" viewBox="0,0,416.31762,318.13733"><g transform="translate(-102.53546,-30.40623)"><g data-paper-data="{&quot;isPaintingLayer&quot;:true}" fill="#000000" fill-rule="nonzero" stroke="none" stroke-width="0.5" stroke-linecap="butt" stroke-linejoin="miter" stroke-miterlimit="10" stroke-dasharray="" stroke-dashoffset="0" style="mix-blend-mode: normal"><path d="M109.03701,243.37743c-0.97724,-0.77942 -0.19782,-1.75666 -0.19782,-1.75666l0.69694,-0.87382c5.60955,-7.03326 11.69654,-14.11289 15.85482,-22.09714c2.6619,-5.11106 5.72767,-10.17449 8.04812,-15.44724c4.68852,-10.65369 7.61302,-22.07515 12.24051,-32.77332c3.63918,-8.41333 7.27836,-16.82666 10.91755,-25.23999c0.1723,-0.39835 0.34887,-0.79713 0.52864,-1.19638c-4.18165,4.27702 -9.12444,7.59174 -15.41522,8.44488c-0.32514,0.04409 -5.0645,0.67958 -5.23668,0.66237c-4.66865,-0.46662 -9.57509,-5.42903 -13.40714,-7.89229c-3.31011,-2.58815 -6.30348,-5.53339 -9.53904,-8.21282c-2.07126,-1.71525 -4.6009,-2.97204 -5.7463,-5.56151c-0.94353,-2.13309 -1.14806,-5.25797 -1.6588,-7.55048c-1.28119,-5.75079 -2.69902,-11.30403 -3.5772,-17.14237c0,0 -0.18593,-1.23609 1.05017,-1.42202c1.23609,-0.18593 1.42202,1.05017 1.42202,1.05017c0.86965,5.78162 2.27571,11.27495 3.54516,16.97048c0.48835,2.19103 0.66749,5.043 1.51636,7.10907c0.84063,2.04602 3.42776,3.28414 5.04289,4.621c3.18794,2.63871 6.13283,5.5492 9.39184,8.09989c3.31209,2.12396 8.15603,7.10324 12.19164,7.44165c10.68834,0.89629 18.54068,-7.4065 24.44976,-15.44318c0.4992,-1.20088 0.95867,-2.4081 1.35119,-3.62257c0.94794,-2.93291 1.25078,-6.26987 1.85749,-9.29412c2.32097,-11.51997 7.07269,-22.43853 11.78454,-33.11448c1.00085,-2.2677 1.76684,-4.63945 2.74779,-6.91597c0.42311,-0.98192 0.43036,-2.34577 1.33421,-2.91694c4.33594,-2.74001 5.34112,2.75175 5.185,5.2357c-0.45243,4.87422 -0.80695,10.3274 -2.06065,15.06446c-1.13543,4.29019 -3.56974,7.60858 -5.61845,11.40437c-2.31619,4.29138 -3.57304,9.12111 -6.06348,13.37769c-1.63475,2.79405 -3.71584,5.41455 -5.54912,8.08337c-0.91142,1.3268 -1.84411,2.67272 -2.81009,4.00709c-1.38672,3.27531 -3.03712,6.50387 -4.42197,9.70547c-3.63918,8.41333 -7.27836,16.82666 -10.91755,25.23999c-4.62962,10.7031 -7.55582,22.12846 -12.24684,32.78783c-2.34277,5.32347 -5.43168,10.43508 -8.11903,15.59503c-4.23435,8.13029 -10.40596,15.33988 -16.11765,22.50119l-0.69694,0.87382c0,0 -0.77942,0.97724 -1.75666,0.19782zM165.79091,128.62096c1.303,-1.80186 2.6224,-3.61322 3.72916,-5.50613c2.46973,-4.22406 3.71051,-9.01278 6.00634,-13.27551c1.95889,-3.63712 4.32316,-6.76255 5.41161,-10.87519c1.218,-4.60216 1.54999,-9.91839 1.9881,-14.65548c0.08731,-0.63894 0.34843,-1.27777 0.26193,-1.91683c-0.08271,-0.61099 -1.15412,-1.51801 -1.53451,-1.03278c-0.37301,0.47581 -0.23595,1.18905 -0.42555,1.76315c-0.77454,2.34526 -1.79553,4.76359 -2.79225,7.02347c-4.63481,10.50851 -9.35511,21.25247 -11.62065,32.59707c-0.38108,1.89955 -0.65075,3.91178 -1.02417,5.87824z"/><path d="M196.63275,164.1084c-1.23805,0.17239 -1.41045,-1.06566 -1.41045,-1.06566l-0.13207,-0.94846c-0.04419,-0.31735 -0.71098,-5.04454 -0.6981,-5.217c0.31875,-4.26934 3.33,-8.2353 5.40457,-11.7984c1.22537,-2.1046 2.35,-4.76977 3.89103,-6.6495c2.58394,-3.15187 6.55661,-5.17361 9.30513,-8.20318c1.61531,-1.78048 2.49074,-4.83677 4.28602,-6.34708c1.72045,-1.44736 5.59569,-2.33 7.68119,-3.12373c8.46581,2.25006 16.53468,8.84151 17.97193,17.86369c0.64395,4.04237 -0.65566,8.79051 -1.203,12.79328c-0.42548,3.11157 -0.31095,7.27676 -1.43178,10.20043c-0.06905,0.18011 -2.7788,3.94524 -2.89825,4.11213c-8.34164,11.65428 -18.20306,26.03901 -31.33859,32.66038c-2.05043,1.03358 -4.63445,1.54877 -6.8122,2.27105c-1.96097,0.65039 -5.50765,2.52533 -7.54209,2.42422c-5.42387,-0.26957 -5.91448,-6.86695 -6.66936,-10.85462c-0.59697,-3.1535 -1.66998,-6.8149 -1.83616,-9.99601c-0.12586,-2.40925 0.61585,-5.26142 0.90544,-7.66211c0.59893,-4.96502 1.19785,-9.93005 1.79678,-14.89507c0.62329,-4.96302 1.26433,-9.92381 1.89946,-14.88533c0.30824,-2.40794 0.29139,-5.35677 1.00489,-7.6715c2.18865,-7.10042 8.37867,-13.0043 13.72109,-17.74015c0,0 0.93539,-0.82919 1.76457,0.1062c0.82919,0.93539 -0.1062,1.76457 -0.1062,1.76457c-4.99611,4.42886 -10.98386,9.98654 -13.00486,16.65121c-0.65811,2.17024 -0.61131,4.95402 -0.89972,7.20709c-0.63462,4.95753 -1.27515,9.91433 -1.89795,14.87335c-0.59868,4.963 -1.19736,9.92601 -1.79605,14.88901c-0.27164,2.25184 -1.01377,4.96861 -0.89098,7.22993c0.16705,3.07644 1.21866,6.61083 1.7961,9.664c0.42622,2.25358 0.74905,8.88405 4.27277,8.82013c1.89723,-0.03442 4.8786,-1.6953 6.69526,-2.29783c2.06865,-0.6861 4.55853,-1.15957 6.50394,-2.14546c8.03795,-4.07348 14.10806,-11.32521 19.65728,-18.15904c3.66681,-4.51566 7.35752,-8.97824 10.74367,-13.70911c0.85949,-1.20082 2.08475,-2.20017 2.60817,-3.58101c1.0342,-2.72831 0.88035,-6.7084 1.27782,-9.61517c0.50988,-3.72881 1.81849,-8.2936 1.21142,-12.0592c-1.25005,-7.75391 -8.16264,-13.47622 -15.36695,-15.7628c-1.72054,0.76827 -4.80429,1.35943 -6.20824,2.54053c-1.63982,1.37953 -2.54529,4.45641 -4.04236,6.11215c-2.71462,3.00235 -6.68515,5.00652 -9.2323,8.11908c-1.45337,1.77598 -2.50024,4.32759 -3.65643,6.31337c-1.85319,3.18289 -4.79127,6.90349 -5.07189,10.72527c-0.11562,1.57465 0.4633,3.12364 0.68105,4.68744l0.13207,0.94846c0,0 0.17239,1.23805 -1.06566,1.41045z"/><path d="M349.48831,65.75471c1.25,0 1.25,1.25 1.25,1.25l0,1.71992c-0.00289,9.51014 -0.70222,18.1634 -2.80651,27.45809c-0.90467,3.99593 -1.38345,8.51328 -2.80735,12.35034c-0.86401,2.3283 -2.476,4.49696 -3.56255,6.73227c-4.63007,9.5253 -8.77242,19.55279 -12.56245,29.43817c-2.08827,5.44674 -4.17653,10.89347 -6.2648,16.34021c-0.84621,2.20714 -1.52044,5.27124 -2.80813,7.24299c-2.12921,3.26031 -6.26185,6.13851 -9.05858,8.862c-2.05461,2.0008 -4.90854,6.03849 -7.50251,7.21138c-2.15695,0.97529 -3.64019,0.25488 -5.66915,-0.27083c-2.4358,-0.78623 -5.45503,-1.29601 -7.40796,-3.09959c-2.8735,-2.65374 -5.03255,-7.27487 -7.25353,-10.50818c-3.22029,-4.68811 -7.30488,-9.65802 -9.68838,-14.82886c-2.05074,-4.44894 -2.90344,-10.04819 -3.44659,-14.87068c-0.45829,-4.08391 -1.05803,-8.01923 -0.9672,-12.13685c0.2369,-10.73927 2.21013,-21.52778 0.86157,-32.25231c0,0 -0.15545,-1.2403 1.08485,-1.39575c1.2403,-0.15545 1.39575,1.08485 1.39575,1.08485c1.54574,12.37227 -1.98244,24.71177 -0.85653,37.02404c0.22461,2.45621 0.69001,4.93815 0.96597,7.39723c0.50933,4.55598 1.2967,9.90771 3.23532,14.10888c2.3234,5.03504 6.33795,9.88568 9.47592,14.45397c2.13639,3.11017 4.18219,7.50718 6.90137,10.09858c1.55902,1.48576 4.44752,1.89371 6.40704,2.52691c1.08279,0.30146 2.70324,1.00837 3.8939,0.40805c2.36339,-1.19162 4.90504,-4.87124 6.826,-6.74189c2.65674,-2.58717 6.70021,-5.35453 8.71486,-8.44598c1.1873,-1.8219 1.78124,-4.72728 2.56169,-6.7629c2.08827,-5.44674 4.17653,-10.89347 6.2648,-16.34021c3.81477,-9.94989 7.98564,-20.04037 12.6447,-29.62865c1.04945,-2.15976 2.6363,-4.26785 3.47079,-6.51659c1.38384,-3.72913 1.83324,-8.14724 2.71287,-12.03259c2.06452,-9.11902 2.74196,-17.57609 2.7448,-26.90683l0,-1.71916c0,0 0,-1.25 1.25,-1.25z"/><path d="M246.97652,251.04037c1.24733,0.08159 1.16574,1.32893 1.16574,1.32893l-0.14032,2.14517c-0.53767,8.21954 -1.98359,16.6257 -2.03878,24.8276c-0.09531,12.30787 -1.30188,25.48105 -3.98322,37.49623c-1.09123,4.88982 -1.58679,10.40565 -4.17702,14.71288c-1.34632,2.19927 -2.87046,4.2459 -4.7051,6.07754c-0.81644,0.81511 -1.41775,2.28705 -2.57104,2.31702c-1.11672,0.02902 -1.75597,-1.39017 -2.54178,-2.18415c-1.80891,-1.82771 -3.00955,-4.3323 -4.10717,-6.62624c-1.72433,-3.60368 -3.97081,-7.86053 -4.98967,-11.71565c-1.6435,-6.21861 -1.2939,-13.19548 -2.4973,-19.54761c-1.07797,-5.69907 -2.47613,-11.31386 -4.06319,-16.89391c-0.41947,-1.47485 -1.23135,-2.80945 -1.79217,-4.23655c-0.18995,-0.48337 0.29072,-1.51704 -0.22807,-1.54129c-0.51879,-0.02425 -0.13407,1.05105 -0.37085,1.5133c-0.02538,0.04954 -2.80602,3.93635 -2.85853,4.01944c-3.53854,5.59935 -6.76372,11.44842 -10.22395,17.10668c-2.48072,4.81997 -2.66294,11.27524 -3.60697,16.60816c-1.02699,5.80156 -3.01782,10.97969 -4.63723,16.5728c-1.17466,4.05705 -1.36227,8.04141 -2.45455,11.97005l0.33276,0.05888l-0.43188,2.44068c-0.09436,0.59689 -0.61119,1.05327 -1.23461,1.05327c-0.59666,0 -1.09569,-0.41805 -1.22015,-0.97722l-0.5611,-2.2861c-0.92803,-3.08566 -1.67721,-6.2112 -2.45951,-9.33673c-2.93691,-17.21874 -6.08261,-34.62719 -5.4865,-52.19109c0.37048,-10.79032 0.4107,-21.12893 -0.65639,-31.87979c-0.40199,-4.05 -0.4637,-8.22418 -1.59463,-12.13736c0,0 -0.34427,-1.20166 0.85739,-1.54593c1.20166,-0.34427 1.54593,0.85739 1.54593,0.85739c1.15839,4.07574 1.26104,8.3671 1.67909,12.57897c1.07789,10.85971 1.04135,21.31373 0.66714,32.2125c-0.60324,17.36135 2.54576,34.57122 5.43456,51.59129c0.4566,1.81855 0.90129,3.63704 1.37725,5.44757c0.35621,-2.15192 1.05502,-4.37697 1.36408,-6.11009c0.84406,-4.73316 3.0823,-9.1609 4.15698,-13.8905c1.6342,-7.19196 1.42461,-15.63907 4.74538,-22.25528c3.90278,-6.39305 7.45088,-13.22195 11.7794,-19.31786c0.56463,-0.79517 3.13436,-4.63952 3.97357,-4.6003c0.68709,0.03211 3.21978,4.21806 3.56714,5.0388c2.54358,6.00986 3.64852,13.28179 4.85601,19.6656c1.18722,6.2863 0.83067,13.22558 2.45777,19.37305c0.98067,3.70514 3.16951,7.80993 4.82789,11.27579c1.07403,2.24461 2.3894,4.0465 3.75176,6.08016c0.26857,0.40091 0.1378,1.36279 0.61739,1.30941c0.53676,-0.05974 0.3983,-1.01505 0.7087,-1.45701c1.42846,-2.03391 3.15127,-3.58822 4.45771,-5.73933c2.46386,-3.97449 2.8555,-9.40326 3.87145,-13.95573c2.64356,-11.84584 3.82932,-24.83689 3.92328,-36.97107c0.0718,-8.25596 1.50292,-16.69926 2.04403,-24.97142l0.14032,-2.14517c0,0 0.08159,-1.24733 1.32893,-1.16574z"/><path d="M275.86538,319.62144c1.87081,-4.65412 4.27375,-9.47844 4.26466,-14.5365c-0.00242,-1.34669 -0.85485,-7.32483 -0.01686,-8.15827c0.76536,-0.76121 2.15707,0.08898 3.2356,0.13347c0,0 1.22586,0.2445 0.98136,1.47035c-0.2445,1.22586 -1.47035,0.98136 -1.47035,0.98136c-0.35831,-0.24209 -0.84993,-1.09555 -1.07494,-0.72627c-0.2741,0.44986 0.52007,0.93288 0.63594,1.44676c0.47286,2.09704 0.4786,5.11121 0.19984,7.23448c-0.63752,4.85587 -3.08797,9.54239 -4.81524,14.0512l-2.41704,-0.87765c0,0 0,-0.65767 0.47704,-1.01892z"/><path d="M281.42325,244.97954c0,-0.69036 0.55964,-1.25 1.25,-1.25c0.69036,0 1.25,0.55964 1.25,1.25c0,0.69036 -0.55964,1.25 -1.25,1.25c-0.69036,0 -1.25,-0.55964 -1.25,-1.25z"/><path d="M364.94907,313.57369c0.18838,1.23572 -1.04734,1.42411 -1.04734,1.42411l-0.09845,0.01501c-1.21629,-0.03152 -2.89202,0.85809 -3.64887,-0.09456c-0.74225,-0.93428 0.50284,-2.3336 0.80209,-3.4887c0.63033,-2.43306 0.70563,-4.36957 0.63141,-6.9083c-0.1242,-4.24817 -0.52418,-8.1808 0.20499,-12.4088c0.67936,-3.93912 2.41963,-8.08743 2.62421,-12.06983c0.20088,-3.91035 -0.87517,-8.33774 -1.26707,-12.24594c-0.42653,-4.38325 -1.74378,-12.01237 -6.06912,-13.72304c-1.34003,-0.52998 -2.4803,-2.04257 -3.90813,-1.84808c-0.51837,0.07061 -0.60193,0.86175 -0.96851,1.235c-0.00489,0.00498 -3.74408,3.31948 -3.76412,3.33724c-5.59006,4.95356 -10.79375,10.31967 -16.24633,15.4263c-1.0543,1.18372 -2.31016,2.21203 -3.17445,3.54084c-3.46946,5.33413 -3.71687,12.4868 -4.58429,18.99329c-0.11576,7.04623 -1.41137,13.85189 -1.30209,20.87967l-0.00132,0.00576l0.00137,-0.00001l0.01499,2.49869c0.00002,0.00292 0.00003,0.00584 0.00003,0.00877c0,0.69036 -0.55964,1.25 -1.25,1.25c-0.42562,0 -0.80156,-0.21272 -1.02729,-0.53765l-1.28135,-1.79608l0.02018,-0.0144c-0.04929,-0.06427 -0.09674,-0.13015 -0.14214,-0.19782c-2.49908,-3.72478 -0.43743,-9.12666 0.45389,-12.98067c0.74784,-3.23359 1.41369,-6.45072 2.02046,-9.68484c0.00099,-0.13964 0.0015,-0.27937 0.0015,-0.41921c0.00207,-6.68794 -0.17671,-13.4397 0.43656,-20.10574c0.72882,-7.92202 1.45153,-16.31223 0.43532,-24.23084c0,0 -0.15543,-1.2403 1.08487,-1.39572c1.2403,-0.15543 1.39572,1.08487 1.39572,1.08487c1.21428,9.90451 -0.37942,19.80121 -0.75588,29.6956c-0.01684,0.44272 -0.03144,0.8857 -0.04406,1.32889c0.53265,-2.01794 1.27227,-3.96906 2.42781,-5.74566c0.07413,-0.11397 3.33784,-3.76351 3.48042,-3.92326c5.49139,-5.15331 10.74286,-10.55832 16.37803,-15.55186c1.16165,-1.02938 4.4515,-4.92381 5.91866,-5.1562c1.05211,-0.16665 2.02637,0.65984 3.02428,1.0325c0.26404,0.0986 4.88919,2.03709 4.93638,2.07645c1.75868,1.46698 1.87271,3.10771 2.47729,5.09346c0.9848,3.2346 2.15122,6.19766 2.49883,9.57431c0.40481,4.03699 1.48551,8.58145 1.27622,12.62417c-0.33862,6.54093 -3.48638,12.56488 -3.10652,19.2515c0.18552,3.26578 0.76438,6.96972 0.28094,10.22053c-0.13508,0.90831 -0.35758,1.82737 -0.78258,2.6414c-0.24858,0.47613 -1.40211,0.61873 -1.17315,1.1046c0.21984,0.46653 0.86268,-0.56539 1.29403,-0.84809l0.09845,-0.01501c0,0 1.23572,-0.18838 1.42411,1.04734zM320.73321,311.15756c0.01431,-0.26509 0.02985,-0.52999 0.04646,-0.79472c-0.02401,0.268 -0.03984,0.53309 -0.04646,0.79472z"/><path d="M438.61896,193.47706c1.20524,0.33151 0.87373,1.53675 0.87373,1.53675l-0.41553,1.41838c-0.11686,1.66256 -0.23371,3.32513 -0.35057,4.98769c-0.30417,4.24739 -1.18246,8.6405 -2.94406,12.52171c-0.26403,0.58171 -2.14517,4.80652 -2.46118,5.03286c-5.59188,4.00521 -11.63115,-5.16002 -16.2509,-6.28002c-1.30797,-0.3171 -1.52116,1.76182 -1.66953,2.26953c-0.54792,1.87489 -0.76193,3.77885 -1.07045,5.67501c0.08287,0.15888 0.16383,0.31681 0.24235,0.47369l1.10871,2.21239c0.09177,0.17394 0.14372,0.37214 0.14372,0.58247c0,0.69036 -0.55964,1.25 -1.25,1.25c-0.39811,0 -0.75276,-0.18612 -0.98167,-0.47609l-1.55843,-1.94027l0.0425,-0.03414c-0.09526,-0.1172 -0.18258,-0.24141 -0.26047,-0.37398c-0.24932,-0.42436 -0.24882,-0.9157 -0.172,-1.42413c-0.98124,-1.82168 -2.07884,-3.74012 -2.6362,-5.6412c-1.18063,-4.02694 -0.16093,-8.57758 -0.54763,-12.70921c-0.31809,-3.39854 -1.1623,-6.58991 -1.1673,-10.0257c0,0 0,-1.25 1.25,-1.25c1.25,0 1.25,1.25 1.25,1.25c-0.00527,3.35193 0.84708,6.47407 1.15647,9.79321c0.36562,3.92248 -0.68246,8.42619 0.45576,12.23247c0.21454,0.71745 0.51175,1.43762 0.85077,2.15358c0.50218,-3.07873 1.67507,-6.66064 5.00327,-6.51044c1.01472,0.04579 1.80559,0.93165 2.69456,1.42304c2.82333,1.56062 5.33154,3.86944 8.35782,5.06439c0.43199,0.17058 2.96351,0.72865 3.51075,0.2838c1.13869,-0.92564 1.07381,-2.73298 1.68397,-4.06757c1.64397,-3.59585 2.45393,-7.71948 2.72532,-11.66071c0.11686,-1.66256 0.23371,-3.32513 0.35057,-4.98769l0.4989,-1.90612c0,0 0.33151,-1.20524 1.53675,-0.87373z"/><path d="M468.80723,162.99105c0.18917,-0.07979 0.42634,-0.1135 0.72294,-0.06393c1.2329,0.20604 1.02686,1.43894 1.02686,1.43894c-1.26412,7.56412 -5.18274,15.63094 -4.72645,23.37012c0.09383,1.59153 0.46271,3.16928 0.43243,4.76328c-0.01177,0.61976 -0.52216,1.31644 -0.20394,1.84839c0.28394,0.47464 1.07635,0.26829 1.59115,0.4705c0.54035,0.21224 0.9867,0.83886 1.56294,0.76839c1.56614,-0.19152 4.25067,-2.87795 5.29617,-3.94132c1.30114,-1.30918 3.82839,-3.04852 4.19337,-5.03328c0.55206,-3.00213 -0.79866,-6.69755 -0.69623,-9.77222c0.08144,-2.44449 1.75838,-7.02821 0.60199,-9.35312c-0.2955,-0.59409 -1.08335,-0.76722 -1.60658,-1.17525c-1.92384,-1.50026 -3.76792,-2.74575 -5.75101,-4.09896c-0.42856,-0.29244 -0.58349,-1.04577 -1.09927,-1.10194c-0.77696,-0.08461 -1.15646,1.01244 -1.34436,1.8804zM467.75512,165.725c-0.22693,0.124 -0.52834,0.17913 -0.92289,0.06878c-1.2038,-0.33668 -0.86712,-1.54049 -0.86712,-1.54049l0.2621,-0.93711c0.69243,-2.24351 0.69374,-4.45065 3.9937,-4.70457c0.92233,-0.07097 1.54663,1.01742 2.34922,1.47741c2.29498,1.31532 7.04938,3.81685 8.27673,6.28441c1.44899,2.91316 -0.24099,7.52472 -0.34177,10.54973c-0.10647,3.19573 1.31598,7.05921 0.64842,10.18252c-0.57513,2.69083 -3.05886,4.47874 -4.87096,6.30205c-2.73796,2.72921 -5.72365,5.38829 -9.59493,3.71786c-0.93731,-0.40444 -2.16872,-0.54846 -2.71977,-1.4078c-0.61469,-0.95858 -0.56168,-6.50647 -0.63357,-7.84579c-0.39696,-7.39607 2.89109,-14.88573 4.42085,-22.147z"/><path d="M517.6363,147.43438c1.24957,0.03288 1.21669,1.28244 1.21669,1.28244l-0.04617,1.75483c-0.13091,4.97591 0.06166,10.05378 -0.59203,14.98961l0.19753,0.0052l-0.06564,2.49508c-0.01532,0.67704 -0.56895,1.22118 -1.24967,1.22118c-0.34828,0 -0.66329,-0.14244 -0.88996,-0.37224l-1.75602,-1.77848c-0.5855,-0.59299 -1.22258,-1.13914 -1.7565,-1.77896c-0.35714,-0.42799 -0.34549,-1.39181 -0.9027,-1.40772c-0.5572,-0.01591 -0.60057,0.94701 -0.98155,1.35392c-1.13911,1.21663 -2.47353,2.23444 -3.7103,3.35167c-2.47353,2.23444 -4.94707,4.46889 -7.4206,6.70333c-1.15318,1.04171 -2.66225,1.77554 -3.4906,3.09038c-0.82835,1.31484 -0.59862,3.08632 -1.28046,4.48277l-0.70269,2.37005c-0.14425,0.531 -0.62971,0.92151 -1.20639,0.92151c-0.6747,0 -1.22455,-0.53455 -1.24914,-1.20323l-0.10449,-2.45377c-0.49065,-3.98365 -0.14762,-8.1633 -0.70888,-12.0827c-0.50784,-3.54632 -2.47262,-7.59092 -3.80589,-10.91256c0,0 -0.46535,-1.16015 0.6948,-1.6255c1.16015,-0.46535 1.6255,0.6948 1.6255,0.6948c1.4026,3.49911 3.40568,7.70261 3.95314,11.44181c0.35389,2.41708 0.36553,4.93255 0.43082,7.441c0.07636,-0.14001 0.15593,-0.27581 0.23843,-0.40676c0.11881,-0.18858 3.63194,-3.3437 3.93,-3.61295c2.47353,-2.23444 4.94707,-4.46889 7.4206,-6.70333c1.13344,-1.02388 4.95776,-5.39171 6.43905,-5.34941c0.57658,0.01646 3.29107,2.82527 4.18315,3.74138c-0.29069,-1.49591 -0.04576,-3.00854 -0.00165,-4.68528c0.08767,-3.33218 0.17534,-6.66436 0.263,-9.99654l0.04617,-1.75483c0,0 0.03288,-1.24957 1.28244,-1.21669z"/><path d="M297.44443,31.65623c0,-0.69036 0.55964,-1.25 1.25,-1.25c0.69036,0 1.25,0.55964 1.25,1.25c0,0.69036 -0.55964,1.25 -1.25,1.25c-0.69036,0 -1.25,-0.55964 -1.25,-1.25z"/></g></g></svg>