<svg version="1.1" xmlns="http://www.w3.org/2000/svg" xmlns:xlink="http://www.w3.org/1999/xlink" width="123.1712" height="82.68918" viewBox="0,0,123.1712,82.68918"><g transform="translate(-202.24542,-155.57812)"><g data-paper-data="{&quot;isPaintingLayer&quot;:true}" fill-rule="nonzero" stroke-linejoin="miter" stroke-miterlimit="10" stroke-dasharray="" stroke-dashoffset="0" style="mix-blend-mode: normal"><path d="M319.84722,207.82812v-44.5h-114v43" fill="none" stroke="#000000" stroke-width="4" stroke-linecap="round"/><path d="M211.3265,192.84383c0.79906,-0.62353 1.91026,-0.70228 2.79591,-1.19512c2.98258,-1.65976 5.48406,-4.35793 8.5,-6c1.69026,-0.92028 3.66797,-1.16759 5.51245,-1.71695c2.7682,-0.82448 5.21465,-2.50182 7.90103,-3.46832c2.59568,-0.93387 5.51864,-1.16789 8.16967,-2.05157c7.26565,-1.46367 14.5378,-1.25288 21.84787,-0.57523c2.7142,0.25161 5.34163,1.26047 8.04015,1.50365c4.64493,0.41858 9.35858,0.04127 14,0.5c4.74269,0.46874 9.1585,0.98123 13.95985,0.99635c4.42687,0.73781 8.88271,0.67965 13.28409,1.54003l0.44355,-0.01426c0.34396,-0.54539 0.96062,-1.03429 2.06616,-1.03429c2.5,0 2.5,2.5 2.5,2.5c0,1 0,3 0,4c0,5.95896 0.14535,12.0129 1.89635,17.78763c0.86126,2.8404 1.23045,5.68714 2.01118,8.53873c0.59225,2.1632 1.47927,4.44558 1.04736,6.6464c-1.37505,7.00665 -11.00954,8.88456 -15.06991,2.86016c-0.61298,-0.90948 -0.49485,-2.13816 -0.80123,-3.19126c-0.77916,-2.67818 -1.2688,-5.00357 -2.72749,-7.35543c-0.08154,-0.14643 -1.20514,-2.78201 -2.12906,-2.80116c-1.89164,-0.03922 -4.85351,3.49072 -5.42878,4.99842c-0.32302,0.8466 -0.15363,1.81562 -0.39089,2.69014c-0.72995,2.69055 -1.26311,2.52917 -2.01118,5.03873c-1.2407,4.16222 -1.94437,10.28763 -7.89635,10.28763c-5.99807,0 -6.59498,-5.93222 -6.98784,-10.25366c-0.07927,-0.87204 0.21444,-3.59676 -0.29443,-4.72592c-0.25156,-0.5582 -2.21223,-2.55474 -2.53206,-2.8938c-7.23406,-2.48125 -6.18567,8.65674 -7.85387,12.77487c-1.45653,3.59561 -4.3004,6.60437 -7.7209,8.33812c-4.28443,2.17166 -10.24523,3.10025 -12.48262,-2.44905c-0.66398,-1.64685 -0.37656,-7.47171 -0.09601,-9.19102c0.41532,-2.54528 1.45013,-5.26799 1.97988,-7.84589c-0.03412,-6.31966 0.68285,-12.95007 -0.92842,-19.11199c-0.69781,-2.66861 -2.90415,-6.61304 -6.43979,-4.91875c-1.67647,0.80337 -1.91506,3.73851 -2.18492,5.22778c-1.05931,5.84616 -0.12315,11.83128 -0.96533,17.72652c-0.01928,2.02024 -0.51829,4.02304 -1.07746,5.96445c-0.30355,1.05392 -0.0962,2.35112 -0.80123,3.19126c-2.95682,3.52342 -5.27322,3.58877 -8.23004,0c-0.73036,-0.88645 -0.58372,-2.22222 -0.83643,-3.34264c-0.7354,-3.26054 -0.21084,-6.74496 -1.76299,-9.83003c-0.95809,-1.90429 -2.67182,-3.38112 -4.28555,-4.66027c-0.56022,-0.44406 -1.34894,-2.09976 -1.59843,-1.42983c-0.7182,1.92849 -0.83675,4.67194 -1.52987,6.7204c-0.91676,2.70944 -0.8717,4.37695 -0.8717,7.20943c-0.01504,1.15759 0.1637,2.33407 -0.04511,3.47277c-0.97567,5.32067 -6.96104,14.8885 -13.57292,12.2633c-1.01406,-0.40263 -1.37014,-1.70497 -2.14974,-2.4683c-0.7245,-0.70938 -1.83643,-1.05894 -2.34725,-1.93484c-1.42945,-2.45108 -0.88498,-6.13295 -0.88498,-8.83293c0,-5.79586 -0.09188,-11.28445 1.04854,-16.99029c0,0 0.38099,-1.90492 2.15048,-2.02051c1.55365,-3.72054 2.6259,-8.01206 5.78026,-10.47349z" fill="#000000" stroke="none" stroke-width="0.5" stroke-linecap="butt"/><path d="M315.16117,166.72143c0.21718,0.07104 0.42926,0.14804 0.63614,0.23072c0.01654,-0.07408 0.01338,-0.14809 -0.02026,-0.22246c-0.08899,-0.19671 -0.35907,-0.08854 -0.61587,-0.00826zM207.39576,193.83783c1.30994,-6.37441 0.45145,-12.97112 0.45145,-19.50971c0,-1.26364 0.11032,-8.53335 0.56664,-9.08497c0.88667,-1.07183 2.60695,-0.97942 3.94307,-1.36648c4.79609,-1.38937 12.035,2.4734 16.99029,2.45145c3.58805,0 5.23017,-3.33983 8.74634,-2.98783c3.28488,0.32884 6.66809,-0.297 9.95986,-0.00365c2.50241,0.22301 5.30221,0.99148 7.7938,0.99148c4.16609,0 8.44695,-0.87105 12.7062,-0.49148c4.34828,0.3875 8.67608,1.50365 13.04014,1.50365c0.17903,0.03581 0.35826,0.07047 0.53769,0.10403c0.73318,-0.6162 1.71597,-0.6162 1.71597,-0.6162h2.5c6.10476,0 11.0425,1.63268 17.0493,0.54096c0.99716,-0.18123 5.22955,-1.1454 6.56791,-0.97799c3.49726,0.43745 5.21804,0.7733 7.85556,1.48214c1.47535,0.3965 1.17282,-3.16283 2.0974,-1.94668c0.79185,1.04157 0.34218,2.59612 0.42983,3.90157c0.07194,1.07147 0.0932,2.16953 0.08983,3.27255c0.9688,1.97705 1.06835,4.32437 0.106,6.61568c0.07567,0.69726 0.06611,1.36613 -0.32412,1.90234c-0.15729,0.21613 -0.33169,0.4144 -0.51983,0.59834l0.14812,0.11109l-0.6871,0.91613c0.22489,0.44949 0.31502,1.03379 0.08925,1.77879c-0.01886,0.06532 -0.04032,0.12954 -0.06425,0.19254c-0.48844,1.3386 -1.50081,1.61052 -2.24213,1.61074c-0.03177,0.00119 -0.06371,0.0018 -0.09578,0.0018c-0.31421,0 -0.61489,-0.05796 -0.89191,-0.16378l-1.09839,-0.38476c-1.47983,-0.3041 -2.99898,-0.45961 -4.50971,-0.45146c-5.37632,-0.02382 -10.42844,-1.47557 -15.74635,-2.01217c-3.98576,-0.40217 -8.24388,0.01217 -12.25365,0.01217c-9.16667,0 -18.33333,0 -27.5,0c-1.72998,-0.0266 -3.39685,0.66052 -5.09955,0.96772c-3.39463,0.61246 -6.32592,0.92741 -9.68809,1.92864c-2.43383,0.72477 -5.07066,0.77057 -7.5,1.5c-7.43886,2.23361 -14.62247,6.73233 -20.65063,11.55581c0,0 -1.95217,1.56173 -3.51391,-0.39043c-0.44493,-0.55616 -0.60465,-1.08063 -0.60557,-1.54633c-0.61914,-0.87857 -0.39371,-2.0057 -0.39371,-2.0057z" fill="#ffffff" stroke="none" stroke-width="0.5" stroke-linecap="butt"/><text transform="translate(235.84721,180.82812) scale(0.5,0.5)" font-size="40" xml:space="preserve" fill="#000000" fill-rule="nonzero" stroke="none" stroke-width="1" stroke-linecap="butt" stroke-linejoin="miter" stroke-miterlimit="10" stroke-dasharray="" stroke-dashoffset="0" font-family="Pixel" font-weight="normal" text-anchor="start" style="mix-blend-mode: normal"><tspan x="0" dy="0">start</tspan></text></g></g></svg>