<svg version="1.1" xmlns="http://www.w3.org/2000/svg" xmlns:xlink="http://www.w3.org/1999/xlink" width="646.44986" height="497.4955" viewBox="0,0,646.44986,497.4955"><g transform="translate(87.28314,68.74775)"><g data-paper-data="{&quot;isPaintingLayer&quot;:true}" fill-rule="nonzero" stroke-linecap="butt" stroke-linejoin="miter" stroke-miterlimit="10" stroke-dasharray="" stroke-dashoffset="0" style="mix-blend-mode: normal"><path d="M-70.81081,427.74775v-495.4955h621.62162v495.4955z" fill="#ffffff" stroke="#000000" stroke-width="2"/><path d="M-84.78314,125.93279c2.5,0 2.5,2.5 2.5,2.5l-0.1903,2.0463c1.55913,1.38863 4.53712,3.94711 5.70081,5.46986c0,-3.25614 0,-6.51294 0,-9.01766c0,-0.44156 -0.0095,-6.19108 0.03228,-6.40646c0.30136,-1.55376 1.19114,-2.95251 1.5015,-4.50451c0.20767,-1.03848 -0.22975,-2.15141 0.0346,-3.17692c0.55871,-2.16746 2.4831,-3.82892 3.003,-6.00601c0.23251,-0.97362 -0.25128,-2.03405 0,-3.003c0.56189,-2.16663 2.4804,-3.82957 3.00301,-6.00601c0.2202,-0.91703 -0.21937,-1.90426 -0.0346,-2.82908c0.3157,-1.58009 1.19068,-3.01185 1.51687,-4.58981c0.60983,-2.95007 0.75404,-5.99204 1.48467,-8.91454c0.20895,-3.0083 1.09524,-5.93351 1.48942,-8.92318c0.49375,-3.74488 -0.01873,-7.91601 -0.01873,-11.70656c0,-2.36904 0.51189,-4.78706 0.03228,-7.10705c-0.32041,-1.54995 -1.19106,-2.95252 -1.5015,-4.5045c-0.18498,-0.92477 0.26033,-1.9134 0.03459,-2.82908c-0.65905,-2.67337 -2.48258,-4.98455 -3.0376,-7.68143c-0.20177,-0.98045 0.18995,-2.02019 0,-3.00301c-0.50043,-2.58927 -2.32185,-4.77688 -2.96841,-7.33358c-0.25965,-1.02671 0.17307,-2.13845 -0.03459,-3.17693c-0.31036,-1.552 -1.19111,-2.95252 -1.5015,-4.5045c-0.19631,-0.98156 0.18995,-2.02019 0,-3.003c-0.71967,-3.72359 -3.06503,-6.49473 -4.34649,-9.95426c-0.68138,-1.83952 -1.12367,-3.75895 -1.68551,-5.63843c0.89363,-1.6508 1.18709,-3.8156 2.68089,-4.95241c1.14947,-0.87478 2.87472,-0.29979 4.31733,-0.37337c4.97528,-0.25377 10.03538,0 15.01501,0c8.50851,0 17.01702,0 25.52553,0c2.9212,0 7.16445,0.60215 9.93613,0.06688c1.09885,-0.21221 1.91617,-1.23448 3.003,-1.5015c1.07842,-0.26496 2.2255,0.05004 3.33105,-0.05471c3.29867,-0.31252 6.61282,-1.33497 9.86816,-1.98604c1.71561,-0.33899 3.40744,-0.8361 5.14685,-1.01696c2.3804,-0.24751 4.86559,0.66586 7.17947,0.05471c1.08204,-0.2858 1.90427,-1.28868 3.003,-1.5015c0.45821,-0.08876 9.58129,-0.06687 10.0939,-0.06687c6.00601,0 12.01201,0 18.01802,0c15.84584,0 31.69169,0 47.53754,0c13.82198,0 28.04713,1.04755 41.81097,0.0107c2.71145,-0.20426 5.31052,-1.25018 8.01802,-1.5015c2.42817,-0.2254 7.47303,0.17689 9.9835,0.00158c2.59288,-0.18107 5.06106,-1.25019 7.6441,-1.53956c3.29341,-0.36896 6.65591,0.21031 9.93913,-0.24034c3.22635,-0.44285 6.43479,-1.2227 9.69136,-1.23538c3.6888,0 7.99712,0.64915 11.61156,0.03228c1.56002,-0.26625 2.94936,-1.20573 4.50407,-1.50143c2.78442,-0.52957 5.66945,0.01127 8.50275,-0.06532c3.23863,-0.08754 6.39691,-1.03998 9.6107,-1.4498c5.69705,-0.7265 12.07494,-0.01873 17.82798,-0.01873c11.18118,0 22.36236,0 33.54354,0c11.00601,0 22.01202,0 33.01802,0c4.42136,0 9.60296,-0.80386 13.91397,0.03228c1.55376,0.30136 2.94393,1.23764 4.5045,1.5015c2.78559,0.471 5.70187,-0.26864 8.47025,0.29476c4.23415,0.86171 5.25085,2.15301 9.45278,2.6947c2.51337,0.324 5.11469,-0.46897 7.6025,0.01355c2.37485,0.46062 4.68813,1.49922 7.10705,1.46922c5.04514,0.00226 9.37927,0.94991 14.30649,1.51751c4.11048,0.47351 8.57131,-0.01601 12.72053,-0.01601c2.36904,0 4.7654,0.39148 7.10706,0.03228c3.89448,-0.5974 6.65093,-3.51374 10.33658,-4.4699c0.95493,-0.24774 2.01679,0.3011 2.95961,0.01065c1.31715,-0.40575 2.31682,-1.53152 3.60109,-2.03171c12.43419,-4.84286 25.78807,-6.39237 38.85254,-8.54781c4.57325,-0.00827 9.14646,-0.00852 13.71972,-0.00852c2.65105,0 5.3569,-0.49662 7.95306,0.04002c1.39745,0.28886 2.60235,1.26143 4.00901,1.5015c2.67199,0.45602 5.49507,-0.60159 8.13183,0.02686c1.08866,0.25947 1.91726,1.23006 3.003,1.5015c0.97111,0.24278 2.03188,-0.24278 3.003,0c1.08574,0.27144 1.90707,1.27473 3.00301,1.5015c2.97071,0.61471 6.13043,-0.59232 9.1009,0.02354c0.95394,0.19778 1.55233,1.30979 2.50751,1.5015c1.49942,0.30094 3.06271,-0.19754 4.58732,-0.07752c4.45949,0.35105 8.71961,2.43209 13.09597,3.01219c1.67499,0.22203 3.40084,-0.25896 5.0689,0.0102c0.52973,0.08548 8.11989,2.69928 9.00901,3.00301c4.42333,-0.0348 9.86899,0.74158 14.21411,0c1.56016,-0.26628 2.95253,-1.19107 4.5045,-1.50151c0.92477,-0.18498 1.91446,0.26465 2.82907,0.0346c1.08535,-0.27299 1.91434,-1.24203 3.003,-1.5015c1.25117,-0.2982 7.70648,0.02367 8.34816,0.66535c2.34099,2.34099 0.02858,4.78848 0.66536,7.19939c0.2858,1.08204 1.24203,1.91435 1.5015,3.00301c0.46416,1.94745 -0.51125,4.07038 0,6.00601c0.2858,1.08204 1.28829,1.90435 1.5015,3.00301c0.32255,1.6621 0.05507,3.38581 0.06688,5.07888c0.03841,5.50481 0,11.01153 0,16.51652c0,6.006 0,12.01201 0,18.01802c0,2.41544 -0.68113,6.109 -0.06688,8.43463c0.2858,1.08205 1.2883,1.90434 1.50151,3.003c0.93141,4.79957 0.06687,11.21011 0.06687,16.09991c0,9.67467 0,19.34934 0,29.02402c0,12.67768 0,25.35536 0,38.03304c0,4.00401 0,8.008 0,12.01201c0,2.31115 -0.65731,4.69867 -0.06687,6.93313c0.28345,1.07267 1.24484,1.89304 1.49449,2.97407c0.66881,2.89614 -0.0897,5.96918 0.33732,8.91071c0.46879,3.22923 1.22537,6.44757 1.23807,9.71062c0,3.93051 0.71566,8.55621 -0.03228,12.41247c-0.30136,1.55376 -1.18109,2.95455 -1.50151,4.5045c-0.99513,4.81373 0.03229,11.20753 0.03229,16.11606c0,10.2451 0,20.49022 0,30.73532c0.69642,0.2654 1.5015,0.87902 1.5015,2.29771c0,2.5 -2.5,2.5 -2.5,2.5h-1.5015c-1.72407,0 -5.85049,-0.84327 -7.24124,0.76927c-0.73093,0.8475 -0.70106,2.22083 -1.5015,3.003c-0.67809,0.66262 -2.09733,0.27354 -2.64414,1.04806c-0.43904,0.62187 0.47496,1.52069 0.3065,2.26306c-0.24767,1.0914 -1.21571,1.92096 -1.5015,3.003c-0.65724,2.48836 0.49971,5.20886 -0.06047,7.72086c-0.18214,0.81678 -1.3211,1.19485 -1.5015,2.01201c-0.67938,3.07729 0.1227,6.30208 0.11568,9.45346c-1.13776,5.91796 -2.54638,11.93237 -2.99763,17.95405c-0.19691,2.6276 0.5508,5.34161 -0.06059,7.90466c-0.26615,1.11573 -1.22037,1.97942 -1.52258,3.08594c-0.30796,1.12759 0.15798,2.41013 -0.27501,3.49587c-0.65668,1.64664 -2.08191,2.88563 -2.89762,4.45956c-1.31326,2.53397 -2.43462,5.1682 -3.83157,7.65701c-4.36762,7.78134 -9.30208,16.03946 -19.03141,17.7295c-5.83072,1.01283 -10.70207,-1.41581 -16.33502,-1.64447c-2.73523,-2.31309 -5.63943,-4.46599 -8.48598,-6.60173c-2.83193,-2.12477 -6.14937,-3.39369 -7.91919,-6.77831c-0.52324,-1.00065 0.15493,-2.29099 -0.12342,-3.38533c-0.27588,-1.08461 -1.23154,-1.9169 -1.5015,-3.00301c-0.25547,-1.02778 0.16699,-2.13729 -0.0346,-3.17699c-0.26331,-1.35806 -0.90075,-2.61599 -1.34276,-3.92683c-3.75014,-11.12142 -7.85781,-22.51208 -9.18401,-34.23915c-0.8395,-7.42334 -0.016,-15.44707 -0.016,-22.93626c0.00001,-9.97864 -0.69585,-20.24908 0.09517,-30.19776c0.88066,-11.07606 4.58974,-21.67325 6.07818,-32.65095c1.75927,-12.97506 1.33415,-26.06668 1.33415,-39.12213c0,-5.93915 0.6282,-12.39479 -0.2615,-18.2942c-0.25169,-1.66891 -0.96439,-3.24574 -1.22127,-4.91386c-0.81858,-5.31566 -1.12578,-10.71193 -2.86049,-15.93866c-1.99119,-5.99952 -6.66749,-11.24562 -10.35978,-16.19032c-0.9542,-1.27786 -1.61401,-2.7676 -2.63111,-3.99598c-2.17136,-2.62238 -5.96015,-4.09216 -8.80664,-5.79987c-3.86638,-2.31958 -7.75284,-4.66942 -11.49662,-7.1859c-4.17136,-1.40219 -6.4837,-1.24657 -10.91363,-1.24729c-2.34883,-0.00038 -4.88294,-0.81986 -7.04584,0.09604c-1.4396,0.60962 -2.46653,1.95952 -3.86779,2.65275c-1.34621,0.66599 -2.99793,0.61414 -4.28855,1.38234c-1.10283,0.65641 -1.7293,1.90213 -2.67933,2.76501c-2.74027,2.48891 -6.3692,4.03035 -8.61891,7.08065c-0.66003,0.8949 -0.82407,2.09387 -1.48883,2.98526c-1.87131,2.50928 -4.2853,4.62741 -5.8845,7.31829c-0.61352,1.03234 -0.91604,2.24857 -1.63567,3.20996c-0.81359,1.08693 -2.20625,1.69115 -2.90448,2.85555c-0.77772,1.29698 -0.74728,2.95071 -1.3963,4.31664c-0.50678,1.06658 -1.50462,1.84506 -2.03314,2.90103c-2.02098,4.03786 -3.78108,8.60644 -5.23848,12.88948c-0.01153,1.05898 0.22976,2.15141 -0.03459,3.17693c-0.55871,2.16745 -2.45363,3.83617 -3.00301,6.00601c-0.68726,2.71444 -0.20621,6.86314 0.05472,9.68979c0.23458,2.54126 1.23727,4.96917 1.5015,7.50751c0.48616,4.67043 -0.26211,9.49568 0.09233,14.18233c0.25167,3.3276 1.15346,6.58398 1.41505,9.91081c0.35034,4.45554 -0.3239,8.98825 -0.00588,13.44439c0.18167,2.54558 1.17186,4.97682 1.5015,7.50751c0.45448,3.48911 0.01217,7.23326 0.01217,10.75685c-0.0229,2.91092 0.87937,5.75793 1.46922,8.60855c0.5202,2.51401 -0.16694,5.14159 0.02376,7.70176c0.22614,3.03601 1.23816,5.97599 1.50151,9.00901c0.71663,8.25385 -0.76799,16.25883 -1.49928,24.40745c-0.11039,1.22998 0.17499,5.41477 -0.06059,6.40317c-0.25947,1.08866 -1.23007,1.91726 -1.5015,3.003c-0.24278,0.97111 0.24278,2.03189 0,3.003c-0.27143,1.08574 -1.22953,1.9174 -1.5015,3.003c-0.25592,1.02153 0.27681,2.15539 -0.0422,3.15902c-0.35361,1.1125 -1.46354,1.85976 -1.89748,2.94346c-1.74162,4.3494 -1.7727,8.21606 -4.77767,12.05602c-0.71185,1.55946 -1.15606,3.27152 -2.13556,4.67838c-3.79184,5.44624 -9.28505,8.30244 -15.01707,11.12327c-1.6673,0.82051 -3.21189,1.9869 -5.01578,2.43313c-3.43072,0.84866 -10.66138,0.26671 -14.1103,-0.24927c-5.9196,-0.88561 -10.57069,-3.70712 -15.94932,-5.88016c-1.59034,-0.64252 -3.38959,-0.805 -4.86212,-1.68457c-1.26513,-0.7557 -1.97318,-2.21515 -3.15045,-3.10152c-0.99829,-0.75162 -2.43668,-0.86709 -3.30899,-1.76184c-0.96567,-0.99051 -1.3301,-2.4262 -1.96981,-3.65274c-2.10952,-4.04471 -3.99279,-8.14631 -6.3442,-12.06085c-0.94601,-1.63545 -2.29325,-3.09726 -2.83803,-4.90637c-0.44188,-1.46742 0.27771,-3.09491 -0.02383,-4.59746c-0.22021,-1.09728 -1.25981,-1.91026 -1.50151,-3.003c-0.93615,-4.23252 -0.06688,-9.76988 -0.06688,-14.0879c0,-1.16535 -0.00659,-7.67425 0.03228,-7.90796c0.03172,-0.19074 3.03789,-9.26006 3.16102,-9.56526c0.36926,-0.91529 1.19092,-1.65162 1.37808,-2.62068c0.28033,-1.45146 -0.31739,-2.98771 -0.0154,-4.43482c0.93653,-4.48767 3.5587,-8.92261 4.50068,-13.49457c0.89891,-4.36295 1.13228,-8.85406 1.46602,-13.27409c0.30539,-4.04458 1.50116,-7.6255 1.48933,-11.76567c0,-5.0515 0.99564,-11.10777 0.0513,-16.01268c-0.26059,-1.35351 -1.34211,-2.44868 -1.64718,-3.79286c-0.37311,-1.64399 -0.00841,-3.39564 -0.35852,-5.04469c-0.50419,-2.37472 -2.74982,-6.49157 -3.78767,-8.56627c-1.57754,-3.15356 -3.36451,-7.32319 -5.65235,-9.9834c-4.82114,-5.60583 -12.81474,-9.39547 -20.23965,-8.18643c-5.29339,0.86195 -7.63116,4.72973 -12.14621,6.80755c-1.07846,2.45636 -3.2278,5.25561 -3.83915,7.81563c-0.23251,0.97362 0.24278,2.03189 0,3.00301c-0.27143,1.08574 -1.28199,1.90558 -1.5015,3.003c-0.28314,1.41553 0.27143,2.90657 0.03459,4.33058c-0.2663,1.60113 -1.18226,3.03799 -1.52404,4.62472c-0.31479,1.46143 -0.1401,2.998 -0.43362,4.46385c-0.65663,3.27924 -2.14672,6.35196 -2.82817,9.62613c-0.67351,3.23597 -0.68005,6.57989 -1.22458,9.84005c-1.03462,6.19431 -2.99877,12.1478 -4.54154,18.19397c-0.96259,3.77241 -0.37387,5.15623 -1.55033,9.17949c-1.22088,4.17517 -3.38512,8.57079 -4.87741,12.70522c-1.93001,2.91204 -3.35444,7.1326 -5.3863,9.88087c-1.05698,1.42966 -2.54581,2.48588 -3.73862,3.80434c-2.78316,3.07634 -4.52499,6.83195 -7.93437,9.39911c-4.47289,3.36794 -11.2587,6.06713 -16.87724,4.94412c-3.42502,-0.68459 -5.30011,-1.7591 -8.22509,-3.23465c-2.35331,-1.18716 -4.27369,-3.08847 -6.34975,-4.71247c-1.125,-0.88003 -2.8585,-1.03842 -3.66786,-2.21528c-0.64659,-0.94019 0.17874,-2.34263 -0.20563,-3.41701c-0.2376,-0.66413 -1.10594,-0.89609 -1.53712,-1.45431c-2.1413,-2.77216 -4.02346,-5.73846 -6.17007,-8.5065c-1.12518,-4.35523 -3.67855,-8.65951 -4.44028,-13.06157c-0.24627,-1.42323 0.31679,-2.91657 0.03403,-4.333c-0.21997,-1.10189 -1.29975,-1.91265 -1.5015,-3.01802c-0.08614,-0.47195 -0.0663,-9.78605 -0.0663,-10.57196c0,-4.5045 0,-9.00901 0,-13.51351c0,-14.51451 0,-29.02903 0,-43.54354c0,-6.17117 0,-12.34234 0,-18.51351c0,-2.81163 0.60001,-5.67401 0.06688,-8.43463c-0.21221,-1.09885 -1.2883,-1.90435 -1.5015,-3.00301c-0.83535,-4.30461 1.00109,-9.364 -0.01795,-13.59572c-0.30552,-1.26874 -1.25859,-2.32887 -1.52216,-3.60698c-0.34924,-1.69353 -0.04297,-3.46793 -0.28977,-5.17939c-0.38548,-2.67306 -2.13525,-5.00163 -2.67462,-7.64794c-0.29987,-1.47125 0.24535,-3.02319 0,-4.50451c-0.31675,-1.91242 -2.74125,-3.72433 -3.83915,-4.81262c-2.72876,-2.70486 -4.8714,-5.3426 -8.35927,-7.0392c-5.27856,-2.79976 -12.38923,-0.36087 -16.52729,3.92294c-0.7126,0.73771 -0.71873,1.94965 -1.32433,2.77746c-0.92729,1.26752 -2.32512,2.14829 -3.22224,3.43733c-1.86605,2.68126 -2.75793,5.93349 -4.40839,8.75257c-4.37907,7.4797 -8.8313,16.93684 -9.95748,25.72563c-0.20224,1.57832 0.26283,3.21289 -0.04815,4.77343c-0.21872,1.09758 -1.21963,1.91992 -1.5015,3.003c-0.58622,2.25256 0.12524,4.68152 -0.25275,6.97821c-0.266,1.6162 -0.8004,3.17659 -1.2006,4.76488c-0.01972,4.50916 -1.89176,8.03254 -3.06146,12.32298c-2.35596,8.64165 -5.5847,17.41178 -15.36194,19.83471c-1.15766,0.28688 -2.38477,0.05476 -3.57738,0.06688c-2.8494,0.02896 -6.83022,0.58932 -9.5834,-0.06688c-1.08866,-0.25947 -1.91839,-1.22562 -3.003,-1.5015c-1.09435,-0.27836 -2.37309,0.37702 -3.38533,-0.12342c-1.436,-0.70995 -2.22055,-2.33148 -3.50807,-3.28459c-1.00436,-0.74349 -2.42539,-0.87824 -3.30899,-1.76184c-0.8836,-0.8836 -1.01022,-2.31071 -1.76184,-3.309c-0.88638,-1.17728 -2.36505,-1.87403 -3.10153,-3.15045c-2.17727,-3.77349 -1.85057,-4.7654 -1.80799,-8.24746c-1.53572,-2.92047 -2.27321,-3.96994 -3.0376,-7.68143c-0.19024,-0.92371 0.26464,-1.91446 0.03459,-2.82907c-0.27299,-1.08535 -1.28829,-1.90435 -1.5015,-3.00301c-0.85489,-4.40525 0.84071,-9.31441 -0.03459,-13.68744c-0.69347,-3.46458 -2.71381,-6.67485 -4.27285,-9.79293c-2.79211,-5.58422 -6.74609,-12.02706 -13.35333,-13.69993c-3.83521,-0.97102 -6.78736,1.55203 -10.48092,1.37808c-1.56316,1.70301 -3.64468,2.84524 -5.50094,4.22291c-2.96011,2.19692 -5.10905,5.75454 -7.11866,8.71191c-0.81412,1.19806 -1.96977,2.2118 -2.48271,3.56643c-0.39191,1.03498 0.10164,2.23433 -0.12404,3.31776c-1.3319,6.39411 -4.48726,12.50952 -5.80053,18.89759c-1.48955,7.24557 -2.18104,14.74274 -3.2715,22.05916c-0.24258,1.62758 -0.9467,3.16226 -1.20409,4.78756c-0.40545,2.56029 0.44569,5.23172 -0.04814,7.77644c-0.21321,1.09866 -1.27473,1.90706 -1.5015,3.003c-0.26549,1.28305 0.04458,2.62009 0.06687,3.93013c0,1.52392 0.005,7.66723 -0.03228,7.90796c-0.2422,1.56408 -1.18109,2.95455 -1.5015,4.5045c-0.41704,2.01736 0.44301,4.17605 -0.03459,6.17994c-0.25947,1.08866 -1.282,1.90559 -1.50151,3.003c-0.28314,1.41553 0.28071,2.90814 0.0346,4.33058c-0.56917,3.28954 -2.83408,8.80733 -4.94411,11.57183c-5.02877,6.5885 -15.39127,10.07639 -23.44958,8.51345c-1.55376,-0.30136 -2.95251,-1.19114 -4.5045,-1.5015c-1.03848,-0.20767 -2.15571,0.24589 -3.17693,-0.03459c-3.68268,-1.01148 -4.57722,-2.58387 -7.19939,-5.16986c-0.89901,-0.91422 -1.67126,-1.97335 -2.69702,-2.74267c-0.99968,-0.74976 -2.42622,-0.87741 -3.309,-1.76184c-0.89214,-0.89381 -1.07765,-2.29556 -1.78502,-3.34171c-1.4402,-2.12996 -3.2941,-3.97461 -4.6155,-6.18025c-2.89919,-4.83924 -4.09857,-10.13398 -6.15342,-15.31313c-0.46162,-1.16348 -1.31637,-2.17225 -1.62492,-3.38533c-0.24676,-0.97011 0.23251,-2.02938 0,-3.003c-0.51991,-2.17709 -2.44112,-3.83937 -3.00301,-6.006c-0.25128,-0.96895 0.21261,-2.02484 0,-3.00301c-0.46198,-2.12545 -1.56701,-2.27473 -2.75791,-3.86937c-2.43628,-3.26224 -2.71616,-3.89305 -4.00378,-6.49639c-0.62892,-0.74406 -1.26569,-1.48342 -1.8423,-2.26036c-3.23982,-4.36545 -5.28011,-10.48802 -7.71547,-15.35876c0,0 -1.11804,-2.23607 1.11803,-3.3541c0.65723,-0.32862 1.21788,-0.36747 1.68193,-0.25851c-0.0609,-0.29835 -0.0609,-0.50843 -0.0609,-0.50843c0,-0.22562 0,-0.45734 0,-0.6946c-0.74662,-0.85643 -1.84233,-1.43227 -2.53111,-2.34812c-0.67267,-0.89444 -0.83312,-2.10536 -1.5015,-3.00301c-1.80189,-2.41998 -4.23356,-4.3011 -6.2876,-6.51108l-0.1903,-3.95971c0,0 0,-2.5 2.5,-2.5z" fill="#000000" stroke="none" stroke-width="0.5"/><path d="M272.75206,88.49928c0,4.67192 -2.91024,6.43359 -5.10502,7.09788c-3.21784,1.9064 -6.64598,2.84686 -10.00122,4.63952c-2.05026,1.09543 -4.50471,1.57622 -6.22933,3.1348c-1.38656,1.25308 -2.94709,2.49336 -3.7197,4.19507c-0.57939,1.27614 -0.66373,2.76105 -1.35507,3.98017c-0.73912,1.30339 -2.0451,2.2095 -2.86584,3.4631c-2.38591,3.64422 -1.73541,5.22071 -2.80938,9.11406c-1.04038,3.7716 -2.8278,7.38419 -3.2763,11.27086c0.00409,4.02802 0.41243,8.02289 0.82906,12.01485c0.22873,2.19161 -0.17144,4.57228 0.76724,6.56586c1.86608,3.96318 5.88531,6.59562 7.67839,10.55983c0.89835,1.98611 0.71378,4.309 1.29415,6.41015c0.73537,2.66232 2.33523,7.38688 3.89049,9.76958c0.09462,0.04045 0.1877,0.08292 0.27859,0.12828c3.07956,1.53702 7.0468,3.36797 9.66932,5.44383c3.29355,2.60701 6.61591,6.65261 9.17693,9.96275l-0.17752,1.11541l0.1163,0.13531c0.03583,0.04119 0.07122,0.08278 0.10616,0.12476l0.48393,-0.16174l0.80657,2.41332c0.28624,0.79418 0.44225,1.65057 0.44225,2.54339c0,4.14214 -3.35786,7.5 -7.5,7.5c-2.29174,0 -4.34341,-1.02789 -5.71912,-2.64779l-2.4851,-2.89144c-2.88137,-1.62139 -4.25596,-5.16803 -6.9672,-7.06053c-3.48739,-2.43427 -5.39019,-2.72298 -7.6771,-4.7562c-1.54869,-0.85849 -3.0373,-1.88439 -4.38136,-3.2978c-1.3514,-1.42113 -1.71825,-3.52772 -2.66683,-5.24414c-1.74167,-3.15149 -3.04691,-6.535 -4.28159,-9.91743c-0.05672,-0.1554 -0.11509,-0.31006 -0.175,-0.46404c-0.93988,6.31978 -2.78298,12.63836 -4.8143,18.25648c-0.88679,2.45263 -2.97401,4.38345 -3.72269,6.8817c-1.45928,4.86939 -1.47817,11.83602 -4.77345,16.00076c-1.77317,2.24102 -3.94442,4.47315 -6.63942,5.42357c-2.98421,1.05241 -6.34951,0.65737 -9.48936,0.2644c-2.07905,-0.2602 -3.6228,-2.1691 -5.60796,-2.83938c-5.37388,-1.81445 -10.4936,-3.43783 -13.31254,-9.13513c-1.47262,-2.97628 -0.95236,-6.96011 -1.49077,-10.18156c-0.01158,-3.29195 -1.10252,-7.02235 -0.86472,-10.23611c0.25253,-3.41283 2.49897,-6.99437 2.59593,-10.42838c0.08452,-2.99372 0.22301,-6.04422 -0.38677,-8.9764c-0.67573,-3.24928 -2.45739,-6.22685 -2.95277,-9.50848c-0.36607,-2.42502 -0.35945,-4.89183 -0.55157,-7.33679c-0.63083,-8.0277 0.49107,-17.23804 -2.90158,-24.76509c-0.55916,-1.24057 -2.10537,-1.73114 -3.06894,-2.69198c-2.61917,-2.61176 -3.91021,-4.3853 -7.14453,-6.17882c-0.84194,-0.60889 -1.58569,-1.38422 -2.52582,-1.82666c-0.91182,-0.42911 -1.95517,0.52744 -2.95839,0.62281c-5.21332,0.49561 -5.65561,8.15341 -6.78855,12.22556c-0.41084,1.47668 -0.86036,2.94364 -1.21712,4.43431c-1.64316,6.86576 -3.136,14.27367 -4.17256,21.17128c-0.67637,4.50073 -0.47144,9.12802 -1.33733,13.61864c-0.11666,0.60502 -0.24385,1.20793 -0.37726,1.80958c0.31818,4.24523 -0.09397,8.53217 0.03928,12.79251c0.12127,3.87736 1.59282,7.64904 1.26584,11.57679c-0.1672,2.0085 -2.38467,7.13453 -3.08346,8.87819c-2.41765,6.03264 -4.76363,12.55432 -9.58891,17.08642l-2.61466,3.35389c-4.84892,2.07249 -10.10914,5.26469 -15.49552,5.32251c-6.70396,0.07196 -11.75823,-0.94437 -17.66252,-3.85788c-0.74976,-0.36997 -1.2619,-1.15259 -2.03931,-1.46025c-1.35306,-0.53547 -2.99565,-0.27697 -4.2432,-1.02605c-7.05521,-4.23616 -11.06266,-10.07699 -14.20536,-17.40121c-0.1611,-0.79506 -0.77848,-4.58316 -1.55023,-7.41669c-0.07208,0.86437 -0.13375,1.72876 -0.18098,2.59322c-0.1016,1.85956 0.18693,6.37598 -0.06837,7.98418c-0.84006,5.29177 -2.11358,8.03231 -2.0754,13.52439c0,3.60761 0.64495,7.92897 -0.08628,11.45174c-2.63241,12.68183 -9.26482,23.22089 -16.16833,33.83621c-2.76985,4.25912 -5.99454,8.85001 -11.02448,10.74102c-3.0186,1.13484 -8.86454,0.90806 -12.11968,0.90853c-3.66376,0.00053 -8.93471,0.20228 -12.4056,-0.85573c-1.57936,-0.48142 -2.83176,-1.69874 -4.24764,-2.54811c0,0 -6.24563,-4.15236 -2.09328,-10.39799c4.15236,-6.24563 10.39799,-2.09328 10.39799,-2.09328c1.82566,1.75821 6.13929,0.89474 8.34853,0.89511c5.15251,0.00085 6.47572,1.07302 9.46208,-2.94253c0.40155,-0.53993 0.65124,-1.17893 1.0168,-1.74385c5.77151,-8.91904 11.52101,-17.49723 14.00617,-28.06809c0.6378,-2.71294 -0.08628,-6.34627 -0.08628,-9.18303c0.01223,-2.25312 -0.16415,-4.51519 0.03669,-6.75937c0.2738,-3.0594 1.6525,-5.92607 2.19852,-8.94878c0.393,-2.17563 -0.19318,-4.42485 -0.06837,-6.63216c0.34039,-6.01975 1.33434,-12.03121 1.72424,-18.05539c0.33528,-5.18027 -0.72912,-9.47356 -1.25821,-14.65615c-0.69646,-6.82198 0.20801,-13.28387 0.04428,-19.98508c-0.36552,-0.63901 -0.70613,-1.28823 -0.94847,-1.97432c-1.3485,-3.81778 -2.16161,-8.59842 -2.56034,-12.59049c-0.25187,-2.52173 0.21519,-10.3435 0.99017,-11.66674c0.09595,-0.16383 0.19518,-0.32519 0.29745,-0.48424l-0.16591,-0.04753l0.81641,-2.84967c0.84333,-3.21903 3.77215,-5.59394 7.25565,-5.59394c3.76345,0 6.87947,2.77196 7.41777,6.38558l0.4107,2.45751l-0.4628,0.07734c-0.00902,0.04706 -0.01848,0.09397 -0.02838,0.14072l0.58973,0.77205c-0.2232,2.52443 -0.41192,5.05957 -0.85811,7.55426c0.80221,4.54785 1.70598,9.50381 2.07851,14.15834c0.61136,1.12286 1.19127,2.25512 1.49253,3.48752c0.63351,2.5916 0.39167,5.33575 0.92164,7.95049c0.22522,1.11116 1.10082,2.02125 1.32477,3.13267c0.6282,3.11762 0.80247,6.3132 1.38248,9.44014c0.91342,4.92445 0.47024,10.86415 2.06023,15.5126c0.63382,1.853 3.18498,2.44179 4.18014,4.1285c2.98031,5.05134 3.24759,8.46891 4.32524,13.90099c1.29971,3.01158 3.41294,6.81037 6.48568,8.39224c1.06211,0.54678 2.40765,0.2479 3.51607,0.69338c1.14621,0.46066 2.03035,1.42269 3.1333,1.97902c1.87868,0.94761 3.42726,1.4723 5.07284,1.76978c2.02794,-3.48814 6.53006,-3.48814 6.53006,-3.48814c1.55185,0 5.13327,0.67133 6.57914,-0.43491c3.3196,-2.53985 4.80489,-8.35592 6.28888,-12.05263c0.14771,-0.36796 0.33322,-0.72719 0.53236,-1.08303c-2.19079,-1.3094 -3.65777,-3.70458 -3.65777,-6.4424c0,-0.40542 0.03217,-0.80333 0.09409,-1.19131l0.36107,-2.5209c0.08653,-2.35707 0.78176,-4.66322 1.36642,-6.94987c0.52206,-2.04187 -0.91095,-5.87163 -0.90297,-8.19419c-0.99534,-3.83151 -2.86207,-7.41451 -3.41374,-11.35917c-1.27884,-9.14423 -0.2492,-18.29696 0.1661,-27.42526c-0.59991,-6.88217 -1.16093,-13.76595 -1.54125,-20.65469c-0.36246,-6.56526 -0.12545,-12.63599 -1.48824,-19.01102c-0.18626,-0.48851 -0.37911,-0.98663 -0.28616,-1.24533c-0.03989,-0.16206 -0.08089,-0.32434 -0.12303,-0.48686l-0.79153,-2.76281c-0.21952,-0.7051 -0.33779,-1.45484 -0.33779,-2.2322c0,-4.14214 3.35786,-7.5 7.5,-7.5c3.27461,0 6.05905,2.09861 7.08176,5.02426l1.23153,3.27525l-0.25503,0.0959l0.01381,0.04821l-0.09456,0.02709c0.03694,0.03725 0.07377,0.07461 0.11049,0.1121l0.01756,-0.01849c0.00394,0.01619 0.00789,0.03238 0.01185,0.04857c0.14885,0.15249 0.29582,0.307 0.44078,0.46368c1.11183,1.20174 0.96491,3.02606 0.95072,4.77238c0.21007,0.86621 0.39264,1.73775 0.52097,2.61982c0.44039,3.02695 0.43012,6.17406 0.40268,9.31168c0.11968,1.78997 0.25797,3.5794 0.46708,5.36875c0.42893,3.67026 0.86888,7.27974 1.13508,10.90417c1.10727,-4.24899 1.64977,-6.33116 4.58867,-10.79665c4.36194,-6.6277 14.55777,-10.52259 22.4459,-8.20153c2.22135,0.65363 4.06351,2.22136 6.09527,3.33203c8.43585,4.89803 15.65907,12.36232 18.562,21.77884c2.83762,9.20469 1.00335,19.75146 2.25648,29.245c0.46758,3.54235 2.39667,6.75984 3.08214,10.26655c0.80108,4.09815 0.67753,8.34729 0.47541,12.51811c-0.16277,3.35888 -2.19244,7.00471 -2.5768,10.20639c-0.2454,2.04414 0.86871,5.45958 0.85952,7.81931c0.36928,2.20949 0.57742,2.69461 0.4608,4.70726c0.87682,0.19882 0.97887,1.00211 1.9785,1.33963c2.42341,0.81825 4.13463,1.50751 6.4618,2.74918c0.07031,0.03751 0.15492,0.05463 0.24362,0.06469c0.04477,-0.50761 0.24343,-1.01326 0.38022,-1.50726c0.95389,-3.44488 1.50032,-7.00342 2.61345,-10.40019c0.90562,-2.76356 3.06724,-4.99263 4.03671,-7.73445c2.5639,-7.25116 5.21729,-16.54284 4.20937,-24.29345c0.00252,-5.86569 0.38024,-11.72971 0.85072,-17.5765c0.27473,-3.41409 -2.37471,-7.92426 -2.55604,-11.39659c-0.17163,-3.28673 -0.03382,-6.58098 0.01446,-9.87358c-0.11476,-1.68577 -0.10126,-3.3911 -0.07043,-5.09642c-0.27359,-2.66087 -1.59732,-5.17025 -1.97472,-7.83227c-0.24871,-1.75424 -0.29539,-3.52749 -0.33645,-5.30186c-0.62728,-1.683 -1.20423,-3.28125 -1.47003,-4.62992c-0.4919,-2.49583 0.0014,-5.11055 -0.41355,-7.62032c-0.00658,-0.03982 -0.01317,-0.07931 -0.01976,-0.11849c-0.55342,-1.93002 -1.13747,-3.8509 -1.59923,-5.78881c-0.65075,-2.73103 -0.6423,-5.49198 -0.77805,-8.26123c-0.42356,-0.91986 -0.98441,-1.84054 -0.63789,-2.71481c0.09736,-0.24563 0.19968,-0.48877 0.30652,-0.72965l-0.05238,-0.31342h-0.32703c0,0 0,-2.57935 0,-2.57935c0,-4.14214 3.35786,-7.5 7.5,-7.5c3.76348,0 6.87952,2.772 7.41778,6.38566l0.41067,2.45752l-0.13761,0.023l0.16859,0.17933c0.00622,0.05679 0.01218,0.11382 0.01791,0.17109c0.22981,0.48459 0.17039,1.63559 0.30034,2.21838c0.48229,2.16296 0.44425,4.41072 0.58984,6.62201c0.12811,1.94565 0.77027,3.81497 1.2534,5.71156c0.95733,3.41558 1.84029,6.86221 2.17207,10.39114c0.13049,1.38798 0.11898,2.7867 0.1211,4.18386c0.80454,2.227 1.67339,4.41423 2.14922,6.75584c0.52844,-1.04505 1.09534,-2.07002 1.70898,-3.06542c0.60221,-0.97685 1.74595,-1.55428 2.30701,-2.55533c0.64447,-1.14987 0.61097,-2.59483 1.23136,-3.75786c1.06148,-1.98994 6.63287,-7.96933 7.48794,-8.70166c2.87562,-2.46284 7.5839,-4.56961 11.05661,-6.1312c2.41974,-1.08809 5.12216,-1.08539 7.07073,-2.91466l5.10863,-1.63735c0,0 7.5,0 7.5,7.5z" fill="#804796" stroke="none" stroke-width="0.5"/><path d="M64.28505,85.67111c1.96837,7.23709 -5.26872,9.20546 -5.26872,9.20546l-4.74173,1.28967c0,0 -7.23709,1.96837 -9.20546,-5.26872c-1.96837,-7.23709 5.26872,-9.20546 5.26872,-9.20546l4.74173,-1.28967c0,0 7.23709,-1.96837 9.20546,5.26872z" fill="#804796" stroke="none" stroke-width="0.5"/><path d="M107.74162,338.69579c0,-7.5 7.5,-7.5 7.5,-7.5l3.43107,0.01141c5.39109,0.58587 7.01117,0.68782 13.27004,1.88383c1.26301,0.24135 2.4263,1.34984 3.69144,1.11992c4.19799,-0.76292 7.58,-2.95864 11.24133,-5.04062c1.95745,-1.11308 4.05813,-1.95304 6.09561,-2.9118c0.41261,-0.19416 0.29433,-0.86365 0.516,-1.26916c-0.30412,-0.31831 -0.6187,-0.63781 -0.77235,-1.04261c-1.08678,-2.8633 -1.25354,-5.29098 -2.02426,-8.17762c-0.72132,-2.70161 -1.94582,-5.80102 -4.24116,-7.59552c-4.84773,-3.78996 -6.44161,-4.58731 -10.80256,-7.08984c-2.96331,-2.31502 -6.11176,-4.41084 -8.88994,-6.94506c-1.6864,-1.53831 -2.37656,-4.06126 -4.24358,-5.3745c-3.03438,-2.13434 -8.75413,-1.16889 -12.02639,-2.64359c-3.47492,-1.56603 -7.2436,-2.99136 -9.89603,-5.72853c-3.20028,-3.30251 -2.30072,-12.6231 -0.15227,-16.16671c8.21324,-13.54674 23.43963,-15.04586 36.09138,-22.32291c0,0 6.51621,-3.71336 10.22957,2.80285c3.71336,6.51621 -2.80285,10.22957 -2.80285,10.22957c-7.93076,4.48668 -16.8906,6.77591 -24.87978,11.10611c-2.07612,1.12528 -4.08791,3.59174 -5.41263,5.26116c-0.016,0.02016 -0.02775,0.05234 -0.03608,0.09374c0.39612,0.11985 0.81736,0.32356 1.1953,0.36527c2.71893,0.30007 5.39607,0.94935 8.03373,1.67419c1.76109,0.48395 6.22181,1.70238 7.52814,2.56053c2.8559,1.87607 4.45498,5.20268 6.96407,7.52223c2.04585,1.89131 4.41892,3.39462 6.62837,5.09193c4.85093,2.74292 7.04949,3.86202 12.4749,8.38624c4.50393,3.7558 7.11366,9.25917 8.69072,14.75873c0.60591,2.11296 0.62127,4.3925 1.42423,6.43871c1.16138,2.95957 2.26899,6.24077 1.74582,9.37671c-0.67357,4.0374 -3.10313,8.12998 -6.31283,10.66588c-1.45675,1.15094 -3.36338,1.57526 -5.01376,2.42557c-7.149,3.68334 -12.3004,7.52482 -20.75562,8.53717c-2.99488,0.35858 -4.80549,-0.93742 -7.51632,-1.45943c-4.63565,-0.89267 -6.779,-1.09022 -10.86948,-1.55526l-2.60384,0.01141c0,0 -7.5,0 -7.5,-7.5z" fill="#804796" stroke="none" stroke-width="0.5"/><path d="M195.90577,343.58753c3.66915,6.34858 -2.67004,10.14183 -2.67004,10.14183l-9.70545,1.37818c-1.2621,-3.1903 -3.17517,-6.19489 -3.7863,-9.57089c-0.3977,-2.197 0.77649,-4.41236 0.85111,-6.64381c0.15226,-4.55329 -0.46409,-9.10114 -0.82897,-13.64234c-0.69294,-8.62408 -1.11783,-17.27118 -1.43653,-25.92733c-0.70098,-0.8913 -1.25145,-2.08403 -1.51613,-3.6765c-0.43204,-2.59942 0.20101,-4.43735 1.20405,-5.72799c-0.37479,-12.33982 -0.65302,-24.68776 -1.30293,-37.00341c0.22325,-3.24993 -0.91477,-6.90352 0.66974,-9.74978c5.54807,-9.96602 12.33126,-7.585 20.19628,-4.36398c1.89811,0.77735 4.20258,1.03534 5.61063,2.52682c7.3103,7.74346 14.29085,22.43978 12.99403,33.22841c-0.36044,2.99863 -2.0627,5.72868 -3.55647,8.24062c-4.63909,7.80113 -11.25272,13.55141 -19.29229,16.76771c0.30492,8.08082 0.71139,16.15261 1.35623,24.20322c0.4156,5.18868 1.04858,10.38717 0.89515,15.59021c-0.03722,1.26206 0.29841,2.84251 0.31791,4.22904zM191.71826,252.68915c0.52797,10.05904 0.8028,20.1406 1.08944,30.22111c2.74874,-2.05695 5.0698,-4.74123 6.95595,-7.82581c0.58287,-0.95322 1.49511,-1.82578 1.61626,-2.9365c0.54901,-5.03346 -4.6339,-15.07998 -7.69701,-19.21825c-0.25534,-0.34496 -0.87456,0.06798 -1.28647,-0.05253c-0.22389,-0.0655 -0.45042,-0.12737 -0.67817,-0.18803z" fill="#804796" stroke="none" stroke-width="0.5"/><path d="M328.13621,324.65623c0,7.5 -7.5,7.5 -7.5,7.5h-2c-8.43348,0 -20.55931,2.26356 -26.94298,-4.12012c-3.56801,-1.18934 -4.98708,-3.33651 -7.81193,-5.57982c-2.64939,-2.10397 -5.53451,-3.43078 -7.90938,-5.78262c-0.44863,1.0704 -0.94865,2.1279 -1.50129,3.16984c-1.21183,2.28473 -3.02857,4.19308 -4.54285,6.28961c-2.9581,1.79133 -5.6577,4.10409 -8.87431,5.37399c-3.20658,1.26594 -6.72443,1.53852 -10.12152,2.12547c-12.39182,2.14106 -28.74567,-0.3191 -35.04708,-13.04475c-2.78835,-5.63106 -2.11447,-7.52847 -1.65038,-13.39105c0.42153,-5.32505 -0.37664,-10.91768 1.36733,-15.96668c1.32336,-3.83126 4.84317,-6.50774 7.4637,-9.60009c4.73886,-5.59209 10.15559,-10.7063 14.99564,-16.23335c0,0 4.94644,-5.63761 10.58406,-0.69117c0.25896,0.22721 0.49559,0.45589 0.71139,0.6854c0.54533,0.01999 1.08649,0.04233 1.61177,0.04082c8.65515,-0.02486 16.70145,4.44096 21.1701,11.84055c2.18301,3.61482 3.88738,7.47766 5.05409,11.46226c1.94237,0.62862 13.48982,3.95434 15.99261,5.82089c3.03272,2.26176 4.18889,7.02421 7.38585,9.18043c4.61069,3.10972 11.5686,0.58446 16.73118,1.65766c1.04558,0.21736 1.7262,1.25784 2.5893,1.88675l1.46449,-0.10081c0,0 7.4424,0.92773 6.51467,8.37013c-0.21712,1.74177 -0.79106,3.02509 -1.54291,3.96915c1.04243,1.10967 1.80845,2.74056 1.80845,5.13748zM251.13621,282.65623c0,0 -0.01802,-0.01351 -0.05133,-0.04004c-0.30026,2.66829 -0.84538,5.42691 -1.7077,7.84656l0.09735,1.37488c0,0 0,7.5 -7.5,7.5c-7.5,0 -7.5,-7.5 -7.5,-7.5l0.01166,-0.45316c-0.1095,0.11449 -0.21904,0.22894 -0.3286,0.34338c-1.5699,1.63967 -3.9544,2.84172 -4.606,5.01624c-1.1053,3.68859 -0.15473,7.70107 -0.35703,11.54639c-0.13432,2.55321 -1.01102,3.45967 0.07399,5.52411c3.47812,6.61785 13.39731,5.93478 19.26701,5.01067c2.38436,-0.37539 4.8282,-0.5593 7.12103,-1.31362c1.48694,-0.48919 2.70505,-1.57603 4.05757,-2.36404c4.0669,-6.29115 4.88166,-11.83849 3.71856,-17.94101c-1.10826,-1.95556 -2.06373,-4.00099 -3.2676,-5.90816c-1.74923,-2.10346 -3.81685,-3.93314 -5.97569,-5.57142c0,0 -1.0796,-0.83737 -1.95982,-2.2581c-0.36678,-0.27353 -0.73207,-0.54405 -1.0934,-0.81267z" fill="#804796" stroke="none" stroke-width="0.5"/><path d="M446.00927,292.02028c0.67715,7.46937 -6.79221,8.14652 -6.79221,8.14652l-5.07993,0.45284c-9.4998,-0.01067 -19.85369,-1.55533 -28.31807,-5.97035c-1.61985,-0.84491 -3.37645,-1.57792 -4.67145,-2.86662c-0.94075,-0.93617 -1.71962,-2.01088 -2.45855,-3.11977c-1.96715,2.25606 -4.02895,4.41633 -6.4082,6.58169c-5.82191,5.29854 -10.83323,9.40941 -18.3685,10.34838l-3.88394,1.58788c-8.55641,1.73882 -18.2319,3.28523 -26.86436,1.79576c-5.66395,-0.97728 -11.87413,-0.39346 -16.97106,-3.04991c-13.96359,-7.27762 -22.8064,-24.83249 -18.88918,-40.18017c0.92407,-3.62053 4.38246,-6.1316 5.81968,-9.58073c2.46762,-5.92194 4.06399,-12.2744 9.91934,-16.05375c5.74484,-3.70802 13.5631,-6.11184 19.77918,-8.86742c0,0 6.85668,-3.03906 9.89574,3.81763c3.03906,6.85668 -3.81763,9.89574 -3.81763,9.89574c-5.59757,2.48059 -11.87022,4.57101 -17.29235,7.46834c-2.95497,1.57899 -3.78641,7.53512 -4.73667,9.73971c-0.85424,1.98184 -1.93312,3.86762 -3.09102,5.68879c-0.64579,1.01571 -1.92226,1.64216 -2.29718,2.7859c-2.41724,7.37407 5.02685,18.92349 11.38543,21.85317c3.86455,1.78057 8.4419,1.07658 12.6554,1.66946c6.37293,0.89673 13.76194,-0.10385 20.13861,-1.33304l0.50656,-0.21495c1.38312,-1.15167 3.05589,-1.57832 4.10547,-1.73638c0.46814,-0.1704 2.10192,-0.69603 3.9673,-0.49742c3.12215,-1.09037 5.54725,-4.06807 7.96413,-6.24975c1.4243,-1.28569 2.95951,-2.45659 4.28305,-3.84578c0.72569,-0.76168 1.50028,-1.59992 2.2896,-2.48855c-2.85218,-1.78465 -6.02013,-3.10658 -8.61879,-5.24003c-1.96545,-1.6136 -3.42342,-3.78619 -4.83299,-5.90274c-3.3382,-5.01251 -2.4872,-7.40522 -2.90053,-13.96078c-0.74557,-11.82504 -1.15885,-24.41887 1.05446,-36.10205c0.89206,-4.70884 3.27201,-7.3011 6.32693,-10.86457c5.68089,-6.62658 13.59591,-13.22803 22.39129,-6.28077c2.11584,1.67125 2.9546,4.51867 4.23516,6.89143c2.88834,5.35183 4.2676,9.65283 5.44359,15.44749c1.20695,8.39908 1.95015,16.55972 2.65853,25.0387c0.27457,3.28652 0.7698,4.03023 0.44533,7.32666c-0.73403,7.45722 -2.55465,15.05543 -6.16221,21.67315c-0.09321,0.17098 -0.21451,0.36851 -0.35815,0.5867c0.90885,1.4559 1.71122,2.99062 2.81157,4.30475c1.1901,1.42132 3.29508,1.74947 5.069,2.28774c5.30825,1.61072 11.52761,2.6432 17.11763,2.63176l4.40347,-0.4069c0,0 7.46937,-0.67715 8.14652,6.79221zM397.23041,265.42621c5.36733,-12.77695 1.72849,-28.03795 -0.13635,-41.10151c-0.93883,-4.75889 -1.89666,-6.32032 -3.98981,-11.09156c-1.48691,1.75308 -4.45259,5.2726 -4.51711,5.36685c-2.31042,3.37533 -1.30929,8.08546 -1.61376,12.16445c-0.66653,8.9294 -0.10881,18.44842 0.62056,27.33189c0.10848,1.32119 1.35252,2.3712 2.42226,3.15412c2.24188,1.64078 4.84217,2.72954 7.21421,4.17574z" fill="#804796" stroke="none" stroke-width="0.5"/></g></g></svg>